<?xml version="1.0" encoding="UTF-8"?>
<svg id="Layer_2" data-name="Layer 2" xmlns="http://www.w3.org/2000/svg" xmlns:xlink="http://www.w3.org/1999/xlink" viewBox="0 0 2286.77 952.97">
  <defs>
    <style>
      .cls-1 {
        fill: url(#linear-gradient);
      }
    </style>
    <linearGradient id="linear-gradient" x1="1143.38" y1="952.97" x2="1143.38" y2="0" gradientUnits="userSpaceOnUse">
      <stop offset="0" stop-color="#fecf59"/>
      <stop offset="1" stop-color="#f79317"/>
    </linearGradient>
  </defs>
  <g id="Layer_1-2" data-name="Layer 1">
    <path class="cls-1" d="M1543.49,144.08l-23.22,123.48-23.54,131.77-22.75,148.02c-1.51,9.8-15.56,11.47-24.74,9.34l-42.96-9.97c-8.7-2.02-17.11-5.86-24.1-10.6-11.32-7.68-14.29-18.83-13.55-31.53l5.67-97.14,13.66-130.87,13.86-99.95-53.39,6.72c-8.63,1.09-16.33,4.73-25.19,2.79l-68.3,9.66-143.57,22.33c-3.83.6-9.99-.34-11.69-3.38-3.59-6.42-3.17-13.98-3.09-21.01l.18-14.62c.15-12.18,1.51-23.94,4.78-35.59,2.48-8.82,8.7-15.87,17.64-18.46l51.16-14.8,108.39-25.61,103.36-21.7c68.05-13.02,135.88-21.81,204.59-30.48l132.4-19.39L1836.04.22c6.43-.71,13.31.2,18.21,4.07,4.13,3.26,5.66,9.69,5.59,15.22-.36,28.09-6.32,55.55-16.49,81.68l-3.85,7.35c-6.65,12.7-13.98,14.9-29.43,15.6l-127.85,5.73-102.88,8.48-35.87,5.73ZM1801.12,389.88c-4.41-11.31-10.77-21.83-19.71-30.22-5.7-5.34-14.24-7.05-22.36-6.75-27.58,1.04-54.34,4.67-82.35,9.03l9.89-36.43,17.07-61.04,134.55-22.19c9.28-1.53,17.72-2.8,26.26-5.82,12.69-4.49,7.65-18.26,4-30.54-3.48-11.7-8.42-21.87-14.96-32.02-10.32-16.03-20.58-19.22-40.37-19.11l-67.81,8.67c-62.28,10.23-122.86,24.54-184,42.22l-14.27,129.84-16.24,147.7-5.59,52.53c-1.33,12.52,4.69,24.65,14.79,32.28,16.18,12.23,33.6,22.19,52.33,30.28,10.67,4.6,22.44,6.03,33.99,3.38l165.62-37.96c3.88-.89,9.07-3.4,11.1-5.8,3.07-7.3-1.14-13.59-4.35-19.64-11.11-20.95-20.34-42.61-45.75-40.65-38.29,2.96-75.73,9.59-114.02,17.32l9.92-41.62,3.75-16.66,64.19-14.2,75.79-16.06c5.51-1.17,10.96-3.51,15.43-6.85,1.95-1.46,1.89-7.21,1.03-9.42l-7.9-20.26ZM2280.64,474.39c-3.91-4.24-10.5-6.8-16.62-6.44l-146.87,8.64-168.92,20.39,11.54-40.69,49.3-163.96,43.03-131.74,17.79-50.5c3.31-9.4,1.67-18.9-3.9-26.62-6.53-9.05-13.98-16.39-23.22-22.95-21.2-15.06-44.37-26.66-69.27-34.44-5.99-1.87-13.58-2.58-18.8.83-6.04,3.95-10.74,10.87-12.91,18.2l-36.8,124.52-32.69,127.56-.4,6.4c-.58.69-1.7,2.4-2.07,4.12l-34.06,157.47-9.75,55.54c-2.63,14.97-.33,28.92,8.99,41.38l17.27,19.49,25.46,25.49c7.62,7.63,17.43,11.19,28.5,11.18l25.39-3.88,39.4-2.15,138.15-2.37,140.84,4.17c6.26.19,13.49-1.89,16.99-6.43,12.52-16.26,17.58-61.27,19.72-83.96l.05-31.79c0-5.83-1.99-12.98-6.13-17.46ZM1323.81,269.24c-11.87-9.99-24.79-18.01-39.01-24.85-19.93-9.59-39.89-17.58-61.3-23.42-19.26-5.25-38.88-5.11-58.34-1.99-18.38,2.94-33.46,10.95-48.29,21.94-42.2,31.28-76.1,72.5-98.56,119.98-6.52,13.78-9.94,27.09-13.73,41.38-11.97,45.04,1.33,91.5,35.08,123.85,26.32,25.23,56.29,39.76,87.69,57.41l55.45,31.17c9.72,5.46,30.07,20.74,24.25,27.75-16.17,19.46-52.63,12.25-76.72,4.96-23.83-7.21-45.22-18.1-67.31-29.5-23.25-12.01-60.02-10.08-82.88,2.63-4.22,2.35-7.49,6.44-8.26,10.53-2.45,12.9,14.71,25.31,26.28,34.62,16.42,13.2,32.81,25.18,51.01,35.88,44.77,26.32,95.93,36.38,147.4,29.5,22.39-2.99,43.14-8.37,63.09-18.99,31.8-16.94,50.34-38.93,63.4-72.48,5.21-13.39,3.21-27.25-4.37-39.02-3.34-5.19-7.03-10.25-11.75-14.67-9.31-8.72-19.04-16.38-30.09-22.86l-43.48-25.51-52.6-31.08-27.65-21.54c-8.98-6.99-13.15-17.85-15.13-28.98-4.66-26.21,5.86-52.6,19.95-74.73,10.43-16.39,22.78-31.2,38.09-43.31l17.19-12.01c1.51-1.05,6.06-1.41,7.72-.6,5.85,2.83,5.85,15.58,4.45,24.71l-3.73,24.4-7.77,46.39c-5.63,33.61,20.57,54.78,49.98,66.39l35.6,11.19c14.77,4.64,24.53-14.2,29.44-29.01,11.87-35.81,19.18-72.47,24.42-109.85,1.4-9.97,1.43-18.6.79-28.54-1.57-24.34-11.45-45.84-30.3-61.71ZM992.96,423.16c-4.5,40.86-14.35,80.05-29.97,117.83-10.9,26.38-24.88,50.28-43.57,71.88-19.65,22.72-46.23,36.06-76.42,38.45-20.5,1.62-40.11-.27-60.59-2.9-39.18-5.04-82.53-27.22-97.83-63.72l-10.18-24.3c-8.25-24.42-12.7-49.12-14.06-75.03-1.99-38.24,1.99-75.74,11.86-112.72,8.18-30.66,19.7-59.44,35.85-86.79,13.43-22.76,28.23-44.05,48.16-61.9,20.48-18.34,48.38-29.88,76.03-29.98,29.98-.1,59.02,7.55,86.42,18.5,16.02,6.4,29.26,15.97,41.21,27.85,17.16,17.06,26.7,44.27,30.65,67.59,6.41,37.89,6.71,76.5,2.45,115.24ZM843.63,556.67c20.39-33.83,32.4-79.34,38.82-117.79,5.85-35,8.48-78.85,3.27-114.38-2.1-14.29-7.58-37.06-19.81-41.06-13.68-4.48-26.53,10.96-35.45,23.92-9.41,13.67-17.14,28.11-23.73,42.89-16.45,36.91-30.11,80.64-34.1,121.39-2.9,29.55-2.94,66.72,7.12,94.36,2.23,6.13,5.73,12.2,10.3,16.64,8.67,8.43,20.86,8.34,30.39,1.14,9.58-7.24,16.92-16.72,23.19-27.12ZM621.69,106.53c-32.86-17.2-74.3-30.54-111.47-33.04-14.29-.96-28.86,2.18-33.17,15.65-2.36,7.37-3.88,14.99-3.94,23.12l-.82,114.43,1.86,146.79,1.28,117.85c.01,1.37-.44,3.74-.85,4.79l-32.54,10.19c-28.4,8.89-55.69,17.46-84.1,27.81l-.37-15.98-1.11-77.87-1.13-82.92.55-104.85c.12-22.49-.12-41.59-20.11-54.24-38.79-24.54-83.68-35.83-129.01-42.83-16.52-2.55-34.8-4.7-39.61,13.85-2.2,8.48-4.06,17.64-3.24,26.88l8.78,99.53,10.19,101.26,7.79,75.55,7.92,78,4.09,42.23-139.22,52.67-48.99,21.44c-5.62,2.46-10.83,7.1-13.25,12.75-3.93,9.17,2.38,25.28,7.28,35.96,5.75,12.54,13.07,24.03,20.36,35.95,10.01,16.37,19.23,32.25,40.53,25.98l146.07-43,2.19,25.89,5.29,89.01,1.69,44.52c.35,9.36,3.33,18.67,8.93,25.95,7.08,9.2,17.05,14.31,27.69,18.47,11.25,4.4,22.37,7.97,34.48,9.35l45.29,5.16,15.1.12c4.29.03,10.31-1.78,12.84-5.79,3.36-5.31,4.9-12.34,4.48-18.99l-6.81-108.86-3.53-88.31-.53-29.24c18.45-7.28,36.09-16.17,55.26-22.29l63.91-16.65,2.18,43.32,3.26,57.93,4.62,57.14,2.11,24.26c1.45,16.71,11.53,29.02,26.59,35.65,14.22,6.26,28.88,10.8,44.63,12.28l34.02,3.19c13.22,1.24,31.73.26,36.86-10.28,2.41-4.96.55-10.08.55-15.22l-.07-74.27.36-45.02.74-63.88.92-55.85.52-37.04.32-7.94,1.41-55.07,1.99-69.93,4.34-118.8,7.1-148.74,1.69-32.49c.71-13.61-2.25-30.28-12.21-39.55-6.61-6.14-13.78-11.73-22-16.03Z"/>
  </g>
</svg>