<svg width="1564" height="411" viewBox="0 0 1564 411" fill="none" xmlns="http://www.w3.org/2000/svg">
<g filter="url(#filter0_d_985_367)">
<path d="M553.551 103L529.715 19.9892H552.128L565.291 69.2028L577.742 19.9892H599.562L612.37 67.8983L625.177 19.9892H647.59L623.754 103H600.985L588.652 53.9051L576.319 103H553.551ZM655.513 103V19.8707H677.452V50.7032H708.047V19.9892H729.986V103H708.047V70.863H677.452V103H655.513ZM737.936 103L769.718 19.9892H793.316L825.098 103H801.855L796.993 89.7183H766.041L761.179 103H737.936ZM773.157 70.3886H789.877L781.576 47.3828L773.157 70.3886ZM841.931 103V40.149H818.45V19.9892H887.231V40.149H863.869V103H841.931ZM923.723 103V19.9892H945.662V103H923.723ZM988.909 104.423C985.035 104.423 981.24 103.909 977.524 102.881C973.809 101.775 970.409 100.273 967.326 98.3751C964.322 96.4777 961.831 94.3432 959.855 91.9714C957.878 89.5206 956.693 86.9513 956.297 84.2633L978.117 78.2154C978.829 80.1918 980.054 81.8915 981.793 83.3146C983.533 84.6586 985.786 85.4096 988.553 85.5677C990.767 85.6468 992.703 85.0539 994.364 83.7889C996.103 82.524 996.973 80.8638 996.973 78.8083C996.973 77.4643 996.459 76.1994 995.431 75.0135C994.482 73.7486 992.941 72.8394 990.806 72.286L978.354 69.0842C974.085 67.9774 970.409 66.2776 967.326 63.9849C964.322 61.6923 961.989 58.8857 960.329 55.5653C958.748 52.2449 957.958 48.5291 957.958 44.4181C957.958 36.2752 960.645 29.9505 966.021 25.4442C971.476 20.8589 979.105 18.5662 988.909 18.5662C994.126 18.5662 998.712 19.2382 1002.66 20.5822C1006.7 21.9262 1010.14 24.0607 1012.98 26.9859C1015.91 29.8319 1018.32 33.5872 1020.22 38.2516L998.514 44.5367C998.119 42.9556 997.091 41.3744 995.431 39.7932C993.85 38.2121 991.676 37.4215 988.909 37.4215C986.221 37.4215 984.126 38.0144 982.624 39.2003C981.201 40.3862 980.489 42.1254 980.489 44.4181C980.489 45.8412 981.082 47.1061 982.268 48.2129C983.454 49.2407 985.153 50.0312 987.367 50.5846L999.937 53.7865C1006.26 55.3676 1011.2 58.4904 1014.76 63.1548C1018.32 67.7402 1020.1 72.9975 1020.1 78.9269C1020.1 84.3819 1018.83 89.0068 1016.3 92.8015C1013.85 96.5963 1010.29 99.4819 1005.63 101.458C1000.96 103.435 995.391 104.423 988.909 104.423Z" fill="white"/>
<path d="M110.987 385.991V302.98H140.87C146.642 302.98 151.741 303.85 156.168 305.589C160.595 307.329 164.074 310.017 166.604 313.653C169.134 317.29 170.399 321.915 170.399 327.528C170.399 330.058 169.687 332.548 168.264 334.999C166.841 337.45 164.864 339.703 162.335 341.758C165.971 343.735 168.778 346.344 170.754 349.585C172.731 352.747 173.719 356.661 173.719 361.325C173.719 366.622 172.494 371.128 170.043 374.844C167.592 378.481 164.192 381.248 159.844 383.145C155.575 385.043 150.634 385.991 145.021 385.991H110.987ZM132.332 366.662H142.412C145.021 366.662 147.076 365.95 148.579 364.527C150.16 363.104 150.95 361.286 150.95 359.072C150.95 356.858 150.16 355.119 148.579 353.854C147.076 352.51 145.021 351.838 142.412 351.838H132.332V366.662ZM132.332 334.406H139.329C141.859 334.406 143.914 333.773 145.495 332.509C147.076 331.244 147.867 329.465 147.867 327.172C147.867 324.879 147.076 323.101 145.495 321.836C143.914 320.571 141.859 319.938 139.329 319.938H132.332V334.406ZM224.149 387.414C215.453 387.414 207.744 385.596 201.024 381.959C194.384 378.244 189.166 373.184 185.371 366.78C181.576 360.297 179.679 352.905 179.679 344.604C179.679 336.224 181.576 328.832 185.371 322.429C189.166 315.946 194.384 310.886 201.024 307.25C207.665 303.534 215.294 301.676 223.912 301.676C232.608 301.676 240.277 303.534 246.918 307.25C253.558 310.886 258.776 315.946 262.571 322.429C266.366 328.832 268.263 336.224 268.263 344.604C268.263 352.905 266.366 360.297 262.571 366.78C258.855 373.184 253.677 378.244 247.036 381.959C240.395 385.596 232.766 387.414 224.149 387.414ZM224.149 367.254C228.418 367.254 232.173 366.306 235.415 364.408C238.656 362.432 241.186 359.744 243.004 356.345C244.823 352.945 245.732 349.032 245.732 344.604C245.732 340.177 244.783 336.264 242.886 332.864C241.067 329.386 238.498 326.698 235.177 324.8C231.936 322.824 228.181 321.836 223.912 321.836C219.722 321.836 215.966 322.824 212.646 324.8C209.405 326.698 206.835 329.386 204.938 332.864C203.12 336.264 202.21 340.177 202.21 344.604C202.21 349.032 203.159 352.945 205.056 356.345C206.954 359.744 209.523 362.432 212.765 364.408C216.085 366.306 219.88 367.254 224.149 367.254ZM293.119 385.991V323.14H269.639V302.98H338.419V323.14H315.058V385.991H293.119ZM347.581 385.991V302.862H369.52V333.694H400.115V302.98H422.054V385.991H400.115V353.854H369.52V385.991H347.581ZM503.94 387.414C495.243 387.414 487.535 385.596 480.815 381.959C474.174 378.244 468.957 373.184 465.162 366.78C461.367 360.297 459.47 352.905 459.47 344.604C459.47 336.224 461.367 328.832 465.162 322.429C468.957 315.946 474.174 310.886 480.815 307.25C487.456 303.534 495.085 301.676 503.702 301.676C512.399 301.676 520.067 303.534 526.708 307.25C533.349 310.886 538.567 315.946 542.362 322.429C546.157 328.832 548.054 336.224 548.054 344.604C548.054 352.905 546.157 360.297 542.362 366.78C538.646 373.184 533.468 378.244 526.827 381.959C520.186 385.596 512.557 387.414 503.94 387.414ZM503.94 367.254C508.209 367.254 511.964 366.306 515.205 364.408C518.447 362.432 520.977 359.744 522.795 356.345C524.613 352.945 525.522 349.032 525.522 344.604C525.522 340.177 524.574 336.264 522.676 332.864C520.858 329.386 518.289 326.698 514.968 324.8C511.727 322.824 507.972 321.836 503.702 321.836C499.512 321.836 495.757 322.824 492.437 324.8C489.195 326.698 486.626 329.386 484.729 332.864C482.91 336.264 482.001 340.177 482.001 344.604C482.001 349.032 482.95 352.945 484.847 356.345C486.745 359.744 489.314 362.432 492.555 364.408C495.876 366.306 499.671 367.254 503.94 367.254ZM558.119 385.991V302.98H614.922V323.14H580.058V335.236H607.332V355.396H580.058V385.991H558.119ZM670.767 385.991V323.14H647.287V302.98H716.067V323.14H692.706V385.991H670.767ZM725.229 385.991V302.862H747.168V333.694H777.763V302.98H799.702V385.991H777.763V353.854H747.168V385.991H725.229ZM813.938 385.991V302.98H869.555V323.14H835.876V334.643H863.151V354.21H835.876V365.831H870.385V385.991H813.938ZM912.476 387.414C908.602 387.414 904.807 386.9 901.091 385.873C897.376 384.766 893.976 383.264 890.893 381.366C887.889 379.469 885.398 377.334 883.422 374.963C881.446 372.512 880.26 369.942 879.864 367.254L901.684 361.207C902.396 363.183 903.621 364.883 905.361 366.306C907.1 367.65 909.353 368.401 912.12 368.559C914.334 368.638 916.271 368.045 917.931 366.78C919.67 365.515 920.54 363.855 920.54 361.8C920.54 360.456 920.026 359.191 918.998 358.005C918.049 356.74 916.508 355.831 914.373 355.277L901.922 352.075C897.652 350.969 893.976 349.269 890.893 346.976C887.889 344.683 885.557 341.877 883.896 338.556C882.315 335.236 881.525 331.52 881.525 327.409C881.525 319.266 884.213 312.942 889.589 308.435C895.044 303.85 902.673 301.557 912.476 301.557C917.694 301.557 922.279 302.229 926.232 303.573C930.264 304.917 933.703 307.052 936.549 309.977C939.474 312.823 941.885 316.578 943.783 321.243L922.081 327.528C921.686 325.947 920.658 324.366 918.998 322.784C917.417 321.203 915.243 320.413 912.476 320.413C909.788 320.413 907.693 321.006 906.191 322.192C904.768 323.377 904.056 325.117 904.056 327.409C904.056 328.832 904.649 330.097 905.835 331.204C907.021 332.232 908.721 333.022 910.934 333.576L923.504 336.778C929.829 338.359 934.77 341.482 938.328 346.146C941.885 350.731 943.664 355.989 943.664 361.918C943.664 367.373 942.399 371.998 939.869 375.793C937.419 379.588 933.861 382.473 929.197 384.45C924.532 386.426 918.959 387.414 912.476 387.414ZM954.528 385.991V302.98H1010.14V323.14H976.466V334.643H1003.74V354.21H976.466V365.831H1010.98V385.991H954.528ZM1051.34 385.991V302.98H1108.15V323.14H1073.28V335.236H1100.56V355.396H1073.28V385.991H1051.34ZM1118.28 385.991V302.98H1140.22V385.991H1118.28ZM1154.41 385.991V302.98H1176.35V365.831H1210.5V385.991H1154.41ZM1219.96 385.991V302.98H1244.27L1264.31 332.627L1284.35 302.98H1308.66V385.991H1286.72V336.896L1264.43 369.389L1241.9 336.896V385.991H1219.96ZM1351.96 387.414C1348.09 387.414 1344.3 386.9 1340.58 385.873C1336.86 384.766 1333.47 383.264 1330.38 381.366C1327.38 379.469 1324.89 377.334 1322.91 374.963C1320.93 372.512 1319.75 369.942 1319.35 367.254L1341.17 361.207C1341.88 363.183 1343.11 364.883 1344.85 366.306C1346.59 367.65 1348.84 368.401 1351.61 368.559C1353.82 368.638 1355.76 368.045 1357.42 366.78C1359.16 365.515 1360.03 363.855 1360.03 361.8C1360.03 360.456 1359.51 359.191 1358.49 358.005C1357.54 356.74 1356 355.831 1353.86 355.277L1341.41 352.075C1337.14 350.969 1333.47 349.269 1330.38 346.976C1327.38 344.683 1325.05 341.877 1323.39 338.556C1321.8 335.236 1321.01 331.52 1321.01 327.409C1321.01 319.266 1323.7 312.942 1329.08 308.435C1334.53 303.85 1342.16 301.557 1351.96 301.557C1357.18 301.557 1361.77 302.229 1365.72 303.573C1369.75 304.917 1373.19 307.052 1376.04 309.977C1378.96 312.823 1381.37 316.578 1383.27 321.243L1361.57 327.528C1361.18 325.947 1360.15 324.366 1358.49 322.784C1356.91 321.203 1354.73 320.413 1351.96 320.413C1349.28 320.413 1347.18 321.006 1345.68 322.192C1344.26 323.377 1343.55 325.117 1343.55 327.409C1343.55 328.832 1344.14 330.097 1345.32 331.204C1346.51 332.232 1348.21 333.022 1350.42 333.576L1362.99 336.778C1369.32 338.359 1374.26 341.482 1377.82 346.146C1381.37 350.731 1383.15 355.989 1383.15 361.918C1383.15 367.373 1381.89 371.998 1379.36 375.793C1376.91 379.588 1373.35 382.473 1368.69 384.45C1364.02 386.426 1358.45 387.414 1351.96 387.414ZM1404.81 360.732L1403.98 340.098L1415.01 339.031C1418.17 338.636 1420.74 337.726 1422.71 336.303C1424.69 334.88 1425.68 332.548 1425.68 329.307C1425.68 326.777 1424.77 324.682 1422.95 323.022C1421.13 321.361 1418.76 320.531 1415.84 320.531C1413.86 320.531 1412.16 321.085 1410.74 322.192C1409.39 323.219 1408.41 324.524 1407.77 326.105L1388.68 321.006C1390.26 314.997 1393.42 310.254 1398.17 306.775C1402.91 303.297 1408.8 301.557 1415.84 301.557C1421.69 301.557 1426.87 302.743 1431.37 305.115C1435.88 307.487 1439.4 310.768 1441.93 314.958C1444.53 319.069 1445.84 323.852 1445.84 329.307C1445.84 333.26 1444.97 336.817 1443.23 339.98C1441.57 343.063 1439.16 345.632 1436 347.688C1432.91 349.664 1429.28 351.008 1425.09 351.72L1424.73 360.732H1404.81ZM1414.77 387.77C1411.45 387.77 1408.56 386.584 1406.11 384.212C1403.74 381.762 1402.56 378.876 1402.56 375.556C1402.56 372.235 1403.74 369.389 1406.11 367.017C1408.56 364.567 1411.45 363.341 1414.77 363.341C1418.09 363.341 1420.94 364.567 1423.31 367.017C1425.76 369.389 1426.98 372.235 1426.98 375.556C1426.98 378.876 1425.76 381.762 1423.31 384.212C1420.94 386.584 1418.09 387.77 1414.77 387.77Z" fill="white"/>
<path d="M69.9584 263.055C57.9218 263.055 47.2609 260.418 37.9755 255.145C28.8048 249.757 21.5829 242.421 16.3097 233.135C11.0365 223.735 8.39997 212.96 8.39997 200.808C8.39997 188.657 11.0365 177.939 16.3097 168.654C21.5829 159.254 28.8048 151.917 37.9755 146.644C47.2609 141.256 57.9218 138.562 69.9584 138.562C79.2437 138.562 87.612 140.167 95.0632 143.377C102.514 146.587 108.934 151.057 114.322 156.789C119.709 162.521 123.836 169.169 126.702 176.735L96.4388 186.365C94.8339 182.582 92.7705 179.315 90.2486 176.563C87.7266 173.697 84.7462 171.519 81.3071 170.029C77.9827 168.539 74.1998 167.794 69.9584 167.794C64.3413 167.794 59.3547 169.227 54.9986 172.093C50.6426 174.844 47.2035 178.684 44.6816 183.613C42.2743 188.543 41.0706 194.274 41.0706 200.808C41.0706 207.228 42.3316 212.96 44.8536 218.003C47.3755 222.933 50.8145 226.83 55.1706 229.696C59.6413 232.447 64.7425 233.823 70.4742 233.823C74.9449 233.823 78.7852 233.078 81.9949 231.588C85.3193 229.983 88.1279 227.805 90.4205 225.053C92.8278 222.188 94.8912 218.863 96.6108 215.08L126.874 224.71C124.123 232.275 120.053 238.982 114.666 244.828C109.278 250.56 102.801 255.03 95.2352 258.24C87.6693 261.45 79.2437 263.055 69.9584 263.055ZM198.15 263.055C185.541 263.055 174.364 260.418 164.62 255.145C154.991 249.757 147.425 242.421 141.922 233.135C136.42 223.735 133.669 213.017 133.669 200.98C133.669 188.829 136.42 178.111 141.922 168.826C147.425 159.426 154.991 152.089 164.62 146.816C174.249 141.428 185.311 138.734 197.807 138.734C210.416 138.734 221.536 141.428 231.165 146.816C240.794 152.089 248.36 159.426 253.863 168.826C259.365 178.111 262.116 188.829 262.116 200.98C262.116 213.017 259.365 223.735 253.863 233.135C248.475 242.421 240.966 249.757 231.337 255.145C221.708 260.418 210.646 263.055 198.15 263.055ZM198.15 233.823C204.341 233.823 209.786 232.447 214.486 229.696C219.186 226.83 222.854 222.933 225.491 218.003C228.127 213.074 229.445 207.4 229.445 200.98C229.445 194.561 228.07 188.886 225.319 183.957C222.682 178.913 218.956 175.016 214.142 172.265C209.442 169.399 203.997 167.966 197.807 167.966C191.731 167.966 186.286 169.399 181.471 172.265C176.771 175.016 173.046 178.913 170.294 183.957C167.658 188.886 166.34 194.561 166.34 200.98C166.34 207.4 167.715 213.074 170.466 218.003C173.218 222.933 176.943 226.83 181.643 229.696C186.458 232.447 191.96 233.823 198.15 233.823ZM276.71 260.991V140.626H311.96L341.02 183.613L370.08 140.626H405.33V260.991H373.519V189.804L341.192 236.918L308.521 189.804V260.991H276.71ZM425.992 260.991V140.626H461.242L490.302 183.613L519.361 140.626H554.611V260.991H522.8V189.804L490.474 236.918L457.803 189.804V260.991H425.992ZM633.737 263.055C621.127 263.055 609.95 260.418 600.206 255.145C590.577 249.757 583.011 242.421 577.509 233.135C572.007 223.735 569.255 213.017 569.255 200.98C569.255 188.829 572.007 178.111 577.509 168.826C583.011 159.426 590.577 152.089 600.206 146.816C609.836 141.428 620.898 138.734 633.393 138.734C646.003 138.734 657.122 141.428 666.751 146.816C676.381 152.089 683.947 159.426 689.449 168.826C694.951 178.111 697.703 188.829 697.703 200.98C697.703 213.017 694.951 223.735 689.449 233.135C684.061 242.421 676.553 249.757 666.923 255.145C657.294 260.418 646.232 263.055 633.737 263.055ZM633.737 233.823C639.927 233.823 645.372 232.447 650.072 229.696C654.772 226.83 658.44 222.933 661.077 218.003C663.714 213.074 665.032 207.4 665.032 200.98C665.032 194.561 663.656 188.886 660.905 183.957C658.269 178.913 654.543 175.016 649.728 172.265C645.028 169.399 639.583 167.966 633.393 167.966C627.317 167.966 621.872 169.399 617.058 172.265C612.358 175.016 608.632 178.913 605.881 183.957C603.244 188.886 601.926 194.561 601.926 200.98C601.926 207.4 603.302 213.074 606.053 218.003C608.804 222.933 612.53 226.83 617.23 229.696C622.044 232.447 627.547 233.823 633.737 233.823ZM712.297 260.991V140.626H745.827L792.77 206.827V140.626H824.581V260.991H792.77L744.108 192.383V260.991H712.297ZM875.806 260.991L921.889 140.626H956.107L1002.19 260.991H968.488L961.438 241.733H916.558L909.508 260.991H875.806ZM926.875 213.705H951.121L939.084 180.346L926.875 213.705ZM1013.71 260.991V140.626H1048.96L1078.02 183.613L1107.08 140.626H1142.33V260.991H1110.52V189.804L1078.2 236.918L1045.53 189.804V260.991H1013.71ZM1221.46 263.055C1208.85 263.055 1197.67 260.418 1187.93 255.145C1178.3 249.757 1170.73 242.421 1165.23 233.135C1159.73 223.735 1156.98 213.017 1156.98 200.98C1156.98 188.829 1159.73 178.111 1165.23 168.826C1170.73 159.426 1178.3 152.089 1187.93 146.816C1197.56 141.428 1208.62 138.734 1221.12 138.734C1233.73 138.734 1244.84 141.428 1254.47 146.816C1264.1 152.089 1271.67 159.426 1277.17 168.826C1282.67 178.111 1285.43 188.829 1285.43 200.98C1285.43 213.017 1282.67 223.735 1277.17 233.135C1271.78 242.421 1264.28 249.757 1254.65 255.145C1245.02 260.418 1233.95 263.055 1221.46 263.055ZM1221.46 233.823C1227.65 233.823 1233.09 232.447 1237.79 229.696C1242.49 226.83 1246.16 222.933 1248.8 218.003C1251.44 213.074 1252.75 207.4 1252.75 200.98C1252.75 194.561 1251.38 188.886 1248.63 183.957C1245.99 178.913 1242.27 175.016 1237.45 172.265C1232.75 169.399 1227.31 167.966 1221.12 167.966C1215.04 167.966 1209.59 169.399 1204.78 172.265C1200.08 175.016 1196.35 178.913 1193.6 183.957C1190.97 188.886 1189.65 194.561 1189.65 200.98C1189.65 207.4 1191.02 213.074 1193.78 218.003C1196.53 222.933 1200.25 226.83 1204.95 229.696C1209.77 232.447 1215.27 233.823 1221.46 233.823ZM1300.02 260.991V140.626H1333.55L1380.49 206.827V140.626H1412.3V260.991H1380.49L1331.83 192.383V260.991H1300.02ZM1490.27 263.055C1477.89 263.055 1466.94 260.418 1457.43 255.145C1447.92 249.757 1440.46 242.421 1435.08 233.135C1429.69 223.735 1426.99 212.96 1426.99 200.808C1426.99 188.657 1429.69 177.939 1435.08 168.654C1440.46 159.254 1447.92 151.917 1457.43 146.644C1466.94 141.256 1477.89 138.562 1490.27 138.562C1498.41 138.562 1505.58 139.709 1511.77 142.001C1518.07 144.294 1523.52 147.446 1528.1 151.459C1532.69 155.356 1536.58 159.884 1539.79 165.043L1513.31 180.69C1511.71 178.168 1509.65 175.933 1507.12 173.984C1504.72 172.035 1502.02 170.545 1499.04 169.513C1496.18 168.367 1493.25 167.794 1490.27 167.794C1484.31 167.794 1479.04 169.227 1474.45 172.093C1469.87 174.844 1466.26 178.684 1463.62 183.613C1460.98 188.543 1459.67 194.274 1459.67 200.808C1459.67 207.228 1460.93 212.96 1463.45 218.003C1465.97 223.047 1469.58 227.002 1474.28 229.868C1479.1 232.734 1484.71 234.167 1491.13 234.167C1495.26 234.167 1498.98 233.479 1502.31 232.103C1505.63 230.728 1508.33 228.836 1510.39 226.429C1512.57 223.907 1513.94 220.984 1514.52 217.66H1488.04V193.586H1545.12V211.297C1544.78 222.875 1542.2 232.505 1537.39 240.185C1532.57 247.866 1526.1 253.597 1517.96 257.38C1509.93 261.163 1500.7 263.055 1490.27 263.055Z" fill="#FFCC00"/>
</g>
<defs>
<filter id="filter0_d_985_367" x="-9.72748e-05" y="14.1664" width="1563.52" height="396.003" filterUnits="userSpaceOnUse" color-interpolation-filters="sRGB">
<feFlood flood-opacity="0" result="BackgroundImageFix"/>
<feColorMatrix in="SourceAlpha" type="matrix" values="0 0 0 0 0 0 0 0 0 0 0 0 0 0 0 0 0 0 127 0" result="hardAlpha"/>
<feOffset dx="5" dy="9"/>
<feGaussianBlur stdDeviation="6.7"/>
<feComposite in2="hardAlpha" operator="out"/>
<feColorMatrix type="matrix" values="0 0 0 0 0 0 0 0 0 0 0 0 0 0 0 0 0 0 0.5 0"/>
<feBlend mode="normal" in2="BackgroundImageFix" result="effect1_dropShadow_985_367"/>
<feBlend mode="normal" in="SourceGraphic" in2="effect1_dropShadow_985_367" result="shape"/>
</filter>
</defs>
</svg>
