<svg width="1569" height="446" viewBox="0 0 1569 446" fill="none" xmlns="http://www.w3.org/2000/svg">
<g filter="url(#filter0_f_870_217)">
<path d="M514.023 83.28V2.28H566.583C576.543 2.28 583.163 4.84 586.443 9.96C589.723 15.08 591.363 21.2 591.363 28.32C591.363 35.32 589.623 41.2 586.143 45.96C582.663 50.72 575.763 53.1 565.443 53.1H541.503V83.28H514.023ZM563.703 83.28L545.583 45.96L572.703 45.06L593.403 83.28H563.703ZM541.503 36.48H557.403C559.883 36.48 561.583 35.86 562.503 34.62C563.423 33.34 563.883 31.36 563.883 28.68C563.883 25.96 563.403 23.96 562.443 22.68C561.523 21.4 559.843 20.76 557.403 20.76H541.503V36.48ZM639.479 84C623.119 84 612.019 80.38 606.179 73.14C600.339 65.86 597.419 55.74 597.419 42.78C597.419 29.74 600.319 19.6 606.119 12.36C611.959 5.12 623.079 1.5 639.479 1.5C655.879 1.5 666.999 5.14 672.839 12.42C678.679 19.66 681.599 29.78 681.599 42.78C681.599 55.74 678.679 65.86 672.839 73.14C666.999 80.38 655.879 84 639.479 84ZM639.479 65.52C644.039 65.52 647.639 64.46 650.279 62.34C652.959 60.18 654.299 53.66 654.299 42.78C654.299 31.66 652.959 25.08 650.279 23.04C647.639 21 644.039 19.98 639.479 19.98C634.959 19.98 631.359 21 628.679 23.04C626.039 25.08 624.719 31.66 624.719 42.78C624.719 53.66 626.039 60.18 628.679 62.34C631.359 64.46 634.959 65.52 639.479 65.52ZM680.867 83.28L705.587 2.21999H744.167L768.947 83.28H740.747L736.667 65.94H713.207L709.067 83.28H680.867ZM717.587 48.06H732.347L725.087 18.12H724.847L717.587 48.06ZM775.82 83.28V2.28H823.94C836.06 2.28 844.36 5.36 848.84 11.52C853.32 17.64 855.56 28.04 855.56 42.72C855.56 57.4 853.3 67.84 848.78 74.04C844.3 80.2 836.02 83.28 823.94 83.28H775.82ZM803.18 64.8H816.44C820.56 64.8 823.54 63.82 825.38 61.86C827.26 59.9 828.2 53.52 828.2 42.72C828.2 31.96 827.26 25.62 825.38 23.7C823.54 21.74 820.56 20.76 816.44 20.76H803.18V64.8ZM917.748 83.28V20.76H894.228V2.28H968.628V20.76H945.168V83.28H917.748ZM1015.88 84C999.525 84 988.425 80.38 982.585 73.14C976.745 65.86 973.825 55.74 973.825 42.78C973.825 29.74 976.725 19.6 982.525 12.36C988.365 5.12 999.485 1.5 1015.88 1.5C1032.28 1.5 1043.4 5.14 1049.24 12.42C1055.08 19.66 1058 29.78 1058 42.78C1058 55.74 1055.08 65.86 1049.24 73.14C1043.4 80.38 1032.28 84 1015.88 84ZM1015.88 65.52C1020.44 65.52 1024.04 64.46 1026.68 62.34C1029.36 60.18 1030.7 53.66 1030.7 42.78C1030.7 31.66 1029.36 25.08 1026.68 23.04C1024.04 21 1020.44 19.98 1015.88 19.98C1011.36 19.98 1007.76 21 1005.08 23.04C1002.44 25.08 1001.12 31.66 1001.12 42.78C1001.12 53.66 1002.44 60.18 1005.08 62.34C1007.76 64.46 1011.36 65.52 1015.88 65.52ZM9.31734 226.28V113.922H70.4067L85.471 198.815H85.7207L100.785 113.922H161.874V226.28H124.338V139.973H124.006L107.526 225.864H63.6653L47.1861 139.973H46.8532V226.28H9.31734ZM172.154 226.28L206.444 113.839H259.96L294.333 226.28H255.216L249.556 202.227H217.014L211.271 226.28H172.154ZM223.09 177.425H243.564L233.493 135.894H233.16L223.09 177.425ZM303.867 226.28V113.922H341.652V160.03L370.948 113.922H413.228L375.859 170.184L413.311 226.28H371.032L341.652 180.255V226.28H303.867ZM424.402 226.28V113.922H462.27V226.28H424.402ZM479.101 226.28V113.922H539.358L570.319 197.566H570.568L570.901 113.922H608.77V226.28H549.095L517.302 140.638H516.886V226.28H479.101ZM675.376 226.946C654.402 226.946 640.143 221.813 632.597 211.549C625.051 201.284 621.278 187.329 621.278 169.685C621.278 151.708 625.189 137.753 633.013 127.821C640.836 117.834 656.039 112.84 678.622 112.84C699.595 112.84 713.938 117.251 721.651 126.073C729.419 134.896 733.58 144.467 734.135 154.787H696.1C695.434 147.241 693.769 142.636 691.106 140.971C688.443 139.251 684.309 138.391 678.705 138.391C672.879 138.391 668.218 139.862 664.723 142.802C661.282 145.743 659.562 155.12 659.562 170.933C659.562 183.695 661.282 191.962 664.723 195.735C668.218 199.508 672.99 201.395 679.038 201.395C684.586 201.395 688.526 200.507 690.856 198.732C693.187 196.9 694.685 193.044 695.35 187.163L695.434 186.913H680.619V164.774H734.135V226.28H712.995L708.667 214.878C703.007 222.868 691.91 226.89 675.376 226.946ZM792.831 226.28V113.922H830.867V158.532H864.574V113.922H902.609V226.28H864.574V184.167H830.867V226.28H792.831ZM921.006 226.28V113.922H958.875V226.28H921.006ZM1030.47 226.863C1007.78 226.863 992.656 223.062 985.11 215.46C977.62 207.803 973.874 198.204 973.874 186.663H1011.83C1011.83 193.544 1013.63 197.733 1017.24 199.231C1020.9 200.674 1025.2 201.395 1030.14 201.395C1035.13 201.395 1039.4 200.895 1042.95 199.897C1046.56 198.898 1048.36 196.845 1048.36 193.738C1048.36 190.187 1045.62 187.856 1040.12 186.747C1034.69 185.637 1027.28 184.361 1017.9 182.918C1000.87 179.7 989.272 175.955 983.113 171.682C977.009 167.41 973.958 160.336 973.958 150.459C973.958 140.194 977.758 131.372 985.36 123.993C992.961 116.558 1007.75 112.84 1029.72 112.84C1051.58 112.84 1066.34 116.807 1074 124.742C1081.71 132.621 1085.57 141.97 1085.57 152.79H1047.53C1047.53 146.02 1045.64 141.915 1041.87 140.472C1038.1 139.029 1033.91 138.308 1029.3 138.308C1024.03 138.308 1019.59 138.891 1015.99 140.056C1012.44 141.221 1010.66 143.218 1010.66 146.048C1010.66 150.099 1013.49 152.651 1019.15 153.705C1024.81 154.704 1032.25 155.98 1041.46 157.534C1059.16 160.752 1070.95 164.303 1076.83 168.187C1082.76 172.015 1085.73 178.729 1085.73 188.328C1085.73 198.926 1082.04 207.998 1074.66 215.544C1067.28 223.09 1052.55 226.863 1030.47 226.863ZM1126.9 226.28V139.556H1094.28V113.922H1197.48V139.556H1164.94V226.28H1126.9ZM1263.03 227.279C1240.34 227.279 1224.94 222.257 1216.84 212.214C1208.74 202.116 1204.69 188.078 1204.69 170.101C1204.69 152.013 1208.71 137.947 1216.75 127.904C1224.86 117.862 1240.28 112.84 1263.03 112.84C1285.78 112.84 1301.2 117.889 1309.3 127.988C1317.41 138.031 1321.46 152.068 1321.46 170.101C1321.46 188.078 1317.41 202.116 1309.3 212.214C1301.2 222.257 1285.78 227.279 1263.03 227.279ZM1263.03 201.644C1269.35 201.644 1274.35 200.174 1278.01 197.233C1281.73 194.237 1283.59 185.193 1283.59 170.101C1283.59 154.676 1281.73 145.549 1278.01 142.719C1274.35 139.889 1269.35 138.474 1263.03 138.474C1256.76 138.474 1251.77 139.889 1248.05 142.719C1244.39 145.549 1242.56 154.676 1242.56 170.101C1242.56 185.193 1244.39 194.237 1248.05 197.233C1251.77 200.174 1256.76 201.644 1263.03 201.644ZM1331.86 226.28V113.922H1404.77C1418.59 113.922 1427.77 117.473 1432.32 124.575C1436.87 131.677 1439.14 140.167 1439.14 150.043C1439.14 159.753 1436.73 167.909 1431.9 174.512C1427.08 181.115 1417.5 184.416 1403.19 184.416H1369.98V226.28H1331.86ZM1400.78 226.28L1375.64 174.512L1413.26 173.264L1441.97 226.28H1400.78ZM1369.98 161.362H1392.04C1395.48 161.362 1397.84 160.502 1399.11 158.782C1400.39 157.007 1401.03 154.26 1401.03 150.542C1401.03 146.769 1400.36 143.995 1399.03 142.22C1397.75 140.444 1395.42 139.556 1392.04 139.556H1369.98V161.362ZM1484.52 226.28V186.497L1439.41 113.922H1480.53L1503.5 157.117H1503.67L1526.39 113.922H1567.5L1522.47 186.58V226.28H1484.52ZM488.382 334.28L474.702 253.28H504.162L510.822 314.42H511.062L520.902 253.28H556.602L566.502 314.48H566.682L573.822 253.28H603.402L589.062 334.28H547.362L538.842 271.76H538.662L530.082 334.28H488.382ZM613.047 334.28V253.28H640.347V334.28H613.047ZM675.698 334.28V271.76H652.178V253.28H726.578V271.76H703.118V334.28H675.698ZM735.332 334.28V253.28H762.752V285.44H787.052V253.28H814.472V334.28H787.052V303.92H762.752V334.28H735.332ZM879.838 334.28V271.76H856.318V253.28H930.718V271.76H907.258V334.28H879.838ZM939.473 334.28V253.28H966.893V285.44H991.193V253.28H1018.61V334.28H991.193V303.92H966.893V334.28H939.473ZM1028.76 334.28V253.28H1092.84V271.76H1056.18V284.78H1089.78V302.36H1056.18V315.8H1092.84V334.28H1028.76ZM15.2851 443.28L1.49996 361.658H31.1863L37.8975 423.267H38.1393L48.055 361.658H84.0293L94.0053 423.328H94.1867L101.382 361.658H131.189L116.739 443.28H74.7183L66.1328 380.28H65.9514L57.3055 443.28H15.2851ZM176.812 444.006C160.327 444.006 149.141 440.358 143.256 433.062C137.372 425.726 134.429 415.528 134.429 402.469C134.429 389.329 137.351 379.111 143.196 371.815C149.081 364.519 160.286 360.872 176.812 360.872C193.338 360.872 204.544 364.54 210.429 371.876C216.314 379.171 219.256 389.369 219.256 402.469C219.256 415.528 216.314 425.726 210.429 433.062C204.544 440.358 193.338 444.006 176.812 444.006ZM176.812 425.384C181.407 425.384 185.035 424.315 187.695 422.179C190.396 420.003 191.746 413.432 191.746 402.469C191.746 391.263 190.396 384.633 187.695 382.577C185.035 380.521 181.407 379.494 176.812 379.494C172.258 379.494 168.63 380.521 165.929 382.577C163.269 384.633 161.939 391.263 161.939 402.469C161.939 413.432 163.269 420.003 165.929 422.179C168.63 424.315 172.258 425.384 176.812 425.384ZM226.816 443.28V361.658H279.78C289.817 361.658 296.488 364.237 299.793 369.397C303.098 374.556 304.751 380.723 304.751 387.898C304.751 394.951 302.997 400.877 299.491 405.673C295.984 410.47 289.031 412.868 278.632 412.868H254.508V443.28H226.816ZM276.878 443.28L258.619 405.673L285.947 404.766L306.806 443.28H276.878ZM254.508 396.12H270.53C273.029 396.12 274.742 395.496 275.669 394.246C276.596 392.956 277.06 390.961 277.06 388.26C277.06 385.52 276.576 383.504 275.608 382.214C274.681 380.925 272.989 380.28 270.53 380.28H254.508V396.12ZM354.339 443.703C337.853 443.703 326.87 440.942 321.388 435.42C315.946 429.858 313.226 422.884 313.226 414.501H340.796C340.796 419.499 342.106 422.542 344.726 423.63C347.386 424.678 350.51 425.202 354.097 425.202C357.725 425.202 360.829 424.839 363.408 424.114C366.028 423.388 367.338 421.897 367.338 419.64C367.338 417.06 365.343 415.367 361.353 414.561C357.402 413.755 352.021 412.828 345.209 411.78C332.835 409.442 324.411 406.721 319.937 403.618C315.503 400.514 313.286 395.375 313.286 388.2C313.286 380.743 316.047 374.334 321.569 368.973C327.091 363.572 337.833 360.872 353.795 360.872C369.676 360.872 380.398 363.754 385.96 369.518C391.563 375.241 394.364 382.033 394.364 389.893H366.734C366.734 384.975 365.363 381.993 362.622 380.945C359.881 379.897 356.838 379.373 353.493 379.373C349.663 379.373 346.439 379.796 343.819 380.642C341.239 381.489 339.949 382.94 339.949 384.996C339.949 387.938 342.005 389.792 346.116 390.558C350.228 391.284 355.629 392.211 362.32 393.339C375.178 395.677 383.743 398.257 388.016 401.078C392.329 403.859 394.485 408.737 394.485 415.71C394.485 423.408 391.805 429.999 386.444 435.481C381.083 440.962 370.381 443.703 354.339 443.703ZM424.392 443.28V380.28H400.691V361.658H475.663V380.28H452.022V443.28H424.392ZM511.32 443.28V361.658H572.022V380.28H538.95V398.539H569.181V416.254H538.95V443.28H511.32ZM583.265 443.28V361.658H610.775V443.28H583.265ZM623.001 443.28V361.658H650.632V424.779H681.528V443.28H623.001ZM689.839 443.28V361.658H734.218L745.161 423.328H745.342L756.286 361.658H800.664V443.28H773.396V380.582H773.154L761.183 442.978H729.32L717.349 380.582H717.107V443.28H689.839ZM842.631 443.28V361.658H907.203V380.28H870.261V393.4H904.12V411.115H870.261V424.658H907.203V443.28H842.631ZM938.515 443.28L914.754 361.658H942.748L957.198 423.993H957.379L971.708 361.658H999.702L976.001 443.28H938.515ZM1006.77 443.28V361.658H1071.35V380.28H1034.4V393.4H1068.26V411.115H1034.4V424.658H1071.35V443.28H1006.77ZM1080.71 443.28V361.658H1133.67C1143.71 361.658 1150.38 364.237 1153.69 369.397C1156.99 374.556 1158.64 380.723 1158.64 387.898C1158.64 394.951 1156.89 400.877 1153.38 405.673C1149.88 410.47 1142.92 412.868 1132.53 412.868H1108.4V443.28H1080.71ZM1130.77 443.28L1112.51 405.673L1139.84 404.766L1160.7 443.28H1130.77ZM1108.4 396.12H1124.42C1126.92 396.12 1128.64 395.496 1129.56 394.246C1130.49 392.956 1130.95 390.961 1130.95 388.26C1130.95 385.52 1130.47 383.504 1129.5 382.214C1128.58 380.925 1126.88 380.28 1124.42 380.28H1108.4V396.12ZM1200.1 443.28V361.658H1244.48L1255.42 423.328H1255.6L1266.54 361.658H1310.92V443.28H1283.65V380.582H1283.41L1271.44 442.978H1239.58L1227.61 380.582H1227.37V443.28H1200.1ZM1318.39 443.28L1343.3 361.597H1382.18L1407.15 443.28H1378.73L1374.62 425.807H1350.98L1346.81 443.28H1318.39ZM1355.39 407.789H1370.27L1362.95 377.619H1362.71L1355.39 407.789ZM1414.07 443.28V361.658H1462.56C1474.78 361.658 1483.14 364.761 1487.65 370.969C1492.17 377.136 1494.43 387.616 1494.43 402.408C1494.43 417.201 1492.15 427.721 1487.59 433.969C1483.08 440.176 1474.73 443.28 1462.56 443.28H1414.07ZM1441.64 424.658H1455C1459.16 424.658 1462.16 423.67 1464.01 421.695C1465.91 419.72 1466.85 413.291 1466.85 402.408C1466.85 391.566 1465.91 385.177 1464.01 383.242C1462.16 381.267 1459.16 380.28 1455 380.28H1441.64V424.658ZM1501.44 443.28V361.658H1566.02V380.28H1529.07V393.4H1562.93V411.115H1529.07V424.658H1566.02V443.28H1501.44Z" fill="#F7F4EE"/>
</g>
<defs>
<filter id="filter0_f_870_217" x="0" y="0" width="1569" height="445.506" filterUnits="userSpaceOnUse" color-interpolation-filters="sRGB">
<feFlood flood-opacity="0" result="BackgroundImageFix"/>
<feBlend mode="normal" in="SourceGraphic" in2="BackgroundImageFix" result="shape"/>
<feGaussianBlur stdDeviation="0.75" result="effect1_foregroundBlur_870_217"/>
</filter>
</defs>
</svg>
