<?xml version="1.0" encoding="UTF-8"?>
<svg id="Layer_2" data-name="Layer 2" xmlns="http://www.w3.org/2000/svg" viewBox="0 0 272.26 284.48">
  <defs>
    <style>
      .cls-1 {
        fill: #db6704;
      }

      .cls-2 {
        fill: #e88102;
      }

      .cls-3 {
        fill: #fdd835;
      }

      .cls-4 {
        opacity: .5;
      }

      .cls-4, .cls-5 {
        fill: #fff;
        isolation: isolate;
      }

      .cls-5 {
        opacity: .25;
      }

      .cls-6 {
        fill: #f39e09;
      }
    </style>
  </defs>
  <g id="Layer_1-2" data-name="Layer 1">
    <g id="Currency">
      <g id="Rupee">
        <g id="Coin">
          <g id="Bottom">
            <ellipse class="cls-2" cx="136.13" cy="142.24" rx="136.13" ry="142.24"/>
            <circle class="cls-3" cx="136.13" cy="134.74" r="134.74"/>
          </g>
          <g id="Shade">
            <path class="cls-4" d="M189.92,11.17L12.56,188.47c-5.95-13.61-9.67-28.39-10.78-43.9L145.97.33c15.5,1.17,30.28,4.89,43.95,10.83Z"/>
            <path class="cls-4" d="M253.54,68.62L70.01,252.15c-11.45-6.45-21.78-14.5-30.84-23.89L229.7,37.78c9.33,9,17.39,19.39,23.84,30.84Z"/>
            <path class="cls-4" d="M224.2,32.73L34.17,222.75c-2.94-3.44-5.78-7.06-8.39-10.78L213.42,24.34c3.72,2.61,7.33,5.45,10.78,8.39h0Z"/>
            <path class="cls-4" d="M266.65,101.13l-164.13,164.13c-4.95-1.28-9.78-2.83-14.5-4.61l174.02-174.02c1.78,4.72,3.33,9.56,4.61,14.5Z"/>
            <path class="cls-4" d="M270.87,134.74c0,.94,0,1.83-.06,2.78-1.44-73.12-61.18-131.96-134.69-131.96S2.89,64.4,1.44,137.52c0-.94-.06-1.83-.06-2.78C1.39,60.34,61.73,0,136.13,0s134.74,60.34,134.74,134.74Z"/>
            <path class="cls-4" d="M245.59,140.58c0,58.29-47.28,105.57-105.57,105.57-32.73,0-62.01-14.95-81.4-38.34,19.28,20.84,46.84,33.89,77.51,33.89,58.29,0,105.57-47.28,105.57-105.57,0-25.56-9.06-48.95-24.17-67.23,17.39,18.84,28.06,44.01,28.06,71.68Z"/>
          </g>
          <g id="Top">
            <circle class="cls-6" cx="136.13" cy="136.13" r="105.57"/>
            <path class="cls-2" d="M216.14,67.23c-18.5-15.95-42.56-25.56-68.9-25.56-58.29,0-105.57,47.28-105.57,105.57,0,26.34,9.61,50.4,25.56,68.9-22.45-19.39-36.67-48.01-36.67-80.01,0-58.29,47.28-105.57,105.57-105.57,31.95,0,60.62,14.22,80.01,36.67Z"/>
          </g>
        </g>
        <g id="Icon">
          <path class="cls-1" d="M187.97,73.34v-8.33l-9.67,8.33h-87.29l-6.61,19.56v8.33h27.73c8.78.28,14.67,3.67,17.72,10.22h-39.89l-5.67,13.39v8.33h46.34c-2.89,9-9.22,13.61-19.06,13.78h-24.34l.11,19.89,47.34,56.51h38.73v-8.33l-6.89-1.67-34.95-42.84c10.56-3.22,18.72-7.83,24.45-13.89,5.72-6.06,9.39-13.84,11-23.39h15.17l5.67-21.73v-8.33l-8,8.33h-12.61c-.89-6.06-2.83-11.56-5.89-16.39h20.89l5.72-21.78Z"/>
          <path class="cls-3" d="M182.3,86.73h-20.89c3,4.83,5,10.33,5.89,16.39h20.61l-5.67,21.73h-15.17c-1.61,9.56-5.22,17.34-11,23.39-5.72,6.06-13.89,10.67-24.45,13.89l41.84,51.34v1.56h-38.73l-47.28-56.45-.11-19.89h24.34c9.83-.22,16.17-4.78,19.06-13.84h-46.34l5.67-21.73h39.89c-3-6.5-8.95-9.95-17.72-10.22h-27.73l6.61-27.89h96.96l-5.78,21.73Z"/>
          <g id="Shade-2">
            <path class="cls-4" d="M89.96,103.13h7.95l-10.72,10.72,2.78-10.72Z"/>
            <path class="cls-4" d="M136.02,65.01l-27.89,27.89h-23.73l6.61-27.89h45.01Z"/>
            <path class="cls-4" d="M182.3,86.73h-1.61l2.17-2.11-.56,2.11Z"/>
            <path class="cls-4" d="M187.86,103.13l-5.67,21.73h-15.17c-1.56,9.56-5.22,17.34-11,23.39-5.72,6.06-13.89,10.67-24.45,13.89l12.78,15.61-22.23,22.23-24.95-29.78,69.62-69.62c.17.83.33,1.67.44,2.5l20.61.06Z"/>
            <path class="cls-4" d="M111.63,138.69c3-.06,5.72-.56,8.06-1.44l-27.28,27.28-5-5.95-.06-8.17,11.72-11.72h12.56Z"/>
            <path class="cls-4" d="M187.97,65.01l-1.39,5.33-16.39,16.39h-8.78c1.17,1.83,2.17,3.78,3,5.83l-34.5,34.5c.28-.67.56-1.44.78-2.17h-17.78l59.84-59.9h15.22Z"/>
            <path class="cls-4" d="M164.8,202.92l-12.06,12.11h-18.06l-.5-.61,22.06-22.06,8.56,10.56Z"/>
            <path class="cls-5" d="M224.2,77.84c-68.34,24-123.24,76.73-150.13,143.69-2.33-1.72-4.61-3.5-6.83-5.45-15.95-18.5-25.56-42.56-25.56-68.84,0-58.29,47.28-105.57,105.57-105.57,26.34,0,50.4,9.61,68.84,25.56,2.94,3.39,5.61,6.95,8.11,10.61h0Z"/>
          </g>
        </g>
      </g>
    </g>
  </g>
</svg>