<svg width="2335" height="105" viewBox="0 0 2335 105" fill="none" xmlns="http://www.w3.org/2000/svg">
<path d="M-1.18613e-05 103.24V1.74023H42.05C49.6867 1.74023 56.4533 3.23856 62.35 6.23523C68.2467 9.13523 72.8383 13.1952 76.125 18.4152C79.5083 23.5386 81.2 29.4836 81.2 36.2502C81.2 42.9202 79.5567 48.8652 76.27 54.0852C72.9833 59.3052 68.5367 63.3652 62.93 66.2652L85.26 103.24H54.52L36.25 71.0502C35.67 71.0502 35.09 71.0502 34.51 71.0502C33.93 71.0502 33.35 71.0502 32.77 71.0502H26.825V103.24H-1.18613e-05ZM26.825 46.4002H40.6C43.0167 46.4002 45.1433 45.9652 46.98 45.0952C48.8167 44.2252 50.2667 43.0169 51.33 41.4702C52.3933 39.9236 52.925 38.1836 52.925 36.2502C52.925 33.3502 51.765 30.9819 49.445 29.1452C47.2217 27.2119 44.2733 26.2452 40.6 26.2452H26.825V46.4002ZM96.1474 103.24V1.74023H164.152V26.3902H122.972V40.4552H156.322V64.3802H122.972V78.5902H165.167V103.24H96.1474ZM229.393 104.98C218.953 104.98 209.722 102.757 201.698 98.3102C193.675 93.7669 187.392 87.5802 182.848 79.7502C178.305 71.8236 176.033 62.7369 176.033 52.4902C176.033 42.2436 178.305 33.2052 182.848 25.3752C187.392 17.4486 193.675 11.2619 201.698 6.81523C209.722 2.2719 218.953 0.000232577 229.393 0.000232577C236.257 0.000232577 242.298 0.966898 247.518 2.90023C252.835 4.83356 257.427 7.49189 261.293 10.8752C265.16 14.1619 268.447 17.9802 271.153 22.3302L248.823 35.5252C247.47 33.3986 245.73 31.5136 243.603 29.8702C241.573 28.2269 239.302 26.9702 236.788 26.1002C234.372 25.1336 231.907 24.6502 229.393 24.6502C224.367 24.6502 219.92 25.8586 216.053 28.2752C212.187 30.5952 209.142 33.8336 206.918 37.9902C204.695 42.1469 203.583 46.9802 203.583 52.4902C203.583 57.9036 204.647 62.7369 206.773 66.9902C208.9 71.2436 211.945 74.5786 215.908 76.9952C219.968 79.4119 224.705 80.6202 230.118 80.6202C233.598 80.6202 236.74 80.0402 239.543 78.8802C242.347 77.7202 244.618 76.1252 246.358 74.0952C248.195 71.9686 249.355 69.5036 249.838 66.7002H227.508V46.4002H275.648V61.3352C275.358 71.0986 273.183 79.2186 269.123 85.6952C265.063 92.1719 259.602 97.0052 252.738 100.195C245.972 103.385 238.19 104.98 229.393 104.98ZM286.46 103.24V1.74023H313.285V103.24H286.46ZM379.94 104.98C369.306 104.98 359.881 102.757 351.665 98.3102C343.545 93.7669 337.165 87.5802 332.525 79.7502C327.885 71.8236 325.565 62.7852 325.565 52.6352C325.565 42.3886 327.885 33.3502 332.525 25.5202C337.165 17.5936 343.545 11.4069 351.665 6.96023C359.785 2.4169 369.113 0.145231 379.65 0.145231C390.283 0.145231 399.66 2.4169 407.78 6.96023C415.9 11.4069 422.28 17.5936 426.92 25.5202C431.56 33.3502 433.88 42.3886 433.88 52.6352C433.88 62.7852 431.56 71.8236 426.92 79.7502C422.376 87.5802 416.045 93.7669 407.925 98.3102C399.805 102.757 390.476 104.98 379.94 104.98ZM379.94 80.3302C385.16 80.3302 389.751 79.1702 393.715 76.8502C397.678 74.4336 400.771 71.1469 402.995 66.9902C405.218 62.8336 406.33 58.0486 406.33 52.6352C406.33 47.2219 405.17 42.4369 402.85 38.2802C400.626 34.0269 397.485 30.7402 393.425 28.4202C389.461 26.0036 384.87 24.7952 379.65 24.7952C374.526 24.7952 369.935 26.0036 365.875 28.4202C361.911 30.7402 358.77 34.0269 356.45 38.2802C354.226 42.4369 353.115 47.2219 353.115 52.6352C353.115 58.0486 354.275 62.8336 356.595 66.9902C358.915 71.1469 362.056 74.4336 366.02 76.8502C370.08 79.1702 374.72 80.3302 379.94 80.3302ZM446.187 103.24V1.74023H474.462L514.047 57.5652V1.74023H540.872V103.24H514.047L473.012 45.3852V103.24H446.187ZM550.65 103.24L589.51 1.74023H618.365L657.225 103.24H628.805L622.86 87.0002H585.015L579.07 103.24H550.65ZM593.715 63.3652H614.16L604.01 35.2352L593.715 63.3652ZM666.943 103.24V1.74023H693.768V78.5902H735.528V103.24H666.943ZM772.823 103.24L811.683 1.74023H840.538L879.398 103.24H850.978L845.033 87.0002H807.188L801.243 103.24H772.823ZM815.888 63.3652H836.333L826.183 35.2352L815.888 63.3652ZM930.876 104.98C921.886 104.98 914.153 103.337 907.676 100.05C901.2 96.7636 896.221 92.0752 892.741 85.9852C889.358 79.7986 887.666 72.4519 887.666 63.9452V1.74023H914.491V63.9452C914.491 67.3286 915.168 70.2286 916.521 72.6452C917.875 75.0619 919.76 76.8986 922.176 78.1552C924.69 79.4119 927.686 80.0402 931.166 80.0402C934.646 80.0402 937.643 79.4119 940.156 78.1552C942.67 76.8986 944.555 75.0619 945.811 72.6452C947.165 70.2286 947.841 67.3286 947.841 63.9452V1.74023H974.666V63.9452C974.666 72.4519 972.926 79.7986 969.446 85.9852C965.966 92.0752 960.94 96.7636 954.366 100.05C947.89 103.337 940.06 104.98 930.876 104.98ZM990.645 103.24V1.74023H1024.57C1035.69 1.74023 1045.5 3.91523 1054.01 8.26523C1062.61 12.6152 1069.33 18.6086 1074.16 26.2452C1079 33.7852 1081.41 42.5336 1081.41 52.4902C1081.41 62.3502 1079 71.0986 1074.16 78.7352C1069.33 86.3719 1062.61 92.3652 1054.01 96.7152C1045.5 101.065 1035.69 103.24 1024.57 103.24H990.645ZM1017.47 77.8652H1024.57C1028.83 77.8652 1032.74 77.2369 1036.32 75.9802C1039.9 74.7236 1042.99 72.9836 1045.6 70.7602C1048.21 68.5369 1050.24 65.8786 1051.69 62.7852C1053.14 59.6919 1053.86 56.2602 1053.86 52.4902C1053.86 48.7202 1053.14 45.2886 1051.69 42.1952C1050.24 39.1019 1048.21 36.4436 1045.6 34.2202C1042.99 31.9969 1039.9 30.2569 1036.32 29.0002C1032.74 27.7436 1028.83 27.1152 1024.57 27.1152H1017.47V77.8652ZM1093.73 103.24V1.74023H1120.56V103.24H1093.73ZM1137.91 103.24V1.74023H1205.92V26.3902H1164.74V40.4552H1198.09V64.3802H1164.74V78.5902H1206.93V103.24H1137.91ZM1222.87 103.24V1.74023H1251.15L1290.73 57.5652V1.74023H1317.56V103.24H1290.73L1249.7 45.3852V103.24H1222.87ZM1381.85 104.98C1371.7 104.98 1362.71 102.757 1354.88 98.3102C1347.15 93.7669 1341.06 87.5802 1336.61 79.7502C1332.17 71.8236 1329.94 62.7369 1329.94 52.4902C1329.94 42.2436 1332.17 33.2052 1336.61 25.3752C1341.06 17.4486 1347.15 11.2619 1354.88 6.81523C1362.71 2.2719 1371.7 0.000232577 1381.85 0.000232577C1389.68 0.000232577 1396.74 1.35357 1403.02 4.06023C1409.31 6.7669 1414.72 10.5369 1419.26 15.3702C1423.81 20.2036 1427.29 25.8102 1429.7 32.1902L1404.18 40.3102C1402.83 37.1202 1401.09 34.3652 1398.96 32.0452C1396.84 29.6286 1394.32 27.7919 1391.42 26.5352C1388.62 25.2786 1385.43 24.6502 1381.85 24.6502C1377.12 24.6502 1372.91 25.8586 1369.24 28.2752C1365.57 30.5952 1362.67 33.8336 1360.54 37.9902C1358.51 42.1469 1357.49 46.9802 1357.49 52.4902C1357.49 57.9036 1358.56 62.7369 1360.68 66.9902C1362.81 71.1469 1365.71 74.4336 1369.38 76.8502C1373.15 79.1702 1377.46 80.3302 1382.29 80.3302C1386.06 80.3302 1389.3 79.7019 1392 78.4452C1394.81 77.0919 1397.18 75.2552 1399.11 72.9352C1401.14 70.5186 1402.88 67.7152 1404.33 64.5252L1429.85 72.6452C1427.53 79.0252 1424.1 84.6802 1419.55 89.6102C1415.01 94.4436 1409.55 98.2136 1403.17 100.92C1396.79 103.627 1389.68 104.98 1381.85 104.98ZM1440.65 103.24V1.74023H1508.66V26.3902H1467.48V40.4552H1500.83V64.3802H1467.48V78.5902H1509.67V103.24H1440.65ZM1608.33 104.98C1597.7 104.98 1588.27 102.757 1580.06 98.3102C1571.94 93.7669 1565.56 87.5802 1560.92 79.7502C1556.28 71.8236 1553.96 62.7852 1553.96 52.6352C1553.96 42.3886 1556.28 33.3502 1560.92 25.5202C1565.56 17.5936 1571.94 11.4069 1580.06 6.96023C1588.18 2.4169 1597.51 0.145231 1608.04 0.145231C1618.68 0.145231 1628.05 2.4169 1636.17 6.96023C1644.29 11.4069 1650.67 17.5936 1655.31 25.5202C1659.95 33.3502 1662.27 42.3886 1662.27 52.6352C1662.27 62.7852 1659.95 71.8236 1655.31 79.7502C1650.77 87.5802 1644.44 93.7669 1636.32 98.3102C1628.2 102.757 1618.87 104.98 1608.33 104.98ZM1608.33 80.3302C1613.55 80.3302 1618.14 79.1702 1622.11 76.8502C1626.07 74.4336 1629.16 71.1469 1631.39 66.9902C1633.61 62.8336 1634.72 58.0486 1634.72 52.6352C1634.72 47.2219 1633.56 42.4369 1631.24 38.2802C1629.02 34.0269 1625.88 30.7402 1621.82 28.4202C1617.85 26.0036 1613.26 24.7952 1608.04 24.7952C1602.92 24.7952 1598.33 26.0036 1594.27 28.4202C1590.3 30.7402 1587.16 34.0269 1584.84 38.2802C1582.62 42.4369 1581.51 47.2219 1581.51 52.6352C1581.51 58.0486 1582.67 62.8336 1584.99 66.9902C1587.31 71.1469 1590.45 74.4336 1594.41 76.8502C1598.47 79.1702 1603.11 80.3302 1608.33 80.3302ZM1701.51 103.24L1662.51 1.74023H1691.51L1716.01 70.7602L1740.23 1.74023H1769.23L1730.51 103.24H1701.51ZM1778.94 103.24V1.74023H1846.95V26.3902H1805.77V40.4552H1839.12V64.3802H1805.77V78.5902H1847.96V103.24H1778.94ZM1863.9 103.24V1.74023H1905.95C1913.59 1.74023 1920.35 3.23856 1926.25 6.23523C1932.15 9.13523 1936.74 13.1952 1940.03 18.4152C1943.41 23.5386 1945.1 29.4836 1945.1 36.2502C1945.1 42.9202 1943.46 48.8652 1940.17 54.0852C1936.88 59.3052 1932.44 63.3652 1926.83 66.2652L1949.16 103.24H1918.42L1900.15 71.0502C1899.57 71.0502 1898.99 71.0502 1898.41 71.0502C1897.83 71.0502 1897.25 71.0502 1896.67 71.0502H1890.73V103.24H1863.9ZM1890.73 46.4002H1904.5C1906.92 46.4002 1909.04 45.9652 1910.88 45.0952C1912.72 44.2252 1914.17 43.0169 1915.23 41.4702C1916.29 39.9236 1916.83 38.1836 1916.83 36.2502C1916.83 33.3502 1915.67 30.9819 1913.35 29.1452C1911.12 27.2119 1908.17 26.2452 1904.5 26.2452H1890.73V46.4002ZM1991.37 103.24L1952.36 1.74023H1981.36L2005.87 70.7602L2030.08 1.74023H2059.08L2020.37 103.24H1991.37ZM2068.8 103.24V1.74023H2095.62V103.24H2068.8ZM2112.98 103.24V1.74023H2180.98V26.3902H2139.8V40.4552H2173.15V64.3802H2139.8V78.5902H2182V103.24H2112.98ZM2219.4 103.24L2190.25 1.74023H2217.66L2233.75 61.9152L2248.98 1.74023H2275.66L2291.32 60.3202L2306.98 1.74023H2334.38L2305.24 103.24H2277.4L2262.32 43.2102L2247.24 103.24H2219.4Z" fill="#FFCC00"/>
</svg>
