<?xml version="1.0" encoding="UTF-8"?>
<svg id="Layer_2" data-name="Layer 2" xmlns="http://www.w3.org/2000/svg" viewBox="0 0 69.8 125.5">
  <defs>
    <style>
      .cls-1 {
        fill: #ffc400;
        stroke: #fff;
        stroke-linecap: round;
        stroke-linejoin: round;
        stroke-width: .5px;
      }
    </style>
  </defs>
  <g id="Layer_1-2" data-name="Layer 1">
    <g id="features">
      <path id="INKL" class="cls-1" d="M43.25,90.55l-.1.6h-.7v-.4l.8-.2h0ZM43.25,90.55l.8.2v.4h-.8v-.6h0ZM42.65,90.15l.3.4-1.1.4-.1-.2.9-.6h0ZM40.85,81.55l.5.5.1.6-.6-.1v-1ZM38.45,78.85l.4.2.4.8-.6-.1-.2-.9h0ZM37.95,77.65l.3.2.2.7-.4.2-.1-1.1h0ZM.25,1.15l.5.1.3-.2,1.6-.6.5.2.9-.4.1.7-.4.6.3.7.9-.1.3.1.2.8h-.3l.1.7.6.1.4-.2v-.7l.5-.1.3.5.8.1.5.2-.3.6.1.7.4.1.4-.4.5.1-.1.5.3.3.1.7.7.2,1.1-1.3.6.3.4.9-.6-.2-.6.6.3,1h.6v.6l.5.2.4.1.1.6v.3l.4-.1.5-.5.1-.3.1-.1.2-.1.3-.1.1.2.3-.2.3.9-.3.3-.3.2-.3.1-.7-.2.1.1-.1,1.1.3.6.5.2.2.1v.1l.4.1.1.2-.2.5-.1.2.4.8.2.2-.3.4.3-.1h.3l.7-.1.4.2.3.6.3.1.2.2v.1l.2.4v.1l.1.1.1.3.3.3-.1.3.2.1.1.1.2.2.3.5.5.4.3.2h.1l.3-.1.5.1.1.1h.2l.2.3v.3l.5.8h.3l.5-.3.3.4.1.1.2.4.1.2,1.3-.5.9.2.1,1.2.7.7v.6l.5.4.2.3.7.5,1.5.3.4-.1.8.2.6.1.2-.3h.7l1.2-.8h.5l.4-.2v3.3l.5.2.4-.4,1.2-.2.5.5.1.8.3.5.8.2.8-.2.2.4.5.3.3.9.6.4.6-.3.5.1.8-.4.4.8-.4.4v.7l.2.5.4.2.2.7-.3.2-1.1.1-.3.8-1,.4-.1-.3-.9.7-.2-.4-.5-.4-1.3.8.5,1.1-.3.2.4.7-.2.9.5-.3.6-.1,1.1.9.4-.4.8.3.8.5.5-.1-.1.5,1.1.9,1.7.6v.4l.8-.1v.8l-.7,1.7-1.8.8-.1.9.3.5.3-.5,1.1-.1.4.4,1.6-.2h.6l.6.3,2-1.3.9.7-.2.6-.4.2-.6.6.3.7,1.2.6-.1.5.3.2-.3.6v.4l.4.1.2.6-1.2-.2-.6.4-.3.5-.1.5-.5.6-.2,1.1.9.5h.4l.9.6h1.1l.4.3.8.2.8,1-.2.3.6.5.8-.1.2.9-.1.5-.5,1.2-.5,1,.4.2v1l-1.8.1v.3l.3.7.4.1-.2,1.4.2.2-.3,1.1-.1,1.4-.2.7.4.6-.2.2.6.7-.3.6-.2,1.2.3.3.9.1v.4l.6.3.2.6.5.3.5-.2.8.3h.6l1-.6.6-.2.2-.7.7-.6,1.2-.4,1.3-1,1.6.1-.2,1,1,1.5v.8h.5l.3.4-.4.8-.2.7.1.7-.2.5-.7-.2-1.1.7.2.6.2.1,1.3,1.5-.3.3.3.9.3.2-.3.6h-.3l-.5.6-.5.8-.1.7.7.7-.2.8.4.7-.6.2.1.7-.2.9-.5.2.1.8-.3.7-.4.4-.3.9v.4l.5.1.3-.2,1,.9,1.1.2.7-.6.5-.2.4.7.8.8v.4l.6.5.7.3-.4.5.1.3-.4.6-.5-.1-.5.5-.4.7.2.3-.2.5v.7l-.9,1.2-.6.5.1.8-.3,1,.2.5-.4.5v1.3l-.5.7-.6.3-.4.5-.1.7-.3.5-.8.3-.5.6v.4l.7.6.1.4.5.4v.9l.3-.2.4.8.5.3.4.4.2,1-.8,1-.1.6-1,1.1-.6-.1.3.9.3.2.6,1.6.8.8v.4l.6.8.4.9-.5,1-.7.3-.4-.4-.4.4.5,1.4-.6.1-.2.7-.8.9h-.5l.6.9-.2.6h-.7l-.5.6-.4.1-2-1.6-.4-.4-.6-.3-.5-1-2-2.4-.7-.9-2.1-2.6-.5-.7-1.8-2.2-.6-1-1.7-2.2-.7-.6-.7-.2-.4-.4-.3-.6-.4-1.4-.2-1.4-.3-.3-.7-1.8-.6-1.3-1.4-3.1-1.6-3.5-.6-2-.5-2-.3-1.8-.5-4.5-.6-3.6-.7-2.4.7.1.2.8.7.3-.2.5-.8.1.3.9.4-.1.2-.6,1.1.6.3.4v.6l.8.5-.3.6.2.5.1,1-.1.4v.9l.2.3.5.1v.6l-.7,1.3v.8l-.2.2-.2,1,.1.4,4-.1-2.3-.9v-.3l.3-1.1-.3-.7-.4-.3v-.7l.3-.7-.8-.2.2-1-.2-.5-.3-.4-.1-.6.4-.4v-.9l-.6-1.4-.2-.5-.6-.1.3.8-.7-.1-.1-.7-.4-.6-.2-.2-.6-1.3v-.7l-.5-.7-.1-.4.3-.5v-.4l-1.1-1.1-.5-.2,1,2.9-.1.6.2.6-.5.3-.2-.9-.4-1.3-.6-2.1-.6-1.6-.6-2-.6-2.3-1-2.4-2.2-4.5-.1-.3-1.7-3.8-.6-1.5-.9-4.3-.6-2.3-.3-1.1-.3-1.1-.7-1.6h-.2l-.8-2.2-.7-2.1-.3-.5.1-.4-1-1.9-.6-.9-.9-.5-.4.2-.4-.4v-.4l-.9-2.5-.8-2.1-.7-1.4-.6-.8-1-.8-.5-.2-.3-.8-1-1.1-.8-.6-.3.2-1.1-1.5-.7-1,.1-.6-.4-.7-.7-.6.4-.4.6.2.3-1-.2-.1-.1-.1-.1-.2.5-.6-.2-.4.3-.2.3.2.2.1.4-.3.5-.4h.3v-.2l.3.1.3-.2-.1-.2-.3-.2h-.4l-.2.3-.5-.1-.6-.1h-.1l-.3.2v.1l-.7.5-.2.4-.3-.1-.3-.1-.2.1-.2-.1-.1-.1-.4.2-.1.1.1.4v.9l.1.3.1.6-.7.5-.5-.9-.3-1.3-.1-.9-.5-.9-.1-.6-.4-.5-.2-.7-.3.2-1.2-3.2-.8-1.7-.8-1-.6-1.5-.5-.8-.4-1-1.4-3.5-.7-1.5L.25,1.15h0Z"/>
    </g>
  </g>
</svg>