<?xml version="1.0" encoding="UTF-8"?>
<svg id="Layer_2" data-name="Layer 2" xmlns="http://www.w3.org/2000/svg" viewBox="0 0 113.4 152.7">
  <defs>
    <style>
      .cls-1 {
        fill: #ffc400;
        stroke: #fff;
        stroke-linecap: round;
        stroke-linejoin: round;
        stroke-width: .5px;
      }
    </style>
  </defs>
  <g id="Layer_1-2" data-name="Layer 1">
    <g id="features">
      <path id="INTN" class="cls-1" d="M84.75,117.85l.7.4-.6.8.4.7,1.4,1.2.4.7-2-1.3-1.2-.5-1.5-.3-.5-.4.4-.3,1.3-.1.6-.7.6-.2h0ZM54.95,22.25l.2.9-.3.5-.7.2.2.6h.8l-.1-.4,1.1-.1.7,1.1.5.1,1.6,1.1,2.5-.2-.1-1.2.5.1.5-.3v-1.7l.6.7.3.7.7-.5-.1-.9.3-.6.6-.5.2-1,.3-.2-.2-.8.4-.5v-.5l.5-1.1.6-.1-.7-1.6v-.2l.6-.6.2-.4,1.2.4.2-1.5,1.1.3,1-.2.6-.6.9.1h1.3l.1,1.4.8-1.3.9.1,1-.4.5.6,1.5.5.4.7h.4l.6-.3.4.1.9.4.5-.3.1-.6-.2-.4.7-1,.6-.2.3-1.1,1.2-.1.1.5.7.2,1.4-.3-.1-1.1.4.2.2-.6.4-.2h1v-.7l.7-.2-.3-.4-.7.5-.1-.7.4-.8v-.6l-.4.1-.9-.5,1.2-.6h1l1.2.2,1.1.1.1.9.7.9h.5l.5-.5.5.2.3-.4,1-.2.4.7-.3.6.6.3.1.6.5-.3.4-.1.4.6,1-.9-.8-.5-.8-.6.6-.4.2-.6.7.6.6-.7,1.4.1,1.4-.9.6-.1.8-1-.5-.3-.1-.6.9-.4-.1-.9.9-.2.3-.8.9.1v-.5h-.5l-.8-.7.5-.2.3.2.7.1.7-.4.1.3.1-.1.3.1.2.4.1.2.6.1.3.1.1.1.2.3.2.1h.2l.1.1h.9l.6-.2.8.5.4.5.2.9.3.2-.1.5,1.1.5-.1-1.5.5-.1v.8l.4,2.1.1.9-.3,1.2-.7,2.5-.3.6.1,1.4-.6,1-.1.9-.5,2.5-.3,2.1-.1,1.5.2.8-1.1,3.4-.4,1.2-.9,2.5-.2,1.5-.4.8-.7,1.1-1.3,1.5-.7-.4-.2.8.3.3-.9,1.4-.1.4-.7.3-.2.5.3.2-1.6,2.5-1.3,2-1,2.4-.3,1.1h-.3l-.5-.2-.1-.4h-.2l-.1.1-.1.4-.4-.1h-.1v.2l-.2.2-.4.1v.4l-.2.2-.2-1.1-.5-.2v-.4l.3.2.5-.3.2-.1-.7-.3-.1.2-.2.1h-.3l-.4-.6v-.6l-.6.3-.3.3h-.1l-.2.1-.1.5h1.4l.2.7-.5.1v.6l.6-.1v.5l.5.6-.4.5-.8-.2-.5.1-.1.3,1-.2v.5l.3.2h.7l.7-.3.3.5.5.1.4.8-.2,1.1-.4,1.7-.5,2.4-.1,1.1.1.9.4,1.2.4.9.5.9.6,2.5.3.2-.1.9.1.9.2,1.4.3,2.6-.1,4.5h-.6l-.2-.2-.4.1-.2-.1h-.2l-.2.3-.4-.1-.4-.1-.5-.1h-.3v.3l.2.1v.1l.1.1v.2l.1.2-.1.1-.4-.2h-.3l-.3.1.3.3.1.1-.3.3-.1.1h.1v.2l.3.1v.1l.1-.1.1.1v.1l.4.1.2.1.1.2.2.1.4-.2v.3l-.1.1h.1l.3.1.1.3.5.3-.4.1v.2l.3.2.1.1h.2v.5h1v1.4l.1,4.9.1,1,.2,3.7.2,1.4.3,1.7-.5.6-.8.3h-2.5l.5-.8-.1-.3-.8.1-.3-.3-.9-.1-.4.1h-.7l-.5-.7-.4.8-.9.4,1.1.1,1.2.3h.6l1.1.4-5.5-.9.6-.3.3-.4.8.1v-.3l-1.1-.3-.4.4.3.3-1.2.1.3.3-3.1-.2h-.4l-.4.6-1.2.4-.9.6-.7.8.4.5-1.1.9v.7l-.3.1.1.8-.2.7.3.7.4.2.3.7-.6.4-1.3,1.6-1.1,1v.3l-.7.8-.3.5.2.3-.5.7-.4.3-.4.8-.5.7-.5.3-.6.8-1.1,1.3-.2.9-.4.8-.6.5-.4,2-.1,1.2-.5.1.1.6.9,1.6,1.5,1.6.9.7,1.2.8,1.1.3,1.1-.1.6.3-1.3.3-.7.3-.9-.1-1-.2-1.3-.1h-.6l-.9.2-.5.5-.6-.2h-.6l-2.9,1.1-.6.1-.4.3v.3l-1.4-.2-.5.3-.2.5.3.3-1.1.2-1,.5-.7-.1h-1.1l-.6.2-.9.1-1.2.4-.8.6-1.1.9-.9.7-2,1.3-.7.7-.7,1.1-.1.7-.4.4-.1,1.6-.1.5.1.8.9.3.1.3-.7.2-.3.2-.3.8-.5.6-.2.9-.3-.2-.2.7h-.2v.7l.8.2.2.5-.4,2,.2.5-.8.9-1,1.2-.3,1.1.3.3-1.2.3-1.1.5-.7.5-.1.3-1.4.7-.4.4-.8.4-1.2.3-.8.8v.3l-1.1.9-.8.3-2.8.4-1,.4-.5.4.1.9-.2.3h-.5l-3.4-.7-1.7-.5-1.2-.2-.2-.6-.6-.4-.8-.2-.9-.8-.8-.5-.7-.7-1.9-1.5.4-.1.5-.6h.7l.2-.6-.6-.9h.5l.8-.9.2-.7.6-.1-.5-1.4.4-.4.4.4.7-.3.5-1-.4-.9-.6-.8v-.4l-.8-.8-.6-1.6-.3-.2-.3-.9.6.1,1-1.1.1-.6.8-1-.2-1-.4-.4-.5-.3-.4-.8-.3.2v-.9l-.5-.4-.1-.4-.7-.6v-.4l.5-.6.8-.3.3-.5.1-.7.4-.5.6-.3.5-.7v-1.3l.4-.5-.2-.5.3-1-.1-.8.6-.5.9-1.2v-.7l.2-.5-.2-.3.4-.7.5-.5.5.1.4-.6-.1-.3.4-.5-.7-.3-.6-.5v-.4l-.8-.8-.4-.7-.5.2-.7.6-1.1-.2-1-.9-.3.2-.5-.1v-.4l.3-.9.4-.4.3-.7-.1-.8.5-.2.2-.9-.1-.7.6-.2-.4-.7.2-.8-.7-.7.1-.7.5-.8.5-.6h.3l.3-.6-.3-.2-.3-.9.3-.3-1.3-1.5-.2-.1-.2-.6,1.1-.7.7.2.2-.5-.1-.7.2-.7.4-.8-.3-.4h-.5v-.8l-1-1.5.2-1-1.6-.1-1.3,1-1.2.4-.7.6-.2.7-.6.2-1,.6h-.6l-.8-.3-.5.2-.5-.3-.2-.6-.6-.3v-.4l-.9-.1-.3-.3.2-1.2.3-.6-.6-.7.2-.2-.4-.6.2-.7.1-1.4.3-1.1-.2-.2.2-1.4-.4-.1-.3-.7v-.3l1.8-.1v-1l-.4-.2.5-1,.5-1.2.1-.5-.2-.9-.8.1-.6-.5.2-.3-.8-1-.8-.2-.4-.3h-1.1l-.9-.6h-.4l-.9-.5.2-1.1.5-.6.1-.5.3-.5.6-.4,1.2.2-.2-.6-.4-.1v-.4l.3-.6-.3-.2.1-.5-1.2-.6-.3-.7.6-.6.4-.2.2-.6-.9-.7-2,1.3-.6-.3h-.6l-1.6.2-.4-.4-1.1.1-.3.5-.3-.5.1-.9,1.8-.8.7-1.7v-.8l-.8.1v-.4l-1.7-.6-1.1-.9.1-.5-.5.1-.8-.5-.8-.3-.4.4-1.1-.9-.6.1-.5.3.2-.9-.4-.7.3-.2-.5-1.1,1.3-.8.5.4.2.4.9-.7.1.3,1-.4.3-.8,1.1-.1.3-.2-.2-.7.7.1.6-.7.9-.5,1,.7.3,1.7,1.5.3.5-.1,3.4-.1,1.8.3.5.4.5-.5-.6-.8v-.6l.6-1.3.8-.8.2-1.1.3-.5h1.2l.4.5.4-.7.9-.4.5.3.5.5.5.1-.3.4.7,1h.6l.5-1.1.6-.3.8-.1.6-.2h1.1l.4-.5,1,.3.1-.2,1.2,1.1.5-.2.3-.4.7.1.8.4.5-.3.7-1.9v-1.4h.6l.4-1.1.9.2.6-.2.7.2,1.8-.5h.7v-.4l.7-1.5.9-1.3.7-.4.5-1.1-.7-.6v-.5l-.4-.6-1.9-.5h-.7l-.7-.2-1.3.2-.5-.2-.8.3-.8-.2-.4-.3.2-.7-.3-.3.2-.7.6-.3.7.1.2-.3.5-.1.4-.4.3-.8,1-.8.3-1.4.3-2-.3-.3-.5.6-.6-.1.7-.6.1-.4-.7-.1-.3-1.4.4-.7v-.6l.4-.5-.3-.6.1-.4,1.8-.5.4.1-.1.6h.8l.2-.7.4.4.2-.6.7-.1.3-.8-.1-.4.5-.1.2-.4-.3-.4.4-.6.4-1.1-.5-.2,1-.6.1-.3,1.6.1.1-.3.8-.2.3.7-.3.2-.2.6.7.2.2-.4.5-.2.6.7v.4h.6l-.3-.5.8-.8,1.2.4.6.7.7.5.2.4,1,.3.3-.1,1.5.3h0Z"/>
    </g>
  </g>
</svg>