<?xml version="1.0" encoding="UTF-8"?>
<svg id="Layer_2" data-name="Layer 2" xmlns="http://www.w3.org/2000/svg" viewBox="0 0 219.6 230.3">
  <defs>
    <style>
      .cls-1 {
        fill: #ffc400;
        stroke: #fff;
        stroke-linecap: round;
        stroke-linejoin: round;
        stroke-width: .5px;
      }
    </style>
  </defs>
  <g id="Layer_1-2" data-name="Layer 1">
    <g id="features">
      <path id="INTG" class="cls-1" d="M14.4,115.15l.1-1.2-.2-.3.1-.8-.2-.1-.3-.7.3-1.2-.1-.7-.3-.6-.1-1.2.3-.8v-.7l-.2-1.1.4-.5h.6l.5-.5.6-.3.4.3.3-.8-.2-.4-1.3-.7-.5-.5-1-.2-1.2.1-.7.3-1-.5-.6.1-.6-.3-1.3-.5-.5-.7-.4-1.1,1.1-.2.2-.5.7.3,1.2-.1v-.5l.4-.2.9-.2v-.8l-.4-.1-.2-.5h.8l.4-.4h.5v-.8l.4-1-.2-.2-.8.3-.5-.7,1.4-.4.1-.9-1.3-.1.4-1.4v-.5l.8.1.2-.6-.5-.8.1-.6-.1-1.8.3-.2-.1-1.1.5-.4-.1-.6.6-.5-.2-.8-.4-.8v-.4l-.5-.5.1-.3-1.6-.5-.8-.5-.4-.6.3-.9h.6v-.6l-.3-.2,2-1.6-.6-.4.4-.7.2-.9-.1-.7h.7l.2.4,1-.2v-.7l.3-.3-.6-.4v-.5l.6-.4,1.1.4v-.7l.7.3h.4v-.8l.6-.1.4-.2,1,.2.1-.7-.9-.7h-1l-.8-.3-.1-.7-1,.2-.6-.7-.7,1-.3-.8-.5.1-.3-.4-.6-.1v-.6l.3-.8-.2-.8.4-1.2.8-.2.2-.3.9-.3.3.1.6-.6-.2-.5-.8-.5-.6-.1.2-.5.4-.3v-.4l.8-.1.3-.4.1-.7.7-.4-.2-.8.8.2.1-1.2.7-.1.2-.6-.2-.7h-.4l-.7-.7-1.4-.5-.2-.6.6-.6.8-.2.1-.5-.2-.8.1-.7-.5-.3-.3-.8.5-.8-.4-.7.8-1-.8-.4h-.6l.5-.5-.4-.7-.7-.2-.2-.7.8-.7.1-.9-.8-.2.1-.4.9.1.6-.2-.3-.7.1-.5.7.3v-.5l-.4-.3.3-1.3,1.2-.2.1.5.3.3,1.5-.8.5.1.5-1.1-.1-.9-.4-.7.1-.9.5-.4,1-.1.4-.7v-.4l.6-1.1.4-1.1,1.9-.7.9.3.1-.6-.5-.5-.7-.3-.4-.5-.1-.6h-.7l-.5-.1.4-1.2-1.1.1.1-1h-1.4v-1.1l-.2-.2.1-1,1,.3-.1-.6.1-.8.5-.1.3.5h.4l.1-.8-.3-.5.4-.7.1-.6-.2-.3.6-1.7.5-.4.4.1v-.6l-1.1-.2v-.5l1.4-.5.4-.4.6-.3.8.6.2.4.7.2.5.6.5.3v.6l.3.3.7-.5.4.3h.8l.6.4.9-.3v-1.1l.3-.7.1-.8-.5-.6.3-1.3,1-1.1.7.1.6-.7.7.2.4-.5-.1-.6-.3-.5-.1-1.6.4-.4v-.9l-.6-1.5-.5-.2.4-.8h.9l.1-.4.7-.3v-.6l.4-.6.2-.8-.2-.7-.6-.2v-.8l-1.2-.3.4-1.8.7.9,1.3.1.1.8.3.4.9.4,1.3.2.4.7.9-.8,1.6.2.5-.1.5.2,2.2.7.4.6.6-.4.7.1.6-.1.6.6h1.1l.3.8.2,1-.2,1.2h.9l.7-.4.7.1.7.5-.1.9.4.8v.3l-.7.5v.3h.7l.4-.3.7.6.9-.1.3.4,1.1.1.1.4.9.4.8.9.6.3.8-.2-.3-.6.2-.7.6-.5.1-.9.2-.5-.3-1h.5l1.3.6.3.7.7-.2h.8l.1.3,1.1.8h.8l.4.5.4.6,1.1-.6.1-.7.7-.2.2.7.5.4.7.3.2-.2.2-.9.4-.8.5-.3h1.1l.9-.2.8-.6,1,.2.4.5.6.3.4.9,1.3,1.1.9.2,1,1v.5l.7,1.2-.2,1.4-.2.5.1,1.1-.4.4-.7,1.6v.7l.6.8-1,1-1,.6-.3.5.1,1.3-.1.5.3.2.6-.3.9.1.3.6-.1,1.3.3,1.1-.1,2.3-.4.6-.8.2.6,1,.4.3,2.2.6.2.4.4.1.3.8,1,.5.7.7,1.4-.5.3.5.5.1.4-.6,1.2-.2.6-.4.8.9.6,1.8.6,1.1.7-.6.4.4.6-.4,1.3-.6h1l.7.3.5.9,1.9,1.2.4.5.5.2.1.7.4.7.8.5.4.6-.1.4.6.4.3,1.3.6,1.2v.5l.6.7.4,1-1.4.7.1,1.3.7.3,1-.1.6-.8-.1-.9.2-.3,1,.3.2.5-.5.2.2,1.7.2.3,1-.1,1.2-.6.3-.3.5-.1v.7l-.6.6-.1,1,.5,1.3-.1.4.3,1.1.3,2,.3.2.3,2.2.2.7.5.7.7.2.5-.1.6-.9,1.7-1,.9.2,1.7,1h1.7l1.9.1.7.1.4-.5.3.2.9-.2.3.5,2-.3.6-.4,1,.4.8-.7.1-.5.5-.6.7-.2.4.7,1.5-1,.6.7.4.8-.3.3-.5.1-.3.3h-.7l-.7.5-.1.5-.7.5-1.4.1-.4.6-.7.3-.3.4v.9l-.5.6-.5,1-.6.6-.3.6.6.5-.6.9-.2,2.6-1.5,1.9-.5.3-.2.3-.8.2-1-.4-.2-.5-.5-.1-.9,1.5-.6.5h-1.4l-.7-.2-.5.6-.1,1.1.3.4-.5.6h-.5l-1.6.6-.6.2h-.6l-.4.5-1.2.2-.8-.2-.6-.5-.7.1.2.9v.7l-.7.1-.5-.1-.1.6-.3.4.2.4-.2.8.1.5-.7.7-.3-.3-2.1-.5-.6-.3-1.1-.1-1,.4-.3-.5.5-.3-.7-.8-.9-.2-1-.6-.3.4-1.4.7-.3.5-.1.8-.3.5h-.5l-.2.6-.7-.2-.6-.9-.1-.6-.8.6.6,1.2-.5.5-.3.7,1.1.4,1.2.4.9.6.4-.7.8.3.3-.4,1.1.7h.4l-.1.7.1.8-.6.1v1l-.2.3.8.5.3.6-.9.7-2-.4-.9-.4-.1-.7-.9-.4-.1-.4-.5-.2v.5l-.7.6-.4-1.3h-.7l-.4-.4-.2-1.2-.3-1.3-1.1-1.5-.5.2-.7-.5-.6.1v-.7l-.3-.1-.5.6-.6.6-.3.5-.7.1-.5-.2-.1.7h-1.1l-.2.8-.8.8-.5,1.3.6.3h.6l.2.8.8.3-.5,1.2-.1.8-.9.9-.7.6-.5.9-.8.8h-.5l-.6-.2-.3-.3-.5-1.1-.3-.3-1.4.2-.8-.9-.2-.2-.7.3-.7.8h-1.1l-.8.5-.2.4-1.3-.1-.7.6-1,.3-1.1.1-1.3.6-.2.4-.4.3-2.2.1-.8.1-1.4.4-.2.5-.8.7-.2.8.4,1-.5.5-.2,2.2.4.7.1,1.1-.1,1.4-.5.6-.9.4-1.4-.6h-1.5l-.7-.2h-.7l-.7.4-.9.3-1.4.8-.1.7.5,1.3-.6.7-.8-.4-.2-1-.2-.4-.7.2.1,1.9-.8,1.1-.9.7h-1l-.6-.1-.8-.4-.5-.5-.9-1-.9-.1-1.2,1.1-1.7-.4-1.2-.3h-1.3l-1,.6-.8.2-.6.7h-.7l-.6-.2-.5.3.2.9-.3.7-.1.9-.4.4-.7.2-.7.5.1.3-.5,1.1h-1v.4l-.7.2-1-.4-.4-.8-.3-.8-.6.1-.4,1-.8-.4h-1.2l-1.2-.6-.5.1-.3.5h-.6l-1,.3-2.3-.6-.8.3-1.3-.2-.9-.8-.5.1-2.1-.4h0Z"/>
      <path id="INAP" class="cls-1" d="M93.15,201.75l.5.8-.5,1.1-.6-.8.1-.6.5-.5ZM150.85,114.55l.7-.2.9-.2.4-.5.3.5-.1.6-.5.9v1l-.6.2-.4-.9-.8-.3.3-.5-.2-.6h0ZM20.85,136.55l2.1.4.5-.1.9.8,1.3.2.8-.3,2.3.6,1-.3h.6l.3-.5.5-.1,1.2.6h1.2l.8.4.4-1,.6-.1.3.8.4.8,1,.4.7-.2v-.4h1l.5-1.1-.1-.3.7-.5.7-.2.4-.4.1-.9.3-.7-.2-.9.5-.3.6.2h.7l.6-.7.8-.2,1-.6h1.3l1.2.3,1.7.4,1.2-1.1.9.1.9,1,.5.5.8.4.6.1h1l.9-.7.8-1.1-.1-1.9.7-.2.2.4.2,1,.8.4.6-.7-.5-1.3.1-.7,1.4-.8.9-.3.7-.4h.7l.7.2h1.5l1.4.6.9-.4.5-.6.1-1.4-.1-1.1-.4-.7.2-2.2.5-.5-.4-1,.2-.8.8-.7.2-.5,1.4-.4.8-.1,2.2-.1.4-.3.2-.4,1.3-.6,1.1-.1,1-.3.7-.6,1.3.1.2-.4.8-.5h1.1l.7-.8.7-.3.2.2.8.9,1.4-.2.3.3.5,1.1.3.3.6.2h.5l.8-.8.5-.9.7-.6.9-.9.1-.8.5-1.2-.8-.3-.2-.8h-.6l-.6-.3.5-1.3.8-.8.2-.8h1.1l.1-.7.5.2.7-.1.3-.5.6-.6.5-.6.3.1v.7l.6-.1.7.5.5-.2,1.1,1.5.3,1.3.2,1.2.4.4h.7l.4,1.3.7-.6v-.5l.5.2.1.4.9.4.1.7.9.4,2,.4.9-.7-.3-.6-.8-.5.2-.3v-1l.6-.1-.1-.8.1-.7h-.4l-1.1-.7-.3.4-.8-.3-.4.7-.9-.6-1.2-.4-1.1-.4.3-.7.5-.5-.6-1.2.8-.6.1.6.6.9.7.2.2-.6h.5l.3-.5.1-.8.3-.5,1.4-.7.3-.4,1,.6.9.2.7.8-.5.3.3.5,1-.4,1.1.1.6.3,2.1.5.3.3.7-.7-.1-.5.2-.8-.2-.4.3-.4.1-.6.5.1.7-.1v-.7l-.2-.9.7-.1.6.5.8.2,1.2-.2.4-.5h.6l.6-.2,1.6-.6h.5l.5-.6-.3-.4.1-1.1.5-.6.7.2h1.4l.6-.5.9-1.5.5.1.2.5,1,.4.8-.2.2-.3.5-.3,1.5-1.9.2-2.6.6-.9-.6-.5.3-.6.6-.6.5-1,.5-.6v-.9l.3-.4.7-.3.4-.6,1.4-.1.7-.5.1-.5.7-.5h.7l.3-.3.5-.1.3-.3-.4-.8-.6-.7.8-.5.4-.7.9-.4h.3l1.5-.5.4-.3.6-.2,1.8-1.1v-.6l.6-.4.6.4h.4l.3-.6.6.4,1,.1.1.4.8-.2.4.9h.5l.6.4.5.1.1.4.7-.2.1-.7-.3-.7.2-.4.6-.4.5.6.4-.3.4.1.2-1-.3-.3.1-1.4.6.5.2-.4-.4-.7-1.1-.4-.1-.6.7-.5v-.5l.2-1,.8-.1.4-.4.3-.7-.3-.3-1-.1.4-.6.4-.3.3-.6-.7-1,.5-.4.5-.8.8-.8.3-.6,1-1.1.2.6.5.3.6.1.2,1-.3.3.3.4.7.2-.5.8v.6h.5l1.3.6-.3,1.4-.1,1.1.1.7.5.2.6.6.5-.5-.1-.3.5-1,.9-.2.2-.3.8-.1.5-.5.4-.1.5-.6-.2-.5.3-.6-.3-.8.6-.6.5.2,1.4.8.4-.2.2.6-.1.4.4.6.7-.1.2.3.7-.2.5.1.4-.6.5-.1.8.2.4-.2.3-.4-.6-.8-.2-.5-.5-.3.9-.9.6-1.1.4-.5-.4-.3-.6.3-.5-.4-.2-.5.3-.4-.8-.3.4-.5-.3-1,1.1-.4.7-1.5.3-.2,1.2-1.7.5.4h.5l.5.4,1-.1.5-.3h.7l.4-.9.6-.3h.5l1.1-.2.3-.4.7-.4v-.4l.4-.3-.7-.4-1.1-1.4.4-.3v-.6l-.9-.2-.4-.2-.2-.7.6.1.2-.6.5-.1.2.5.7-.2.6.1.2.5.7.9.6-.3-.4-.7v-.5h.7l.1-.7-.4-.3-.1-1,.5-.2.4.6.3-.3.3,1.2-.6-.1.1.5,1,.2v-.7l.5-.7.8.1v-.8l.7-.5-.3-.8.7-.6.7.8.3.8v.3l.7.9.5.9.1.8.6.3.5,1.7.7.5.2-.5-.4-.8h-.4l-.2-1.1,1.3-.7.7,1.7v.4l.6.7.2.6-.2.5.2.6.6.4.1.6h1.1l.7.3,1.3.2.7-.1,1.1.6.5.9.7.2,1.2-.6.6-.3.6.2,1-.5.8.4.4-.1.7-.4.4.2.9-.3-.1-.5h.4l-.3-1.6.8.4.7-.9.6-.2.5-.7-.3-.7.6-.8-.1-.3-.2-.2-.1-.2v-.2l-.3-.5h.2v.2l.5.3.9.5.1-.4.1-.4.3-.4.2-.1.3-.4,1.1-.2.3-.4.2-.1.1.1.2-.1-.1.8.4.6.3-.5.3-.4v-.1l.3-.2.1.1.1.1.2-.2h.3l.2.1.2-.4-.5-.5-.3.2-.2.1-.2-.5-.3-.1-.3-.6.9-.2h.9l.1-.4v-.6l.4.2h.5l.1-.1-.1.8-.1.1.1.3v.1l.6.3.3.2.8.5-2,2.9-.6.2.1.4-1.5,1.4-.7.9-.3,1-.6.6v.6l-.7.7-1.1,1-1.3,1.7-.1.4-2.1,2.2-.2.9-1.9,1.6-1.8,1.7-1.8,1.9-.8,1.4.1.4-1.6,1.1-1.6.8-1.7.9-1.7.6-.7.6-2.1.8-2,1.1-1.2.8-.7.6-2,1.4-.3.4v.5l-.8.9-1.1.7-1,.8.1.3-.3.5-.7.4-.3,1.3-.5.5-.1.4-.9.7-.3.9-.8.4-.4.5-.1.5-1,.9-.5.3-.2.7-.5.5-1.1.5-.4.4-1.5.5-.7.3-1.3.6-.7.4-.6.8-.9.3-.7.5-1.1.4-.5.4-.8.2-2.2,1.1-1.5.7-2.2,1.3-2.5,1.6-1.2.9-1.4,1.1-2.9,2.9-.8.9-.7,1.4.2.4-.4.6.1.5-.6.1v.9l.5.8h.3l.9.6h.7l.6.2-.2.8.1.3-.4,1.6v.5l-.7.1-.5.6-.5-.3-1.6.1-.7-.5-.5.6.4.2h.6l.9.5h.3l.1.7-.2.4.6.5.6,1.3-.2.5h-.3l-.5.6-1.1.4-4.1,2.1-1.2.7-2.3,1.3-1.4.2-1.4.5-1.9,1-1.5.7-.9-.6-1-.1-2.4-.3-.5-.4-.9.2h-1.1l-2.1.3-2,.8-1,.6-1.1,1.2-.7,1.2-.3.9-.1.9-.4,1.2-1.3,2.4v.6l.1.7-.4.3-1.1.9-1.1,1.3-.8.8-.6.8-.1.7.3.7v.6l-.2.3-1.7.9-.5-.1-2.2.3-.4-.1-.5-.9.2-.4-.5-1.4.5-.2v-.5l-.7-.8-2-.5-.8-.1-1.1.1-2.1.5-1.6.6-1.6.7-1.8,1.1-1.2.8-.8.8-1.1,1.3-.9,2.1-.3,1.4v.3l-.3.7-.4,1.4-2,2.6-.5.8-.4,1-.4,1.4.2,1.2-.1.7-.5,1.1-.5,1.9.1,1.8.5,2.8.3,1.1.1,1.9.5,1.5.2.7.9,1.2.6,2.3.2.3.7.5v.4l-.4,1.3-.3,3-.1,1.8-.6,1.8-.2.8-.3,1.6-.1,1.3.2,1.9.4,2,.3.8.4.5.6,1.7.7,1.3.4,1.3.3.3.2,1.1-.5,1.9-.1,1.2.3,1.6.8,1.6.8,2.4.4.8-.6-.1-.3-1.5-.3-.4-.2-1.3-1.1-1.3-.3-.6-.7-.6v-.6l-.9-.9-.4.3.2.9-.2,1.3-.4.1-.6-1.2h-.4l-.5.5v.8l-.5.7.6.7.3.2.7.9.8.2.6.6.4-.1,1.7.3.6.3.4.8.5.5h.5l.1,1.5-1.1-.5.1-.5-.3-.2-.2-.9-.4-.5-.8-.5-.6.2h-.9l-.1-.1h-.2l-.2-.1-.2-.3-.1-.1-.3-.1-.6-.1-.1-.2-.2-.4-.3-.1-.1.1-.1-.3-.7.4-.7-.1-.3-.2-.5.2.8.7h.5v.5l-.9-.1-.3.8-.9.2.1.9-.9.4.1.6.5.3-.8,1-.6.1-1.4.9-1.4-.1-.6.7-.7-.6-.2.6-.6.4.8.6.8.5-1,.9-.4-.6-.4.1-.5.3-.1-.6-.6-.3.3-.6-.4-.7-1,.2-.3.4-.5-.2-.5.5h-.5l-.7-.9-.1-.9-1.1-.1-1.2-.2h-1l-1.2.6.9.5.4-.1v.6l-.4.8.1.7.7-.5.3.4-.7.2v.7h-1l-.4.2-.2.6-.4-.2.1,1.1-1.4.3-.7-.2-.1-.5-1.2.1-.3,1.1-.6.2-.7,1,.2.4-.1.6-.5.3-.9-.4-.4-.1-.6.3h-.4l-.4-.7-1.5-.5-.5-.6-1,.4-.9-.1-.8,1.3-.1-1.4h-1.3l-.9-.1-.6.6-1,.2-1.1-.3-.2,1.5-1.2-.4-.2.4-.6.6v.2l.7,1.6-.6.1-.5,1.1v.5l-.4.5.2.8-.3.2-.2,1-.6.5-.3.6.1.9-.7.5-.3-.7-.6-.7v1.7l-.5.3-.5-.1.1,1.2-2.5.2-1.6-1.1-.5-.1-.7-1.1-1.1.1.1.4h-.8l-.2-.6.7-.2.3-.5-.2-.9.2-.2.3-1.4v-1l.6-.3.4.2.7.1v-.5l.4-.8.3.1.5-1.1.9.9.2-.3.4.4.4.1.5-.3.1.6.5.3v-.7l-.9-.9v-1.2l1,.1v-.4l-.3-1,.1-.5.4-.3,1-.3-.1-.5.4-.4v-.4l-.2-.6.8-.3.1-.6.8-.1-.4-.9.1-1.3.5-.8-.3-.3-1-.1-.2.6-.6-.6-.8-.5-.1-.4-.8.3-.2-.5h-.4l-.7.3.2-.8-1.2-.6.5-1-.3-1.7.2-1.2.5-1.1.3-.9-.5-.5-1,.1-.8-.1-1.7.2-.7-.3-.5.1-.5.7-.3-.6.4-.4v-.6l-.9-.3v-.6l-.4-.1-1,.1-.8.3v-.4l-.4-.4v-.7l.5.2.6-.1.1-.7-.7-.7.8-.8.2-.4-.3-.7.2-.5-.3-.9-.8-.1-.1-.5-.9-.4v1l-1.5-.3-.5,1.2-.5-.1-.2-1.3.2-.4.8-.3-.1-.8.1-.7-.4-.1-.3.7-1.1.8-.6-.4-.1-.5-.7.1-1.3-.1-.2.4.1.6.3.2.2.8-.7.5-.8.3-.1.6-1.1.2-.4.3-.1,1.5-.4-.6-.8.2.1-.7-.6.1-.9.4v.9l-.6-.4-.3.3-1,.3-.2-.6h-.5l.2,1-.2.5h-.4l-.1-.4h-.6l.1.5-.2.2-.7.1-.2-.6.3-.5.2-.8-.3-1.2-.3-.5-.3.4-.6-.3.5-.8-1.5-.1-.5-.4-.9.5-.4-.8-.5.3-1,.2-.3-1.6h-.4l-.9,1.1-.5-.2.2-1.1-.1-.4-.6.5.3.9-.7.2-.4.5.5.2.5.5-.2.5.4.8-.1.4-1.2.2-.8-.3-.4.2v.4h-.5l-.7-.9h-.4l-.3,1.1-.5-.3-.3-1.2.1-.5-.4-.2,1-1.1.3-1.3.7-.1-.2-.8-.7-.6-.6-.2.2-.7-.5-.5-.8-.3-.4-.4.1-.7,1-.1-.1-.8-.5-.2-.2-.7-.6-.5-.3.2-.7-.3.2-.8.7.1.5-.3.1-.6.5.4,1.7.1-.2,1.2.1.6-.2.4.4.3v.8l1.2.2.6.3.9-.2.3,1.3.6.2.4-.5.7.1.6-.1.7.1.8-.7.2.6.6-.5h.3l.6,1.1.5.1-.3.9.6.3-.6.8.2.4h1.1l.2.5.6-.4-.3-1.2.6-.2v-.7l-.3-.2-.9.1-.3-.3.2-.7-.5-.2-1-.2.3-.9h.3l.6-.5.2-.5.5-.4-.2-.4-1,.4-.1-.6.8-.1.3-1h2l1,.4.3-.6-.5-1.6.2-.9-.5-.7-.7.3-.3-.1-.1-.9-.4-.3-.9-.3-.4.4-.1.6.4,1h.3l.4,1.6-.9.3-.2-.7-.5-.4.1-1.1-2.2-.2v-1.5l-.6.1-.4.3-1.3.1-1.2-.7-.6.2-.1.8-.4.4-.1.7.2.2-.2,1-.4.3h-.5l-.7-.8-.5-.1-.8.3-.5-.2-.9.1-.4-.1-.3-1,.5-.2v-.7l-1.2-.4-.6-.9.1-1.1.4-.1.5-.5.7.3.1-1.2h.4l.4-1-1.8-.1-.7.3-.5-.1-.5-1-1.2-.5-.4-.7-.2-.7-.5-.5.3-2.2.7-1.7-.5-1.3,1.5-.2.2-1.2.2-.3.1-.7-.2-.7.4-.1.2-1.3-.1-.7-.6.1-.4.2-.3-.3h-.5l-.9-.2-.2-.4.7-.9-.3-1.1v-.3l.7-.7.6.4.5.1.6.4.5.8h1l1,.2.4.3,1-.5h1.2l-.1.7,1,.2.1-.7.7-.2.5-1.1v-.7l.6-.4.1-.7-.5-.1.1-.4h.6l.1-.5-.1-.7-.5-.7-.6-.1.6-.9h.7l-.5-.5v-.5l-.9-.1-.2-1-1.1.2-.1-.5-.7-.6.1-.7-.4-.5v-1l-.6-.4-.3-.5-.7-.7.1-.4.6.2h.9v-.8l-.1-1.4.1-.6v-.9l1.1-.3.4-.4.9.8.3-1-.7-.5-.7-.4.2-.5-.2-.3-.8-.1v-.8l.4-.8.1-1.2-1-.1.1-.8,1.2-1.6.8-.4.7-.2.4-.3,1-.2,1.5-.1.4-.2.9.3,1.9.1.6.3h.9l.5-.2,1.1.4,1.2.2h0Z"/>
    </g>
  </g>
</svg>