<svg width="1594" height="67" viewBox="0 0 1594 67" fill="none" xmlns="http://www.w3.org/2000/svg">
<path d="M0.000100041 65.4067L24.6195 1.1023H42.9003L67.5198 65.4067H49.5145L45.7481 55.118H21.7717L18.0053 65.4067H0.000100041ZM27.2836 40.1443H40.2363L33.8059 22.3228L27.2836 40.1443ZM73.6768 65.4067V1.1023H95.1728C102.216 1.1023 108.432 2.48025 113.821 5.23616C119.272 7.99206 123.528 11.7891 126.59 16.6272C129.652 21.4041 131.183 26.9466 131.183 33.2545C131.183 39.5012 129.652 45.0437 126.59 49.8818C123.528 54.72 119.272 58.517 113.821 61.2729C108.432 64.0288 102.216 65.4067 95.1728 65.4067H73.6768ZM90.6715 49.3306H95.1728C97.8675 49.3306 100.348 48.9326 102.614 48.1364C104.88 47.3403 106.839 46.2379 108.493 44.8293C110.147 43.4207 111.433 41.7366 112.351 39.7768C113.27 37.8171 113.729 35.643 113.729 33.2545C113.729 30.8661 113.27 28.692 112.351 26.7322C111.433 24.7725 110.147 23.0883 108.493 21.6797C106.839 20.2711 104.88 19.1688 102.614 18.3726C100.348 17.5765 97.8675 17.1784 95.1728 17.1784H90.6715V49.3306ZM156.047 65.4067L131.336 1.1023H149.709L165.234 44.8293L180.575 1.1023H198.948L174.42 65.4067H156.047ZM205.103 65.4067V1.1023H248.187V16.7191H222.097V25.6298H243.226V40.7873H222.097V49.7899H248.83V65.4067H205.103ZM258.929 65.4067V1.1023H285.569C290.407 1.1023 294.694 2.05155 298.43 3.95007C302.166 5.78734 305.075 8.35951 307.157 11.6666C309.301 14.9124 310.372 18.6788 310.372 22.9658C310.372 27.1915 309.331 30.9579 307.249 34.265C305.167 37.5721 302.35 40.1443 298.798 41.9815L312.945 65.4067H293.469L281.895 45.013C281.527 45.013 281.16 45.013 280.792 45.013C280.425 45.013 280.057 45.013 279.69 45.013H275.924V65.4067H258.929ZM275.924 29.3963H284.651C286.182 29.3963 287.529 29.1207 288.693 28.5695C289.856 28.0183 290.775 27.2528 291.448 26.2729C292.122 25.293 292.459 24.1907 292.459 22.9658C292.459 21.1285 291.724 19.6281 290.254 18.4645C288.846 17.2397 286.978 16.6272 284.651 16.6272H275.924V29.3963ZM332.287 65.4067V16.7191H314.098V1.1023H367.379V16.7191H349.282V65.4067H332.287ZM374.476 65.4067V1.1023H391.471V65.4067H374.476ZM424.972 66.5091C421.971 66.5091 419.032 66.111 416.153 65.3149C413.275 64.4575 410.641 63.2939 408.253 61.8241C405.926 60.3542 403.997 58.7007 402.465 56.8634C400.934 54.9649 400.016 52.9745 399.71 50.8923L416.612 46.2073C417.164 47.7383 418.113 49.055 419.46 50.1574C420.808 51.1985 422.553 51.7803 424.696 51.9028C426.411 51.964 427.912 51.5047 429.198 50.5249C430.545 49.545 431.219 48.2589 431.219 46.6666C431.219 45.6255 430.821 44.6456 430.025 43.727C429.29 42.7471 428.095 42.0428 426.442 41.6141L416.796 39.1338C413.489 38.2764 410.641 36.9597 408.253 35.1837C405.926 33.4076 404.119 31.2335 402.833 28.6613C401.608 26.0892 400.996 23.2108 400.996 20.0262C400.996 13.7182 403.078 8.81883 407.242 5.32802C411.468 1.77597 417.378 -6.0343e-05 424.972 -6.0343e-05C429.014 -6.0343e-05 432.566 0.520498 435.628 1.56162C438.752 2.60274 441.416 4.25628 443.62 6.52224C445.886 8.72697 447.754 11.636 449.224 15.2493L432.413 20.118C432.107 18.8932 431.311 17.6683 430.025 16.4435C428.8 15.2187 427.116 14.6062 424.972 14.6062C422.89 14.6062 421.267 15.0655 420.103 15.9842C419.001 16.9028 418.45 18.2502 418.45 20.0262C418.45 21.1285 418.909 22.1084 419.828 22.9658C420.746 23.762 422.063 24.3744 423.778 24.8031L433.515 27.2834C438.415 28.5082 442.242 30.9273 444.998 34.5406C447.754 38.0927 449.132 42.1653 449.132 46.7585C449.132 50.9842 448.152 54.5668 446.193 57.5065C444.294 60.4461 441.538 62.6815 437.925 64.2125C434.311 65.7436 429.994 66.5091 424.972 66.5091ZM457.548 65.4067V1.1023H474.542V65.4067H457.548ZM485.537 65.4067V1.1023H503.451L528.529 36.4697V1.1023H545.524V65.4067H528.529L502.532 28.7532V65.4067H485.537ZM587.179 66.5091C580.564 66.5091 574.716 65.1005 569.633 62.2834C564.549 59.405 560.569 55.4855 557.69 50.5249C554.812 45.503 553.373 39.7462 553.373 33.2545C553.373 26.7628 554.812 21.0367 557.69 16.076C560.569 11.0542 564.549 7.13467 569.633 4.31752C574.716 1.43913 580.564 -6.0343e-05 587.179 -6.0343e-05C591.527 -6.0343e-05 595.354 0.612362 598.661 1.83721C602.03 3.06205 604.939 4.74622 607.388 6.8897C609.838 8.97194 611.92 11.391 613.635 14.1469L599.488 22.5065C598.631 21.1592 597.528 19.9649 596.181 18.9238C594.895 17.8827 593.456 17.0865 591.864 16.5354C590.333 15.9229 588.771 15.6167 587.179 15.6167C583.994 15.6167 581.177 16.3823 578.727 17.9133C576.277 19.3831 574.348 21.4348 572.94 24.0682C571.531 26.7016 570.827 29.7637 570.827 33.2545C570.827 36.6841 571.5 39.7462 572.848 42.4409C574.195 45.1355 576.124 47.2484 578.635 48.7794C581.207 50.3105 584.208 51.076 587.638 51.076C589.843 51.076 591.833 50.7086 593.609 49.9737C595.385 49.2388 596.824 48.2283 597.927 46.9422C599.09 45.5948 599.825 44.0332 600.131 42.2571H585.984V29.3963H616.483V38.8582C616.299 45.0437 614.921 50.188 612.349 54.2913C609.777 58.3945 606.317 61.4566 601.969 63.4776C597.682 65.4986 592.752 66.5091 587.179 66.5091ZM644.504 65.4067V1.1023H661.499V65.4067H644.504ZM672.494 65.4067V1.1023H690.407L715.486 36.4697V1.1023H732.481V65.4067H715.486L689.489 28.7532V65.4067H672.494ZM757.783 65.4067V16.7191H739.594V1.1023H792.875V16.7191H774.778V65.4067H757.783ZM799.972 65.4067V1.1023H843.056V16.7191H816.967V25.6298H838.096V40.7873H816.967V49.7899H843.699V65.4067H799.972ZM853.799 65.4067V1.1023H880.439C885.277 1.1023 889.564 2.05155 893.3 3.95007C897.036 5.78734 899.945 8.35951 902.027 11.6666C904.17 14.9124 905.242 18.6788 905.242 22.9658C905.242 27.1915 904.201 30.9579 902.119 34.265C900.037 37.5721 897.219 40.1443 893.667 41.9815L907.814 65.4067H888.339L876.765 45.013C876.397 45.013 876.03 45.013 875.662 45.013C875.295 45.013 874.927 45.013 874.56 45.013H870.793V65.4067H853.799ZM870.793 29.3963H879.52C881.052 29.3963 882.399 29.1207 883.562 28.5695C884.726 28.0183 885.645 27.2528 886.318 26.2729C886.992 25.293 887.329 24.1907 887.329 22.9658C887.329 21.1285 886.594 19.6281 885.124 18.4645C883.716 17.2397 881.848 16.6272 879.52 16.6272H870.793V29.3963ZM914.712 65.4067V1.1023H941.352C946.191 1.1023 950.478 2.05155 954.213 3.95007C957.949 5.78734 960.858 8.35951 962.94 11.6666C965.084 14.9124 966.156 18.6788 966.156 22.9658C966.156 27.1915 965.114 30.9579 963.032 34.265C960.95 37.5721 958.133 40.1443 954.581 41.9815L968.728 65.4067H949.253L937.678 45.013C937.31 45.013 936.943 45.013 936.576 45.013C936.208 45.013 935.841 45.013 935.473 45.013H931.707V65.4067H914.712ZM931.707 29.3963H940.434C941.965 29.3963 943.312 29.1207 944.476 28.5695C945.639 28.0183 946.558 27.2528 947.232 26.2729C947.905 25.293 948.242 24.1907 948.242 22.9658C948.242 21.1285 947.507 19.6281 946.037 18.4645C944.629 17.2397 942.761 16.6272 940.434 16.6272H931.707V29.3963ZM1002.08 66.5091C996.387 66.5091 991.487 65.468 987.384 63.3857C983.281 61.3035 980.127 58.3333 977.922 54.475C975.779 50.5555 974.707 45.9011 974.707 40.5117V1.1023H991.702V40.5117C991.702 42.6552 992.13 44.4925 992.988 46.0235C993.845 47.5546 995.039 48.7182 996.57 49.5144C998.163 50.3105 1000.06 50.7086 1002.27 50.7086C1004.47 50.7086 1006.37 50.3105 1007.96 49.5144C1009.55 48.7182 1010.75 47.5546 1011.54 46.0235C1012.4 44.4925 1012.83 42.6552 1012.83 40.5117V1.1023H1029.82V40.5117C1029.82 45.9011 1028.72 50.5555 1026.52 54.475C1024.31 58.3333 1021.13 61.3035 1016.96 63.3857C1012.86 65.468 1007.9 66.5091 1002.08 66.5091ZM1039.95 65.4067V1.1023H1066.59C1071.43 1.1023 1075.71 2.05155 1079.45 3.95007C1083.18 5.84858 1086.09 8.482 1088.18 11.8503C1090.32 15.2187 1091.39 19.1075 1091.39 23.517C1091.39 27.9264 1090.32 31.8459 1088.18 35.2755C1086.09 38.6438 1083.18 41.3079 1079.45 43.2676C1075.71 45.1662 1071.43 46.1154 1066.59 46.1154H1056.94V65.4067H1039.95ZM1056.94 30.4986H1066.13C1068.46 30.4986 1070.32 29.8556 1071.73 28.5695C1073.2 27.2834 1073.94 25.5992 1073.94 23.517C1073.94 21.496 1073.2 19.8424 1071.73 18.5564C1070.32 17.2703 1068.46 16.6272 1066.13 16.6272H1056.94V30.4986ZM1111.6 65.4067V16.7191H1093.41V1.1023H1146.69V16.7191H1128.6V65.4067H1111.6ZM1176.3 66.5091C1173.3 66.5091 1170.36 66.111 1167.48 65.3149C1164.6 64.4575 1161.97 63.2939 1159.58 61.8241C1157.25 60.3542 1155.32 58.7007 1153.79 56.8634C1152.26 54.9649 1151.34 52.9745 1151.03 50.8923L1167.94 46.2073C1168.49 47.7383 1169.44 49.055 1170.79 50.1574C1172.13 51.1985 1173.88 51.7803 1176.02 51.9028C1177.74 51.964 1179.24 51.5047 1180.52 50.5249C1181.87 49.545 1182.54 48.2589 1182.54 46.6666C1182.54 45.6255 1182.15 44.6456 1181.35 43.727C1180.61 42.7471 1179.42 42.0428 1177.77 41.6141L1168.12 39.1338C1164.81 38.2764 1161.97 36.9597 1159.58 35.1837C1157.25 33.4076 1155.44 31.2335 1154.16 28.6613C1152.93 26.0892 1152.32 23.2108 1152.32 20.0262C1152.32 13.7182 1154.4 8.81883 1158.57 5.32802C1162.79 1.77597 1168.7 -6.0343e-05 1176.3 -6.0343e-05C1180.34 -6.0343e-05 1183.89 0.520498 1186.95 1.56162C1190.08 2.60274 1192.74 4.25628 1194.95 6.52224C1197.21 8.72697 1199.08 11.636 1200.55 15.2493L1183.74 20.118C1183.43 18.8932 1182.64 17.6683 1181.35 16.4435C1180.12 15.2187 1178.44 14.6062 1176.3 14.6062C1174.21 14.6062 1172.59 15.0655 1171.43 15.9842C1170.33 16.9028 1169.77 18.2502 1169.77 20.0262C1169.77 21.1285 1170.23 22.1084 1171.15 22.9658C1172.07 23.762 1173.39 24.3744 1175.1 24.8031L1184.84 27.2834C1189.74 28.5082 1193.57 30.9273 1196.32 34.5406C1199.08 38.0927 1200.46 42.1653 1200.46 46.7585C1200.46 50.9842 1199.48 54.5668 1197.52 57.5065C1195.62 60.4461 1192.86 62.6815 1189.25 64.2125C1185.64 65.7436 1181.32 66.5091 1176.3 66.5091ZM1230.04 65.4067V1.1023H1256.68C1261.52 1.1023 1265.81 2.05155 1269.55 3.95007C1273.28 5.84858 1276.19 8.482 1278.27 11.8503C1280.42 15.2187 1281.49 19.1075 1281.49 23.517C1281.49 27.9264 1280.42 31.8459 1278.27 35.2755C1276.19 38.6438 1273.28 41.3079 1269.55 43.2676C1265.81 45.1662 1261.52 46.1154 1256.68 46.1154H1247.04V65.4067H1230.04ZM1247.04 30.4986H1256.23C1258.55 30.4986 1260.42 29.8556 1261.83 28.5695C1263.3 27.2834 1264.03 25.5992 1264.03 23.517C1264.03 21.496 1263.3 19.8424 1261.83 18.5564C1260.42 17.2703 1258.55 16.6272 1256.23 16.6272H1247.04V30.4986ZM1287.46 65.4067V1.1023H1330.54V16.7191H1304.45V25.6298H1325.58V40.7873H1304.45V49.7899H1331.19V65.4067H1287.46ZM1372.52 66.5091C1365.78 66.5091 1359.81 65.1005 1354.61 62.2834C1349.46 59.405 1345.42 55.4855 1342.48 50.5249C1339.54 45.503 1338.07 39.7768 1338.07 33.3464C1338.07 26.8547 1339.54 21.1285 1342.48 16.1679C1345.42 11.146 1349.46 7.22653 1354.61 4.40938C1359.75 1.531 1365.66 0.091802 1372.33 0.091802C1379.07 0.091802 1385.01 1.531 1390.16 4.40938C1395.3 7.22653 1399.34 11.146 1402.28 16.1679C1405.22 21.1285 1406.69 26.8547 1406.69 33.3464C1406.69 39.7768 1405.22 45.503 1402.28 50.5249C1399.4 55.4855 1395.39 59.405 1390.25 62.2834C1385.1 65.1005 1379.19 66.5091 1372.52 66.5091ZM1372.52 50.8923C1375.83 50.8923 1378.73 50.1574 1381.25 48.6876C1383.76 47.1565 1385.72 45.0743 1387.13 42.4409C1388.53 39.8074 1389.24 36.776 1389.24 33.3464C1389.24 29.9168 1388.5 26.8853 1387.03 24.2519C1385.62 21.5572 1383.63 19.475 1381.06 18.0052C1378.55 16.4741 1375.64 15.7086 1372.33 15.7086C1369.09 15.7086 1366.18 16.4741 1363.61 18.0052C1361.1 19.475 1359.11 21.5572 1357.64 24.2519C1356.23 26.8853 1355.52 29.9168 1355.52 33.3464C1355.52 36.776 1356.26 39.8074 1357.73 42.4409C1359.2 45.0743 1361.19 47.1565 1363.7 48.6876C1366.27 50.1574 1369.21 50.8923 1372.52 50.8923ZM1414.49 65.4067V1.1023H1441.13C1445.97 1.1023 1450.25 2.05155 1453.99 3.95007C1457.73 5.84858 1460.63 8.482 1462.72 11.8503C1464.86 15.2187 1465.93 19.1075 1465.93 23.517C1465.93 27.9264 1464.86 31.8459 1462.72 35.2755C1460.63 38.6438 1457.73 41.3079 1453.99 43.2676C1450.25 45.1662 1445.97 46.1154 1441.13 46.1154H1431.48V65.4067H1414.49ZM1431.48 30.4986H1440.67C1443 30.4986 1444.87 29.8556 1446.27 28.5695C1447.74 27.2834 1448.48 25.5992 1448.48 23.517C1448.48 21.496 1447.74 19.8424 1446.27 18.5564C1444.87 17.2703 1443 16.6272 1440.67 16.6272H1431.48V30.4986ZM1471.9 65.4067V1.1023H1488.9V49.7899H1515.35V65.4067H1471.9ZM1522.68 65.4067V1.1023H1565.76V16.7191H1539.67V25.6298H1560.8V40.7873H1539.67V49.7899H1566.41V65.4067H1522.68ZM1584.13 66.7847C1581.56 66.7847 1579.32 65.8661 1577.42 64.0288C1575.59 62.1303 1574.67 59.8949 1574.67 57.3228C1574.67 54.7506 1575.59 52.5459 1577.42 50.7086C1579.32 48.8101 1581.56 47.8608 1584.13 47.8608C1586.7 47.8608 1588.91 48.8101 1590.74 50.7086C1592.64 52.5459 1593.59 54.7506 1593.59 57.3228C1593.59 59.8949 1592.64 62.1303 1590.74 64.0288C1588.91 65.8661 1586.7 66.7847 1584.13 66.7847Z" fill="white"/>
</svg>
