<svg width="1372" height="67" viewBox="0 0 1372 67" fill="none" xmlns="http://www.w3.org/2000/svg">
<path d="M32.887 66.5091C26.4566 66.5091 20.761 65.1005 15.8004 62.2834C10.901 59.405 7.04276 55.4855 4.22562 50.5249C1.40847 45.503 -0.00010487 39.7462 -0.00010487 33.2545C-0.00010487 26.7628 1.40847 21.0367 4.22562 16.076C7.04276 11.0542 10.901 7.13467 15.8004 4.31752C20.761 1.43913 26.4566 -6.0343e-05 32.887 -6.0343e-05C37.8477 -6.0343e-05 42.3183 0.857332 46.2991 2.57212C50.2798 4.2869 53.7094 6.67535 56.5878 9.73747C59.4662 12.7996 61.6709 16.3516 63.202 20.3936L47.034 25.538C46.1766 23.517 45.0742 21.7716 43.7269 20.3018C42.3796 18.7707 40.7873 17.6071 38.95 16.811C37.174 16.0148 35.153 15.6167 32.887 15.6167C29.8861 15.6167 27.2221 16.3823 24.8949 17.9133C22.5677 19.3831 20.7304 21.4348 19.3831 24.0682C18.097 26.7016 17.454 29.7637 17.454 33.2545C17.454 36.6841 18.1276 39.7462 19.475 42.4409C20.8223 45.0743 22.6596 47.1565 24.9868 48.6876C27.3752 50.1574 30.1005 50.8923 33.1626 50.8923C35.5511 50.8923 37.6027 50.4942 39.3175 49.6981C41.0935 48.8407 42.5939 47.6771 43.8188 46.2073C45.1049 44.6762 46.2072 42.9002 47.1259 40.8792L63.2938 46.0235C61.824 50.0655 59.6499 53.6482 56.7715 56.7716C53.8931 59.8337 50.4329 62.2221 46.391 63.9369C42.349 65.6517 37.8477 66.5091 32.887 66.5091ZM96.5958 66.5091C90.9002 66.5091 86.0009 65.468 81.8976 63.3857C77.7944 61.3035 74.6404 58.3333 72.4357 54.475C70.2922 50.5555 69.2205 45.9011 69.2205 40.5117V1.1023H86.2152V40.5117C86.2152 42.6552 86.6439 44.4925 87.5013 46.0235C88.3587 47.5546 89.5529 48.7182 91.084 49.5144C92.6763 50.3105 94.5748 50.7086 96.7795 50.7086C98.9842 50.7086 100.883 50.3105 102.475 49.5144C104.067 48.7182 105.262 47.5546 106.058 46.0235C106.915 44.4925 107.344 42.6552 107.344 40.5117V1.1023H124.339V40.5117C124.339 45.9011 123.236 50.5555 121.031 54.475C118.827 58.3333 115.642 61.3035 111.478 63.3857C107.374 65.468 102.414 66.5091 96.5958 66.5091ZM134.461 65.4067V1.1023H151.456V49.7899H177.913V65.4067H134.461ZM190.236 65.4067V16.7191H172.047V1.1023H225.328V16.7191H207.231V65.4067H190.236ZM258.882 66.5091C253.186 66.5091 248.287 65.468 244.184 63.3857C240.081 61.3035 236.927 58.3333 234.722 54.475C232.578 50.5555 231.507 45.9011 231.507 40.5117V1.1023H248.501V40.5117C248.501 42.6552 248.93 44.4925 249.787 46.0235C250.645 47.5546 251.839 48.7182 253.37 49.5144C254.962 50.3105 256.861 50.7086 259.066 50.7086C261.27 50.7086 263.169 50.3105 264.761 49.5144C266.354 48.7182 267.548 47.5546 268.344 46.0235C269.201 44.4925 269.63 42.6552 269.63 40.5117V1.1023H286.625V40.5117C286.625 45.9011 285.522 50.5555 283.318 54.475C281.113 58.3333 277.928 61.3035 273.764 63.3857C269.661 65.468 264.7 66.5091 258.882 66.5091ZM296.748 65.4067V1.1023H323.388C328.226 1.1023 332.513 2.05155 336.249 3.95007C339.985 5.78734 342.894 8.35951 344.976 11.6666C347.119 14.9124 348.191 18.6788 348.191 22.9658C348.191 27.1915 347.15 30.9579 345.068 34.265C342.986 37.5721 340.168 40.1443 336.616 41.9815L350.763 65.4067H331.288L319.714 45.013C319.346 45.013 318.979 45.013 318.611 45.013C318.244 45.013 317.876 45.013 317.509 45.013H313.742V65.4067H296.748ZM313.742 29.3963H322.469C324 29.3963 325.348 29.1207 326.511 28.5695C327.675 28.0183 328.594 27.2528 329.267 26.2729C329.941 25.293 330.278 24.1907 330.278 22.9658C330.278 21.1285 329.543 19.6281 328.073 18.4645C326.665 17.2397 324.797 16.6272 322.469 16.6272H313.742V29.3963ZM357.661 65.4067V1.1023H400.745V16.7191H374.656V25.6298H395.784V40.7873H374.656V49.7899H401.388V65.4067H357.661ZM455.165 66.5091C452.165 66.5091 449.225 66.111 446.347 65.3149C443.468 64.4575 440.835 63.2939 438.446 61.8241C436.119 60.3542 434.19 58.7007 432.659 56.8634C431.128 54.9649 430.209 52.9745 429.903 50.8923L446.806 46.2073C447.357 47.7383 448.306 49.055 449.654 50.1574C451.001 51.1985 452.746 51.7803 454.89 51.9028C456.605 51.964 458.105 51.5047 459.391 50.5249C460.739 49.545 461.412 48.2589 461.412 46.6666C461.412 45.6255 461.014 44.6456 460.218 43.727C459.483 42.7471 458.289 42.0428 456.635 41.6141L446.99 39.1338C443.683 38.2764 440.835 36.9597 438.446 35.1837C436.119 33.4076 434.312 31.2335 433.026 28.6613C431.802 26.0892 431.189 23.2108 431.189 20.0262C431.189 13.7182 433.271 8.81883 437.436 5.32802C441.662 1.77597 447.571 -6.0343e-05 455.165 -6.0343e-05C459.207 -6.0343e-05 462.76 0.520498 465.822 1.56162C468.945 2.60274 471.609 4.25628 473.814 6.52224C476.08 8.72697 477.948 11.636 479.417 15.2493L462.606 20.118C462.3 18.8932 461.504 17.6683 460.218 16.4435C458.993 15.2187 457.309 14.6062 455.165 14.6062C453.083 14.6062 451.46 15.0655 450.297 15.9842C449.194 16.9028 448.643 18.2502 448.643 20.0262C448.643 21.1285 449.102 22.1084 450.021 22.9658C450.94 23.762 452.256 24.3744 453.971 24.8031L463.709 27.2834C468.608 28.5082 472.436 30.9273 475.192 34.5406C477.948 38.0927 479.326 42.1653 479.326 46.7585C479.326 50.9842 478.346 54.5668 476.386 57.5065C474.487 60.4461 471.732 62.6815 468.118 64.2125C464.505 65.7436 460.187 66.5091 455.165 66.5091ZM501.98 65.4067V16.7191H483.791V1.1023H537.072V16.7191H518.975V65.4067H501.98ZM533.738 65.4067L558.358 1.1023H576.638L601.258 65.4067H583.253L579.486 55.118H555.51L551.743 65.4067H533.738ZM561.022 40.1443H573.974L567.544 22.3228L561.022 40.1443ZM619.488 65.4067V38.1233L596.89 1.1023H616.181L627.94 21.2204L639.698 1.1023H658.99L636.483 38.0314V65.4067H619.488ZM687.426 66.5091C684.425 66.5091 681.485 66.111 678.607 65.3149C675.728 64.4575 673.095 63.2939 670.707 61.8241C668.379 60.3542 666.45 58.7007 664.919 56.8634C663.388 54.9649 662.47 52.9745 662.163 50.8923L679.066 46.2073C679.617 47.7383 680.567 49.055 681.914 50.1574C683.261 51.1985 685.007 51.7803 687.15 51.9028C688.865 51.964 690.365 51.5047 691.651 50.5249C692.999 49.545 693.672 48.2589 693.672 46.6666C693.672 45.6255 693.274 44.6456 692.478 43.727C691.743 42.7471 690.549 42.0428 688.896 41.6141L679.25 39.1338C675.943 38.2764 673.095 36.9597 670.707 35.1837C668.379 33.4076 666.573 31.2335 665.287 28.6613C664.062 26.0892 663.449 23.2108 663.449 20.0262C663.449 13.7182 665.532 8.81883 669.696 5.32802C673.922 1.77597 679.832 -6.0343e-05 687.426 -6.0343e-05C691.468 -6.0343e-05 695.02 0.520498 698.082 1.56162C701.205 2.60274 703.869 4.25628 706.074 6.52224C708.34 8.72697 710.208 11.636 711.678 15.2493L694.867 20.118C694.561 18.8932 693.764 17.6683 692.478 16.4435C691.253 15.2187 689.569 14.6062 687.426 14.6062C685.344 14.6062 683.721 15.0655 682.557 15.9842C681.455 16.9028 680.903 18.2502 680.903 20.0262C680.903 21.1285 681.363 22.1084 682.281 22.9658C683.2 23.762 684.517 24.3744 686.232 24.8031L695.969 27.2834C700.868 28.5082 704.696 30.9273 707.452 34.5406C710.208 38.0927 711.586 42.1653 711.586 46.7585C711.586 50.9842 710.606 54.5668 708.646 57.5065C706.748 60.4461 703.992 62.6815 700.379 64.2125C696.765 65.7436 692.448 66.5091 687.426 66.5091ZM754.769 65.4067L736.304 1.1023H753.667L763.863 39.2256L773.509 1.1023H790.412L800.333 38.2151L810.254 1.1023H827.617L809.152 65.4067H791.514L781.961 27.3753L772.407 65.4067H754.769ZM833.754 65.4067V1.1023H850.749V65.4067H833.754ZM875.983 65.4067V16.7191H857.794V1.1023H911.075V16.7191H892.978V65.4067H875.983ZM918.172 65.4067V1.01044H935.167V24.8949H958.867V1.1023H975.862V65.4067H958.867V40.5117H935.167V65.4067H918.172ZM1008.06 65.4067V1.1023H1034.7C1039.54 1.1023 1043.83 2.05155 1047.56 3.95007C1051.3 5.84858 1054.21 8.482 1056.29 11.8503C1058.43 15.2187 1059.51 19.1075 1059.51 23.517C1059.51 27.9264 1058.43 31.8459 1056.29 35.2755C1054.21 38.6438 1051.3 41.3079 1047.56 43.2676C1043.83 45.1662 1039.54 46.1154 1034.7 46.1154H1025.06V65.4067H1008.06ZM1025.06 30.4986H1034.24C1036.57 30.4986 1038.44 29.8556 1039.85 28.5695C1041.32 27.2834 1042.05 25.5992 1042.05 23.517C1042.05 21.496 1041.32 19.8424 1039.85 18.5564C1038.44 17.2703 1036.57 16.6272 1034.24 16.6272H1025.06V30.4986ZM1065.48 65.4067V1.1023H1108.56V16.7191H1082.47V25.6298H1103.6V40.7873H1082.47V49.7899H1109.2V65.4067H1065.48ZM1150.54 66.5091C1143.8 66.5091 1137.83 65.1005 1132.62 62.2834C1127.48 59.405 1123.44 55.4855 1120.5 50.5249C1117.56 45.503 1116.09 39.7768 1116.09 33.3464C1116.09 26.8547 1117.56 21.1285 1120.5 16.1679C1123.44 11.146 1127.48 7.22653 1132.62 4.40938C1137.77 1.531 1143.68 0.091802 1150.35 0.091802C1157.09 0.091802 1163.03 1.531 1168.17 4.40938C1173.32 7.22653 1177.36 11.146 1180.3 16.1679C1183.24 21.1285 1184.71 26.8547 1184.71 33.3464C1184.71 39.7768 1183.24 45.503 1180.3 50.5249C1177.42 55.4855 1173.41 59.405 1168.27 62.2834C1163.12 65.1005 1157.21 66.5091 1150.54 66.5091ZM1150.54 50.8923C1153.84 50.8923 1156.75 50.1574 1159.26 48.6876C1161.77 47.1565 1163.73 45.0743 1165.14 42.4409C1166.55 39.8074 1167.26 36.776 1167.26 33.3464C1167.26 29.9168 1166.52 26.8853 1165.05 24.2519C1163.64 21.5572 1161.65 19.475 1159.08 18.0052C1156.57 16.4741 1153.66 15.7086 1150.35 15.7086C1147.11 15.7086 1144.2 16.4741 1141.63 18.0052C1139.11 19.475 1137.12 21.5572 1135.65 24.2519C1134.25 26.8853 1133.54 29.9168 1133.54 33.3464C1133.54 36.776 1134.28 39.8074 1135.75 42.4409C1137.22 45.0743 1139.21 47.1565 1141.72 48.6876C1144.29 50.1574 1147.23 50.8923 1150.54 50.8923ZM1192.51 65.4067V1.1023H1219.15C1223.98 1.1023 1228.27 2.05155 1232.01 3.95007C1235.74 5.84858 1238.65 8.482 1240.73 11.8503C1242.88 15.2187 1243.95 19.1075 1243.95 23.517C1243.95 27.9264 1242.88 31.8459 1240.73 35.2755C1238.65 38.6438 1235.74 41.3079 1232.01 43.2676C1228.27 45.1662 1223.98 46.1154 1219.15 46.1154H1209.5V65.4067H1192.51ZM1209.5 30.4986H1218.69C1221.01 30.4986 1222.88 29.8556 1224.29 28.5695C1225.76 27.2834 1226.5 25.5992 1226.5 23.517C1226.5 21.496 1225.76 19.8424 1224.29 18.5564C1222.88 17.2703 1221.01 16.6272 1218.69 16.6272H1209.5V30.4986ZM1249.92 65.4067V1.1023H1266.92V49.7899H1293.37V65.4067H1249.92ZM1300.7 65.4067V1.1023H1343.78V16.7191H1317.69V25.6298H1338.82V40.7873H1317.69V49.7899H1344.42V65.4067H1300.7ZM1362.15 66.7847C1359.58 66.7847 1357.34 65.8661 1355.44 64.0288C1353.6 62.1303 1352.69 59.8949 1352.69 57.3228C1352.69 54.7506 1353.6 52.5459 1355.44 50.7086C1357.34 48.8101 1359.58 47.8608 1362.15 47.8608C1364.72 47.8608 1366.92 48.8101 1368.76 50.7086C1370.66 52.5459 1371.61 54.7506 1371.61 57.3228C1371.61 59.8949 1370.66 62.1303 1368.76 64.0288C1366.92 65.8661 1364.72 66.7847 1362.15 66.7847Z" fill="white"/>
</svg>
