<svg width="1096" height="43" viewBox="0 0 1096 43" fill="none" xmlns="http://www.w3.org/2000/svg">
<path d="M-4.28408e-05 41.5278V0.927829H12.818C15.602 0.927829 17.98 1.35316 19.952 2.20383C21.924 3.0545 23.4513 4.31116 24.534 5.97383C25.6166 7.59783 26.158 9.58916 26.158 11.9478C26.158 13.9198 25.7133 15.6598 24.824 17.1678C23.9346 18.6372 22.678 19.8358 21.054 20.7638C23.0646 21.7305 24.6113 23.0258 25.694 24.6498C26.8153 26.2738 27.376 28.2072 27.376 30.4498C27.376 32.8085 26.854 34.8192 25.81 36.4818C24.766 38.1058 23.2773 39.3625 21.344 40.2518C19.4493 41.1025 17.168 41.5278 14.5 41.5278H-4.28408e-05ZM4.87196 37.1198H14.268C16.82 37.1198 18.8113 36.5205 20.242 35.3218C21.7113 34.0845 22.446 32.4025 22.446 30.2758C22.446 27.9945 21.6146 26.2158 19.952 24.9398C18.2893 23.6252 15.9693 22.9678 12.992 22.9678H4.87196V37.1198ZM4.87196 18.7338H14.036C16.2786 18.7338 18.038 18.1345 19.314 16.9358C20.59 15.7372 21.228 14.0745 21.228 11.9478C21.228 9.74383 20.474 8.06183 18.966 6.90183C17.4966 5.70316 15.4086 5.10383 12.702 5.10383H4.87196V18.7338ZM34.123 41.5278V12.5278H38.763V17.6898C39.923 15.8725 41.4117 14.5385 43.229 13.6878C45.085 12.8372 47.0183 12.4118 49.029 12.4118V16.7618C47.3277 16.7618 45.6843 17.0518 44.099 17.6318C42.5523 18.1732 41.2763 19.0818 40.271 20.3578C39.2657 21.6338 38.763 23.3738 38.763 25.5778V41.5278H34.123ZM62.8846 42.2238C59.482 42.2238 56.814 41.4505 54.8806 39.9038C52.986 38.3185 52.0386 36.1338 52.0386 33.3498C52.0386 30.4112 53.0053 28.1685 54.9386 26.6218C56.9106 25.0365 59.656 24.2438 63.1746 24.2438H71.2366C71.0433 21.4985 70.3666 19.4492 69.2066 18.0958C68.0466 16.7038 66.3066 16.0078 63.9866 16.0078C62.4013 16.0078 61.0286 16.3365 59.8686 16.9938C58.7473 17.6125 57.8193 18.6178 57.0846 20.0098L52.9086 18.3858C53.6433 17.0325 54.5326 15.8725 55.5766 14.9058C56.6206 13.9005 57.8386 13.1465 59.2306 12.6438C60.6226 12.1025 62.208 11.8318 63.9866 11.8318C66.6933 11.8318 68.9166 12.3732 70.6566 13.4558C72.4353 14.4998 73.7693 16.0658 74.6586 18.1538C75.548 20.2032 75.9733 22.7552 75.9346 25.8098L75.8766 41.5278H71.5846L71.3526 37.6418C70.502 39.1112 69.3613 40.2518 67.9306 41.0638C66.5 41.8372 64.818 42.2238 62.8846 42.2238ZM63.1166 38.1638C64.7793 38.1638 66.2293 37.8158 67.4666 37.1198C68.704 36.3852 69.6513 35.3605 70.3086 34.0458C71.0046 32.7312 71.3526 31.1458 71.3526 29.2898V28.1298H64.2186C61.512 28.1298 59.5786 28.5745 58.4186 29.4638C57.2973 30.3532 56.7366 31.6292 56.7366 33.2918C56.7366 34.7998 57.2973 35.9985 58.4186 36.8878C59.54 37.7385 61.106 38.1638 63.1166 38.1638ZM83.2871 41.5278V12.5278H87.6371L87.8691 16.8778C88.8357 15.2538 90.0924 14.0165 91.6391 13.1658C93.1857 12.2765 94.9837 11.8318 97.0331 11.8318C99.3144 11.8318 101.286 12.2958 102.949 13.2238C104.65 14.1132 105.965 15.5438 106.893 17.5158C107.86 19.4878 108.324 22.0785 108.285 25.2878V41.5278H103.645V26.6798C103.645 23.8185 103.316 21.6338 102.659 20.1258C102.002 18.6178 101.093 17.5932 99.9331 17.0518C98.7731 16.4718 97.4584 16.1818 95.9891 16.1818C93.4371 16.1818 91.4457 17.0905 90.0151 18.9078C88.6231 20.6865 87.9271 23.2192 87.9271 26.5058V41.5278H83.2871ZM127.055 42.2238C124.464 42.2238 122.183 41.5858 120.211 40.3098C118.239 39.0338 116.692 37.2552 115.571 34.9738C114.488 32.6538 113.947 30.0052 113.947 27.0278C113.947 24.0118 114.488 21.3632 115.571 19.0818C116.692 16.8005 118.239 15.0218 120.211 13.7458C122.183 12.4698 124.464 11.8318 127.055 11.8318C129.182 11.8318 131.076 12.3345 132.739 13.3398C134.44 14.3065 135.813 15.6598 136.857 17.3998V0.927829H141.497V41.5278H137.089L136.857 36.5978C135.813 38.3378 134.44 39.7105 132.739 40.7158C131.076 41.7212 129.182 42.2238 127.055 42.2238ZM128.099 37.9898C129.8 37.9898 131.289 37.5452 132.565 36.6558C133.88 35.7278 134.904 34.4518 135.639 32.8278C136.412 31.1652 136.818 29.3092 136.857 27.2598V26.8538C136.818 24.7658 136.412 22.9098 135.639 21.2858C134.904 19.6232 133.88 18.3472 132.565 17.4578C131.25 16.5298 129.742 16.0658 128.041 16.0658C126.224 16.0658 124.6 16.5298 123.169 17.4578C121.738 18.3858 120.617 19.6812 119.805 21.3438C119.032 23.0065 118.645 24.9012 118.645 27.0278C118.645 29.1545 119.051 31.0492 119.863 32.7118C120.675 34.3745 121.796 35.6698 123.227 36.5978C124.658 37.5258 126.282 37.9898 128.099 37.9898ZM159.763 42.2238C157.637 42.2238 155.781 41.9145 154.195 41.2958C152.61 40.6385 151.276 39.7878 150.193 38.7438C149.149 37.6998 148.395 36.5592 147.931 35.3218L151.991 33.6398C152.649 34.9545 153.635 36.0178 154.949 36.8298C156.264 37.6418 157.714 38.0478 159.299 38.0478C161.117 38.0478 162.644 37.6998 163.881 37.0038C165.119 36.2692 165.737 35.2445 165.737 33.9298C165.737 32.7312 165.273 31.7645 164.345 31.0298C163.456 30.2952 162.122 29.6958 160.343 29.2318L157.559 28.4778C154.93 27.7818 152.881 26.7378 151.411 25.3458C149.942 23.9152 149.207 22.3105 149.207 20.5318C149.207 17.7865 150.097 15.6598 151.875 14.1518C153.693 12.6052 156.38 11.8318 159.937 11.8318C161.639 11.8318 163.185 12.0832 164.577 12.5858C165.969 13.0885 167.168 13.8038 168.173 14.7318C169.179 15.6212 169.913 16.6845 170.377 17.9218L166.317 19.7198C165.815 18.4052 164.983 17.4578 163.823 16.8778C162.663 16.2978 161.252 16.0078 159.589 16.0078C157.811 16.0078 156.419 16.3945 155.413 17.1678C154.408 17.9025 153.905 18.9465 153.905 20.2998C153.905 21.0732 154.311 21.8078 155.123 22.5038C155.974 23.1612 157.211 23.7025 158.835 24.1278L161.735 24.8818C163.63 25.3458 165.215 26.0418 166.491 26.9698C167.767 27.8592 168.734 28.8838 169.391 30.0438C170.049 31.2038 170.377 32.4412 170.377 33.7558C170.377 35.4958 169.913 37.0038 168.985 38.2798C168.057 39.5558 166.801 40.5418 165.215 41.2378C163.63 41.8952 161.813 42.2238 159.763 42.2238ZM190.961 41.5278V12.5278H195.601V17.6898C196.761 15.8725 198.25 14.5385 200.067 13.6878C201.923 12.8372 203.856 12.4118 205.867 12.4118V16.7618C204.166 16.7618 202.522 17.0518 200.937 17.6318C199.39 18.1732 198.114 19.0818 197.109 20.3578C196.104 21.6338 195.601 23.3738 195.601 25.5778V41.5278H190.961ZM223.261 42.2238C220.438 42.2238 217.944 41.5858 215.779 40.3098C213.613 38.9952 211.912 37.1972 210.675 34.9158C209.476 32.6345 208.877 30.0052 208.877 27.0278C208.877 24.0505 209.476 21.4212 210.675 19.1398C211.912 16.8585 213.594 15.0798 215.721 13.8038C217.886 12.4892 220.361 11.8318 223.145 11.8318C225.851 11.8318 228.191 12.5085 230.163 13.8618C232.135 15.1765 233.662 17.0325 234.745 19.4298C235.827 21.8272 236.369 24.6498 236.369 27.8978H213.575C213.768 31.0685 214.773 33.5432 216.591 35.3218C218.408 37.1005 220.709 37.9898 223.493 37.9898C225.542 37.9898 227.263 37.5065 228.655 36.5398C230.085 35.5732 231.187 34.2972 231.961 32.7118L235.963 34.7418C235.228 36.2498 234.242 37.5645 233.005 38.6858C231.806 39.8072 230.375 40.6772 228.713 41.2958C227.089 41.9145 225.271 42.2238 223.261 42.2238ZM213.923 24.0118H231.381C231.265 22.3492 230.82 20.9185 230.047 19.7198C229.312 18.5212 228.345 17.5932 227.147 16.9358C225.948 16.2785 224.595 15.9498 223.087 15.9498C221.617 15.9498 220.206 16.2785 218.853 16.9358C217.499 17.5545 216.378 18.4825 215.489 19.7198C214.599 20.9185 214.077 22.3492 213.923 24.0118ZM242.221 41.5278V12.5278H246.571L246.803 16.8778C247.769 15.2538 249.026 14.0165 250.573 13.1658C252.119 12.2765 253.917 11.8318 255.967 11.8318C258.248 11.8318 260.22 12.2958 261.883 13.2238C263.584 14.1132 264.899 15.5438 265.827 17.5158C266.793 19.4878 267.257 22.0785 267.219 25.2878V41.5278H262.579V26.6798C262.579 23.8185 262.25 21.6338 261.593 20.1258C260.935 18.6178 260.027 17.5932 258.867 17.0518C257.707 16.4718 256.392 16.1818 254.923 16.1818C252.371 16.1818 250.379 17.0905 248.949 18.9078C247.557 20.6865 246.861 23.2192 246.861 26.5058V41.5278H242.221ZM285.466 42.2238C282.644 42.2238 280.459 41.4892 278.912 40.0198C277.366 38.5505 276.592 36.4818 276.592 33.8138V16.6458H271.546V12.5278H276.592V3.47983H281.232V12.5278H289.932V16.6458H281.232V33.3498C281.232 34.8192 281.619 35.9598 282.392 36.7718C283.204 37.5452 284.326 37.9318 285.756 37.9318C286.22 37.9318 286.665 37.8738 287.09 37.7578C287.554 37.6032 288.154 37.2552 288.888 36.7138L290.686 40.4838C289.681 41.1412 288.772 41.5858 287.96 41.8178C287.148 42.0885 286.317 42.2238 285.466 42.2238ZM319.976 42.2238C316.574 42.2238 313.906 41.4505 311.972 39.9038C310.078 38.3185 309.13 36.1338 309.13 33.3498C309.13 30.4112 310.097 28.1685 312.03 26.6218C314.002 25.0365 316.748 24.2438 320.266 24.2438H328.328C328.135 21.4985 327.458 19.4492 326.298 18.0958C325.138 16.7038 323.398 16.0078 321.078 16.0078C319.493 16.0078 318.12 16.3365 316.96 16.9938C315.839 17.6125 314.911 18.6178 314.176 20.0098L310 18.3858C310.735 17.0325 311.624 15.8725 312.668 14.9058C313.712 13.9005 314.93 13.1465 316.322 12.6438C317.714 12.1025 319.3 11.8318 321.078 11.8318C323.785 11.8318 326.008 12.3732 327.748 13.4558C329.527 14.4998 330.861 16.0658 331.75 18.1538C332.64 20.2032 333.065 22.7552 333.026 25.8098L332.968 41.5278H328.676L328.444 37.6418C327.594 39.1112 326.453 40.2518 325.022 41.0638C323.592 41.8372 321.91 42.2238 319.976 42.2238ZM320.208 38.1638C321.871 38.1638 323.321 37.8158 324.558 37.1198C325.796 36.3852 326.743 35.3605 327.4 34.0458C328.096 32.7312 328.444 31.1458 328.444 29.2898V28.1298H321.31C318.604 28.1298 316.67 28.5745 315.51 29.4638C314.389 30.3532 313.828 31.6292 313.828 33.2918C313.828 34.7998 314.389 35.9985 315.51 36.8878C316.632 37.7385 318.198 38.1638 320.208 38.1638ZM351.283 42.2238C348.46 42.2238 346.276 41.4892 344.729 40.0198C343.182 38.5505 342.409 36.4818 342.409 33.8138V16.6458H337.363V12.5278H342.409V3.47983H347.049V12.5278H355.749V16.6458H347.049V33.3498C347.049 34.8192 347.436 35.9598 348.209 36.7718C349.021 37.5452 350.142 37.9318 351.573 37.9318C352.037 37.9318 352.482 37.8738 352.907 37.7578C353.371 37.6032 353.97 37.2552 354.705 36.7138L356.503 40.4838C355.498 41.1412 354.589 41.5858 353.777 41.8178C352.965 42.0885 352.134 42.2238 351.283 42.2238ZM373.203 42.2238C370.38 42.2238 368.195 41.4892 366.649 40.0198C365.102 38.5505 364.329 36.4818 364.329 33.8138V16.6458H359.283V12.5278H364.329V3.47983H368.969V12.5278H377.669V16.6458H368.969V33.3498C368.969 34.8192 369.355 35.9598 370.129 36.7718C370.941 37.5452 372.062 37.9318 373.493 37.9318C373.957 37.9318 374.401 37.8738 374.827 37.7578C375.291 37.6032 375.89 37.2552 376.625 36.7138L378.423 40.4838C377.417 41.1412 376.509 41.5858 375.697 41.8178C374.885 42.0885 374.053 42.2238 373.203 42.2238ZM396.751 42.2238C393.928 42.2238 391.434 41.5858 389.269 40.3098C387.103 38.9952 385.402 37.1972 384.165 34.9158C382.966 32.6345 382.367 30.0052 382.367 27.0278C382.367 24.0505 382.966 21.4212 384.165 19.1398C385.402 16.8585 387.084 15.0798 389.211 13.8038C391.376 12.4892 393.851 11.8318 396.635 11.8318C399.341 11.8318 401.681 12.5085 403.653 13.8618C405.625 15.1765 407.152 17.0325 408.235 19.4298C409.317 21.8272 409.859 24.6498 409.859 27.8978H387.065C387.258 31.0685 388.263 33.5432 390.081 35.3218C391.898 37.1005 394.199 37.9898 396.983 37.9898C399.032 37.9898 400.753 37.5065 402.145 36.5398C403.575 35.5732 404.677 34.2972 405.451 32.7118L409.453 34.7418C408.718 36.2498 407.732 37.5645 406.495 38.6858C405.296 39.8072 403.865 40.6772 402.203 41.2958C400.579 41.9145 398.761 42.2238 396.751 42.2238ZM387.413 24.0118H404.871C404.755 22.3492 404.31 20.9185 403.537 19.7198C402.802 18.5212 401.835 17.5932 400.637 16.9358C399.438 16.2785 398.085 15.9498 396.577 15.9498C395.107 15.9498 393.696 16.2785 392.343 16.9358C390.989 17.5545 389.868 18.4825 388.979 19.7198C388.089 20.9185 387.567 22.3492 387.413 24.0118ZM415.711 41.5278V12.5278H420.061L420.293 16.8778C421.26 15.2538 422.516 14.0165 424.063 13.1658C425.61 12.2765 427.408 11.8318 429.457 11.8318C431.738 11.8318 433.71 12.2958 435.373 13.2238C437.074 14.1132 438.389 15.5438 439.317 17.5158C440.284 19.4878 440.748 22.0785 440.709 25.2878V41.5278H436.069V26.6798C436.069 23.8185 435.74 21.6338 435.083 20.1258C434.426 18.6178 433.517 17.5932 432.357 17.0518C431.197 16.4718 429.882 16.1818 428.413 16.1818C425.861 16.1818 423.87 17.0905 422.439 18.9078C421.047 20.6865 420.351 23.2192 420.351 26.5058V41.5278H415.711ZM458.957 42.2238C456.134 42.2238 453.949 41.4892 452.403 40.0198C450.856 38.5505 450.083 36.4818 450.083 33.8138V16.6458H445.037V12.5278H450.083V3.47983H454.723V12.5278H463.423V16.6458H454.723V33.3498C454.723 34.8192 455.109 35.9598 455.883 36.7718C456.695 37.5452 457.816 37.9318 459.247 37.9318C459.711 37.9318 460.155 37.8738 460.581 37.7578C461.045 37.6032 461.644 37.2552 462.379 36.7138L464.177 40.4838C463.171 41.1412 462.263 41.5858 461.451 41.8178C460.639 42.0885 459.807 42.2238 458.957 42.2238ZM470.263 41.5278V12.5278H474.903V41.5278H470.263ZM472.641 5.79983C471.867 5.79983 471.191 5.50983 470.611 4.92983C470.031 4.34983 469.741 3.67316 469.741 2.89983C469.741 2.08783 470.031 1.41116 470.611 0.86983C471.191 0.289831 471.867 -0.000169158 472.641 -0.000169158C473.453 -0.000169158 474.129 0.289831 474.671 0.86983C475.251 1.41116 475.541 2.08783 475.541 2.89983C475.541 3.67316 475.251 4.34983 474.671 4.92983C474.129 5.50983 473.453 5.79983 472.641 5.79983ZM496.271 42.2238C493.448 42.2238 490.935 41.5858 488.731 40.3098C486.566 38.9952 484.864 37.1972 483.627 34.9158C482.39 32.6345 481.771 30.0052 481.771 27.0278C481.771 24.0505 482.37 21.4212 483.569 19.1398C484.806 16.8585 486.508 15.0798 488.673 13.8038C490.877 12.4892 493.371 11.8318 496.155 11.8318C499.016 11.8318 501.53 12.4892 503.695 13.8038C505.899 15.0798 507.6 16.8585 508.799 19.1398C510.036 21.4212 510.655 24.0505 510.655 27.0278C510.655 30.0052 510.036 32.6345 508.799 34.9158C507.6 37.1972 505.918 38.9952 503.753 40.3098C501.588 41.5858 499.094 42.2238 496.271 42.2238ZM496.271 37.9318C498.204 37.9318 499.886 37.4678 501.317 36.5398C502.748 35.6118 503.869 34.3358 504.681 32.7118C505.532 31.0878 505.957 29.1932 505.957 27.0278C505.957 24.8625 505.532 22.9678 504.681 21.3438C503.869 19.7198 502.728 18.4438 501.259 17.5158C499.79 16.5878 498.088 16.1238 496.155 16.1238C494.26 16.1238 492.578 16.5878 491.109 17.5158C489.678 18.4438 488.538 19.7198 487.687 21.3438C486.875 22.9678 486.469 24.8625 486.469 27.0278C486.469 29.1545 486.875 31.0492 487.687 32.7118C488.538 34.3358 489.698 35.6118 491.167 36.5398C492.675 37.4678 494.376 37.9318 496.271 37.9318ZM517.098 41.5278V12.5278H521.448L521.68 16.8778C522.646 15.2538 523.903 14.0165 525.45 13.1658C526.996 12.2765 528.794 11.8318 530.844 11.8318C533.125 11.8318 535.097 12.2958 536.76 13.2238C538.461 14.1132 539.776 15.5438 540.704 17.5158C541.67 19.4878 542.134 22.0785 542.096 25.2878V41.5278H537.456V26.6798C537.456 23.8185 537.127 21.6338 536.47 20.1258C535.812 18.6178 534.904 17.5932 533.744 17.0518C532.584 16.4718 531.269 16.1818 529.8 16.1818C527.248 16.1818 525.256 17.0905 523.826 18.9078C522.434 20.6865 521.738 23.2192 521.738 26.5058V41.5278H517.098ZM551.411 42.3398C550.522 42.3398 549.749 42.0305 549.091 41.4118C548.473 40.7545 548.163 40.0005 548.163 39.1498C548.163 38.2605 548.473 37.5065 549.091 36.8878C549.749 36.2305 550.522 35.9018 551.411 35.9018C552.301 35.9018 553.055 36.2305 553.673 36.8878C554.292 37.5065 554.601 38.2605 554.601 39.1498C554.601 40.0005 554.292 40.7545 553.673 41.4118C553.055 42.0305 552.301 42.3398 551.411 42.3398Z" fill="white"/>
<path d="M594.162 42.2238C590.257 42.2238 586.777 41.3345 583.722 39.5558C580.706 37.7385 578.328 35.2638 576.588 32.1318C574.887 28.9612 574.036 25.3265 574.036 21.2278C574.036 17.1292 574.887 13.5138 576.588 10.3818C578.328 7.21116 580.706 4.7365 583.722 2.95783C586.738 1.1405 590.199 0.231831 594.104 0.231831C596.733 0.231831 599.208 0.715164 601.528 1.68183C603.848 2.60983 605.897 3.90516 607.676 5.56783C609.493 7.2305 610.885 9.16383 611.852 11.3678L605.704 13.8618C605.008 12.3925 604.061 11.0972 602.862 9.97583C601.702 8.81583 600.368 7.9265 598.86 7.30783C597.352 6.68916 595.767 6.37983 594.104 6.37983C591.552 6.37983 589.271 7.01783 587.26 8.29383C585.288 9.56983 583.722 11.3292 582.562 13.5718C581.441 15.7758 580.88 18.3278 580.88 21.2278C580.88 24.1278 581.441 26.6992 582.562 28.9418C583.722 31.1845 585.307 32.9438 587.318 34.2198C589.367 35.4958 591.687 36.1338 594.278 36.1338C595.979 36.1338 597.565 35.8052 599.034 35.1478C600.542 34.4518 601.876 33.5045 603.036 32.3058C604.235 31.1072 605.182 29.7152 605.878 28.1298L612.026 30.6238C611.059 32.9052 609.687 34.9352 607.908 36.7138C606.129 38.4538 604.061 39.8072 601.702 40.7738C599.343 41.7405 596.83 42.2238 594.162 42.2238ZM633.988 42.3398C630.779 42.3398 627.956 41.7018 625.52 40.4258C623.123 39.1112 621.247 37.2745 619.894 34.9158C618.579 32.5572 617.922 29.8118 617.922 26.6798V0.927829H624.65V26.6798C624.65 28.5745 625.037 30.2372 625.81 31.6678C626.622 33.0598 627.743 34.1618 629.174 34.9738C630.605 35.7472 632.248 36.1338 634.104 36.1338C635.999 36.1338 637.661 35.7472 639.092 34.9738C640.561 34.1618 641.683 33.0598 642.456 31.6678C643.229 30.2372 643.616 28.5745 643.616 26.6798V0.927829H650.344V26.6798C650.344 29.8118 649.667 32.5572 648.314 34.9158C646.999 37.2745 645.105 39.1112 642.63 40.4258C640.194 41.7018 637.313 42.3398 633.988 42.3398ZM659.397 41.5278V0.927829H666.125V35.3798H684.511V41.5278H659.397ZM693.748 41.5278V7.07583H681.278V0.927829H712.946V7.07583H700.476V41.5278H693.748ZM734.015 42.3398C730.806 42.3398 727.983 41.7018 725.547 40.4258C723.15 39.1112 721.275 37.2745 719.921 34.9158C718.607 32.5572 717.949 29.8118 717.949 26.6798V0.927829H724.677V26.6798C724.677 28.5745 725.064 30.2372 725.837 31.6678C726.649 33.0598 727.771 34.1618 729.201 34.9738C730.632 35.7472 732.275 36.1338 734.131 36.1338C736.026 36.1338 737.689 35.7472 739.119 34.9738C740.589 34.1618 741.71 33.0598 742.483 31.6678C743.257 30.2372 743.643 28.5745 743.643 26.6798V0.927829H750.371V26.6798C750.371 29.8118 749.695 32.5572 748.341 34.9158C747.027 37.2745 745.132 39.1112 742.657 40.4258C740.221 41.7018 737.341 42.3398 734.015 42.3398ZM759.424 41.5278V0.927829H773.75C776.534 0.927829 778.989 1.46916 781.116 2.55183C783.243 3.6345 784.905 5.1425 786.104 7.07583C787.303 8.9705 787.902 11.1745 787.902 13.6878C787.902 16.3558 787.167 18.7145 785.698 20.7638C784.229 22.7745 782.295 24.2632 779.898 25.2298L789.526 41.5278H781.928L773.228 26.5058C772.996 26.5445 772.745 26.5638 772.474 26.5638C772.242 26.5638 771.991 26.5638 771.72 26.5638H766.152V41.5278H759.424ZM766.152 20.3578H774.04C775.355 20.3578 776.515 20.0678 777.52 19.4878C778.564 18.9078 779.395 18.1152 780.014 17.1098C780.671 16.1045 781 14.9638 781 13.6878C781 11.7545 780.304 10.1692 778.912 8.93183C777.52 7.6945 775.722 7.07583 773.518 7.07583H766.152V20.3578ZM796.354 41.5278V0.927829H821.352V7.07583H803.082V17.8638H819.206V23.8958H803.082V35.3798H821.526V41.5278H796.354ZM862.593 42.2238C858.571 42.2238 855.014 41.3345 851.921 39.5558C848.827 37.7772 846.391 35.3025 844.613 32.1318C842.873 28.9612 842.003 25.3265 842.003 21.2278C842.003 17.1292 842.873 13.5138 844.613 10.3818C846.391 7.21116 848.808 4.7365 851.863 2.95783C854.917 1.1405 858.436 0.231831 862.419 0.231831C866.44 0.231831 869.978 1.1405 873.033 2.95783C876.126 4.7365 878.523 7.21116 880.225 10.3818C881.965 13.5138 882.835 17.1292 882.835 21.2278C882.835 25.3265 881.965 28.9612 880.225 32.1318C878.523 35.3025 876.145 37.7772 873.091 39.5558C870.075 41.3345 866.575 42.2238 862.593 42.2238ZM862.593 36.0758C865.222 36.0758 867.542 35.4378 869.553 34.1618C871.563 32.8858 873.129 31.1458 874.251 28.9418C875.411 26.6992 875.991 24.1278 875.991 21.2278C875.991 18.3665 875.411 15.8145 874.251 13.5718C873.091 11.3292 871.486 9.58916 869.437 8.35183C867.426 7.07583 865.087 6.43783 862.419 6.43783C859.789 6.43783 857.45 7.07583 855.401 8.35183C853.39 9.58916 851.785 11.3292 850.587 13.5718C849.427 15.7758 848.847 18.3278 848.847 21.2278C848.847 24.1278 849.427 26.6992 850.587 28.9418C851.785 31.1458 853.409 32.8858 855.459 34.1618C857.547 35.4378 859.925 36.0758 862.593 36.0758ZM896.904 41.5278L884.782 0.927829H891.568L900.558 31.2038L909.2 0.927829H915.87L924.454 30.9138L933.444 0.927829H940.288L927.992 41.5278H920.858L912.506 11.5998L904.038 41.5278H896.904ZM945.602 41.5278V0.927829H952.562L974.138 30.2758V0.927829H980.866V41.5278H974.138L952.33 11.8318V41.5278H945.602ZM1003.86 42.2238C1001.73 42.2238 999.778 41.9725 998 41.4698C996.26 40.9672 994.713 40.2712 993.36 39.3818C992.045 38.4925 990.943 37.5065 990.054 36.4238C989.203 35.3025 988.604 34.1425 988.256 32.9438L994.868 30.9138C995.37 32.3445 996.356 33.6012 997.826 34.6838C999.295 35.7665 1001.11 36.3272 1003.28 36.3658C1005.79 36.3658 1007.78 35.8438 1009.25 34.7998C1010.72 33.7558 1011.46 32.3832 1011.46 30.6818C1011.46 29.1352 1010.84 27.8785 1009.6 26.9118C1008.36 25.9065 1006.7 25.1332 1004.61 24.5918L999.624 23.3158C997.729 22.8132 996.008 22.0785 994.462 21.1118C992.954 20.1452 991.755 18.9272 990.866 17.4578C990.015 15.9885 989.59 14.2485 989.59 12.2378C989.59 8.4485 990.827 5.50983 993.302 3.42183C995.776 1.29516 999.314 0.231831 1003.92 0.231831C1006.51 0.231831 1008.77 0.637831 1010.7 1.44983C1012.67 2.22316 1014.3 3.30583 1015.57 4.69783C1016.85 6.05116 1017.8 7.59783 1018.42 9.33783L1011.92 11.4258C1011.34 9.87916 1010.33 8.60316 1008.9 7.59783C1007.47 6.5925 1005.69 6.08983 1003.57 6.08983C1001.36 6.08983 999.624 6.61183 998.348 7.65583C997.11 8.69983 996.492 10.1498 996.492 12.0058C996.492 13.5138 996.975 14.6932 997.942 15.5438C998.947 16.3558 1000.3 16.9745 1002 17.3998L1006.99 18.6178C1010.62 19.5072 1013.45 21.0345 1015.46 23.1998C1017.47 25.3652 1018.47 27.7625 1018.47 30.3918C1018.47 32.7118 1017.91 34.7612 1016.79 36.5398C1015.67 38.3185 1014.01 39.7105 1011.8 40.7158C1009.64 41.7212 1006.99 42.2238 1003.86 42.2238ZM1039.91 41.5278V0.927829H1046.64V41.5278H1039.91ZM1064.69 41.5278V7.07583H1052.22V0.927829H1083.89V7.07583H1071.42V41.5278H1064.69ZM1091.38 42.3398C1090.26 42.3398 1089.29 41.9532 1088.48 41.1798C1087.71 40.3678 1087.32 39.4012 1087.32 38.2798C1087.32 37.1585 1087.71 36.1918 1088.48 35.3798C1089.29 34.5678 1090.26 34.1618 1091.38 34.1618C1092.5 34.1618 1093.47 34.5678 1094.28 35.3798C1095.09 36.1918 1095.5 37.1585 1095.5 38.2798C1095.5 39.4012 1095.09 40.3678 1094.28 41.1798C1093.47 41.9532 1092.5 42.3398 1091.38 42.3398Z" fill="#FFC400"/>
</svg>
