<svg width="1019" height="215" viewBox="0 0 1019 215" fill="none" xmlns="http://www.w3.org/2000/svg">
<path d="M40.8777 65.4067V1.1023H83.9617V16.7191H57.8725V25.6298H79.0011V40.7873H57.8725V49.7899H84.6047V65.4067H40.8777ZM114.546 65.4067L89.8352 1.1023H108.208L123.733 44.8293L139.074 1.1023H157.447L132.919 65.4067H114.546ZM163.602 65.4067V1.1023H206.686V16.7191H180.596V25.6298H201.725V40.7873H180.596V49.7899H207.329V65.4067H163.602ZM217.428 65.4067V1.1023H244.068C248.906 1.1023 253.193 2.05155 256.929 3.95007C260.665 5.78734 263.574 8.35951 265.656 11.6666C267.8 14.9124 268.871 18.6788 268.871 22.9658C268.871 27.1915 267.83 30.9579 265.748 34.265C263.666 37.5721 260.849 40.1443 257.297 41.9815L271.444 65.4067H251.969L240.394 45.013C240.026 45.013 239.659 45.013 239.291 45.013C238.924 45.013 238.556 45.013 238.189 45.013H234.423V65.4067H217.428ZM234.423 29.3963H243.15C244.681 29.3963 246.028 29.1207 247.192 28.5695C248.355 28.0183 249.274 27.2528 249.948 26.2729C250.621 25.293 250.958 24.1907 250.958 22.9658C250.958 21.1285 250.223 19.6281 248.753 18.4645C247.345 17.2397 245.477 16.6272 243.15 16.6272H234.423V29.3963ZM295.887 65.4067V38.1233L273.289 1.1023H292.58L304.339 21.2204L316.097 1.1023H335.388L312.882 38.0314V65.4067H295.887ZM362.49 65.4067V1.1023H406.492V16.7191H379.484V26.0892H400.613V41.706H379.484V65.4067H362.49ZM414.342 65.4067V1.1023H431.337V65.4067H414.342ZM442.332 65.4067V1.1023H459.327V49.7899H485.783V65.4067H442.332ZM493.108 65.4067V1.1023H511.94L527.465 24.0682L542.99 1.1023H561.822V65.4067H544.827V27.3753L527.557 52.5459L510.103 27.3753V65.4067H493.108ZM589.163 65.4067L613.783 1.1023H632.064L656.683 65.4067H638.678L634.911 55.118H610.935L607.169 65.4067H589.163ZM616.447 40.1443H629.4L622.969 22.3228L616.447 40.1443ZM685.347 66.5091C682.346 66.5091 679.406 66.111 676.528 65.3149C673.649 64.4575 671.016 63.2939 668.628 61.8241C666.3 60.3542 664.371 58.7007 662.84 56.8634C661.309 54.9649 660.39 52.9745 660.084 50.8923L676.987 46.2073C677.538 47.7383 678.488 49.055 679.835 50.1574C681.182 51.1985 682.928 51.7803 685.071 51.9028C686.786 51.964 688.286 51.5047 689.572 50.5249C690.92 49.545 691.593 48.2589 691.593 46.6666C691.593 45.6255 691.195 44.6456 690.399 43.727C689.664 42.7471 688.47 42.0428 686.816 41.6141L677.171 39.1338C673.864 38.2764 671.016 36.9597 668.628 35.1837C666.3 33.4076 664.494 31.2335 663.208 28.6613C661.983 26.0892 661.37 23.2108 661.37 20.0262C661.37 13.7182 663.453 8.81883 667.617 5.32802C671.843 1.77597 677.753 -6.0343e-05 685.347 -6.0343e-05C689.389 -6.0343e-05 692.941 0.520498 696.003 1.56162C699.126 2.60274 701.79 4.25628 703.995 6.52224C706.261 8.72697 708.129 11.636 709.599 15.2493L692.788 20.118C692.481 18.8932 691.685 17.6683 690.399 16.4435C689.174 15.2187 687.49 14.6062 685.347 14.6062C683.264 14.6062 681.642 15.0655 680.478 15.9842C679.376 16.9028 678.824 18.2502 678.824 20.0262C678.824 21.1285 679.284 22.1084 680.202 22.9658C681.121 23.762 682.438 24.3744 684.152 24.8031L693.89 27.2834C698.789 28.5082 702.617 30.9273 705.373 34.5406C708.129 38.0927 709.507 42.1653 709.507 46.7585C709.507 50.9842 708.527 54.5668 706.567 57.5065C704.669 60.4461 701.913 62.6815 698.299 64.2125C694.686 65.7436 690.369 66.5091 685.347 66.5091ZM717.922 65.4067V1.1023H734.917V22.5065L754.3 1.1023H776.623L749.891 30.1312L777.45 65.4067H756.321L738.683 42.2571L734.917 46.391V65.4067H717.922ZM805.031 65.4067V1.1023H849.034V16.7191H822.026V26.0892H843.155V41.706H822.026V65.4067H805.031ZM888.117 66.5091C881.381 66.5091 875.41 65.1005 870.204 62.2834C865.06 59.405 861.018 55.4855 858.078 50.5249C855.138 45.503 853.669 39.7768 853.669 33.3464C853.669 26.8547 855.138 21.1285 858.078 16.1679C861.018 11.146 865.06 7.22653 870.204 4.40938C875.348 1.531 881.258 0.091802 887.934 0.091802C894.67 0.091802 900.611 1.531 905.755 4.40938C910.899 7.22653 914.941 11.146 917.881 16.1679C920.821 21.1285 922.291 26.8547 922.291 33.3464C922.291 39.7768 920.821 45.503 917.881 50.5249C915.003 55.4855 910.991 59.405 905.847 62.2834C900.703 65.1005 894.793 66.5091 888.117 66.5091ZM888.117 50.8923C891.424 50.8923 894.333 50.1574 896.844 48.6876C899.355 47.1565 901.315 45.0743 902.724 42.4409C904.132 39.8074 904.836 36.776 904.836 33.3464C904.836 29.9168 904.102 26.8853 902.632 24.2519C901.223 21.5572 899.233 19.475 896.661 18.0052C894.15 16.4741 891.241 15.7086 887.934 15.7086C884.688 15.7086 881.779 16.4741 879.207 18.0052C876.696 19.475 874.705 21.5572 873.235 24.2519C871.827 26.8853 871.123 29.9168 871.123 33.3464C871.123 36.776 871.858 39.8074 873.327 42.4409C874.797 45.0743 876.788 47.1565 879.298 48.6876C881.871 50.1574 884.81 50.8923 888.117 50.8923ZM930.087 65.4067V1.1023H956.728C961.566 1.1023 965.853 2.05155 969.589 3.95007C973.325 5.78734 976.234 8.35951 978.316 11.6666C980.459 14.9124 981.531 18.6788 981.531 22.9658C981.531 27.1915 980.49 30.9579 978.408 34.265C976.325 37.5721 973.508 40.1443 969.956 41.9815L984.103 65.4067H964.628L953.053 45.013C952.686 45.013 952.318 45.013 951.951 45.013C951.584 45.013 951.216 45.013 950.849 45.013H947.082V65.4067H930.087ZM947.082 29.3963H955.809C957.34 29.3963 958.688 29.1207 959.851 28.5695C961.015 28.0183 961.934 27.2528 962.607 26.2729C963.281 25.293 963.618 24.1907 963.618 22.9658C963.618 21.1285 962.883 19.6281 961.413 18.4645C960.004 17.2397 958.136 16.6272 955.809 16.6272H947.082V29.3963Z" fill="white"/>
<path d="M38.1162 214.07C33.5885 214.07 29.1531 213.469 24.8102 212.268C20.4672 210.974 16.4939 209.219 12.8902 207.001C9.37889 204.783 6.4682 202.289 4.15813 199.517C1.84805 196.652 0.462006 193.649 -8.53228e-06 190.507L25.5032 183.438C26.3348 185.748 27.7671 187.735 29.7999 189.398C31.8328 190.969 34.4663 191.847 37.7004 192.032C40.2877 192.124 42.5516 191.431 44.492 189.953C46.5249 188.474 47.5413 186.534 47.5413 184.131C47.5413 182.561 46.9407 181.082 45.7395 179.696C44.6306 178.218 42.8288 177.155 40.3339 176.508L25.7804 172.766C20.7907 171.472 16.4939 169.486 12.8902 166.806C9.37889 164.126 6.653 160.846 4.71254 156.965C2.86448 153.084 1.94045 148.741 1.94045 143.936C1.94045 134.419 5.08215 127.026 11.3656 121.759C17.7414 116.4 26.6582 113.72 38.1162 113.72C44.2148 113.72 49.5742 114.506 54.1943 116.077C58.9069 117.647 62.9264 120.142 66.2529 123.561C69.6718 126.888 72.4901 131.277 74.7078 136.729L49.3432 144.075C48.8812 142.227 47.6799 140.379 45.7395 138.531C43.8914 136.683 41.3503 135.758 38.1162 135.758C34.9745 135.758 32.5258 136.451 30.7702 137.838C29.1069 139.224 28.2753 141.256 28.2753 143.936C28.2753 145.599 28.9683 147.078 30.3544 148.371C31.7404 149.573 33.7271 150.497 36.3144 151.144L51.0064 154.886C58.3987 156.734 64.1739 160.384 68.332 165.836C72.4901 171.195 74.5692 177.34 74.5692 184.27C74.5692 190.646 73.0907 196.051 70.1338 200.487C67.2693 204.922 63.1112 208.295 57.6594 210.605C52.2077 212.915 45.6933 214.07 38.1162 214.07ZM87.2667 212.407V115.384H127.462C134.762 115.384 141.23 116.816 146.867 119.68C152.503 122.545 156.892 126.518 160.034 131.6C163.268 136.683 164.885 142.55 164.885 149.203C164.885 155.856 163.268 161.77 160.034 166.944C156.892 172.027 152.503 176.046 146.867 179.003C141.23 181.868 134.762 183.3 127.462 183.3H112.908V212.407H87.2667ZM112.908 159.737H126.769C130.28 159.737 133.099 158.767 135.224 156.826C137.441 154.886 138.55 152.345 138.55 149.203C138.55 146.154 137.441 143.659 135.224 141.718C133.099 139.778 130.28 138.808 126.769 138.808H112.908V159.737ZM221.02 214.07C210.856 214.07 201.846 211.945 193.992 207.694C186.23 203.351 180.132 197.437 175.696 189.953C171.261 182.376 169.043 173.736 169.043 164.034C169.043 154.239 171.261 145.599 175.696 138.115C180.132 130.538 186.23 124.624 193.992 120.373C201.754 116.03 210.671 113.859 220.743 113.859C230.907 113.859 239.87 116.03 247.632 120.373C255.394 124.624 261.492 130.538 265.928 138.115C270.363 145.599 272.581 154.239 272.581 164.034C272.581 173.736 270.363 182.376 265.928 189.953C261.585 197.437 255.532 203.351 247.771 207.694C240.009 211.945 231.092 214.07 221.02 214.07ZM221.02 190.507C226.01 190.507 230.399 189.398 234.187 187.181C237.976 184.871 240.933 181.729 243.058 177.756C245.183 173.782 246.246 169.208 246.246 164.034C246.246 158.859 245.137 154.285 242.919 150.312C240.794 146.246 237.791 143.105 233.91 140.887C230.122 138.577 225.732 137.422 220.743 137.422C215.845 137.422 211.456 138.577 207.575 140.887C203.787 143.105 200.784 146.246 198.566 150.312C196.441 154.285 195.378 158.859 195.378 164.034C195.378 169.208 196.487 173.782 198.705 177.756C200.922 181.729 203.925 184.871 207.714 187.181C211.595 189.398 216.03 190.507 221.02 190.507ZM284.345 212.407V115.384H311.373L349.212 168.746V115.384H374.854V212.407H349.212L309.987 157.104V212.407H284.345ZM425.505 214.07C420.977 214.07 416.542 213.469 412.199 212.268C407.856 210.974 403.883 209.219 400.279 207.001C396.768 204.783 393.857 202.289 391.547 199.517C389.237 196.652 387.851 193.649 387.389 190.507L412.892 183.438C413.723 185.748 415.156 187.735 417.189 189.398C419.221 190.969 421.855 191.847 425.089 192.032C427.676 192.124 429.94 191.431 431.881 189.953C433.913 188.474 434.93 186.534 434.93 184.131C434.93 182.561 434.329 181.082 433.128 179.696C432.019 178.218 430.217 177.155 427.722 176.508L413.169 172.766C408.179 171.472 403.883 169.486 400.279 166.806C396.768 164.126 394.042 160.846 392.101 156.965C390.253 153.084 389.329 148.741 389.329 143.936C389.329 134.419 392.471 127.026 398.754 121.759C405.13 116.4 414.047 113.72 425.505 113.72C431.603 113.72 436.963 114.506 441.583 116.077C446.295 117.647 450.315 120.142 453.642 123.561C457.06 126.888 459.879 131.277 462.096 136.729L436.732 144.075C436.27 142.227 435.069 140.379 433.128 138.531C431.28 136.683 428.739 135.758 425.505 135.758C422.363 135.758 419.914 136.451 418.159 137.838C416.496 139.224 415.664 141.256 415.664 143.936C415.664 145.599 416.357 147.078 417.743 148.371C419.129 149.573 421.116 150.497 423.703 151.144L438.395 154.886C445.787 156.734 451.562 160.384 455.721 165.836C459.879 171.195 461.958 177.34 461.958 184.27C461.958 190.646 460.479 196.051 457.522 200.487C454.658 204.922 450.5 208.295 445.048 210.605C439.596 212.915 433.082 214.07 425.505 214.07ZM521.781 214.07C511.616 214.07 502.607 211.945 494.753 207.694C486.991 203.351 480.892 197.437 476.457 189.953C472.022 182.376 469.804 173.736 469.804 164.034C469.804 154.239 472.022 145.599 476.457 138.115C480.892 130.538 486.991 124.624 494.753 120.373C502.515 116.03 511.432 113.859 521.504 113.859C531.668 113.859 540.631 116.03 548.393 120.373C556.155 124.624 562.253 130.538 566.689 138.115C571.124 145.599 573.342 154.239 573.342 164.034C573.342 173.736 571.124 182.376 566.689 189.953C562.346 197.437 556.293 203.351 548.531 207.694C540.77 211.945 531.853 214.07 521.781 214.07ZM521.781 190.507C526.771 190.507 531.16 189.398 534.948 187.181C538.737 184.871 541.694 181.729 543.819 177.756C545.944 173.782 547.007 169.208 547.007 164.034C547.007 158.859 545.898 154.285 543.68 150.312C541.555 146.246 538.552 143.105 534.671 140.887C530.882 138.577 526.493 137.422 521.504 137.422C516.606 137.422 512.217 138.577 508.336 140.887C504.548 143.105 501.545 146.246 499.327 150.312C497.202 154.285 496.139 158.859 496.139 164.034C496.139 169.208 497.248 173.782 499.465 177.756C501.683 181.729 504.686 184.871 508.475 187.181C512.356 189.398 516.791 190.507 521.781 190.507ZM585.106 212.407V115.384H625.301C632.601 115.384 639.069 116.816 644.706 119.68C650.342 122.452 654.731 126.333 657.873 131.323C661.107 136.22 662.724 141.903 662.724 148.371C662.724 154.747 661.153 160.43 658.012 165.42C654.87 170.41 650.619 174.291 645.26 177.063L666.605 212.407H637.221L619.757 181.637C619.202 181.637 618.648 181.637 618.093 181.637C617.539 181.637 616.985 181.637 616.43 181.637H610.747V212.407H585.106ZM610.747 158.074H623.915C626.225 158.074 628.258 157.658 630.013 156.826C631.769 155.995 633.155 154.84 634.172 153.361C635.188 151.883 635.696 150.22 635.696 148.371C635.696 145.599 634.587 143.336 632.37 141.58C630.244 139.732 627.426 138.808 623.915 138.808H610.747V158.074ZM710.97 214.07C706.443 214.07 702.007 213.469 697.664 212.268C693.321 210.974 689.348 209.219 685.744 207.001C682.233 204.783 679.322 202.289 677.012 199.517C674.702 196.652 673.316 193.649 672.854 190.507L698.357 183.438C699.189 185.748 700.621 187.735 702.654 189.398C704.687 190.969 707.32 191.847 710.555 192.032C713.142 192.124 715.406 191.431 717.346 189.953C719.379 188.474 720.396 186.534 720.396 184.131C720.396 182.561 719.795 181.082 718.594 179.696C717.485 178.218 715.683 177.155 713.188 176.508L698.635 172.766C693.645 171.472 689.348 169.486 685.744 166.806C682.233 164.126 679.507 160.846 677.567 156.965C675.719 153.084 674.795 148.741 674.795 143.936C674.795 134.419 677.936 127.026 684.22 121.759C690.596 116.4 699.512 113.72 710.97 113.72C717.069 113.72 722.428 114.506 727.049 116.077C731.761 117.647 735.781 120.142 739.107 123.561C742.526 126.888 745.344 131.277 747.562 136.729L722.197 144.075C721.735 142.227 720.534 140.379 718.594 138.531C716.746 136.683 714.205 135.758 710.97 135.758C707.829 135.758 705.38 136.451 703.624 137.838C701.961 139.224 701.129 141.256 701.129 143.936C701.129 145.599 701.823 147.078 703.209 148.371C704.595 149.573 706.581 150.497 709.169 151.144L723.861 154.886C731.253 156.734 737.028 160.384 741.186 165.836C745.344 171.195 747.423 177.34 747.423 184.27C747.423 190.646 745.945 196.051 742.988 200.487C740.124 204.922 735.965 208.295 730.514 210.605C725.062 212.915 718.547 214.07 710.97 214.07ZM760.121 212.407V115.245H785.763V151.282H821.523V115.384H847.164V212.407H821.523V174.845H785.763V212.407H760.121ZM863.804 212.407V115.384H889.445V212.407H863.804ZM906.035 212.407V115.384H946.23C953.53 115.384 959.998 116.816 965.634 119.68C971.271 122.545 975.66 126.518 978.802 131.6C982.036 136.683 983.653 142.55 983.653 149.203C983.653 155.856 982.036 161.77 978.802 166.944C975.66 172.027 971.271 176.046 965.634 179.003C959.998 181.868 953.53 183.3 946.23 183.3H931.676V212.407H906.035ZM931.676 159.737H945.537C949.048 159.737 951.866 158.767 953.992 156.826C956.209 154.886 957.318 152.345 957.318 149.203C957.318 146.154 956.209 143.659 953.992 141.718C951.866 139.778 949.048 138.808 945.537 138.808H931.676V159.737ZM1004.17 214.486C1000.29 214.486 996.913 213.1 994.048 210.328C991.276 207.463 989.89 204.09 989.89 200.21C989.89 196.329 991.276 193.002 994.048 190.23C996.913 187.366 1000.29 185.933 1004.17 185.933C1008.05 185.933 1011.37 187.366 1014.15 190.23C1017.01 193.002 1018.44 196.329 1018.44 200.21C1018.44 204.09 1017.01 207.463 1014.15 210.328C1011.37 213.1 1008.05 214.486 1004.17 214.486Z" fill="#FFCC00"/>
</svg>
