<svg width="1502" height="105" viewBox="0 0 1502 105" fill="none" xmlns="http://www.w3.org/2000/svg">
<path d="M4.91738e-05 103.24V1.74023H42.0501C49.6867 1.74023 56.4534 3.23856 62.3501 6.23523C68.2467 9.13523 72.8384 13.1952 76.1251 18.4152C79.5084 23.5386 81.2 29.4836 81.2 36.2502C81.2 42.9202 79.5567 48.8652 76.2701 54.0852C72.9834 59.3052 68.5367 63.3652 62.9301 66.2652L85.26 103.24H54.5201L36.25 71.0502C35.6701 71.0502 35.0901 71.0502 34.51 71.0502C33.9301 71.0502 33.3501 71.0502 32.7701 71.0502H26.825V103.24H4.91738e-05ZM26.825 46.4002H40.6C43.0167 46.4002 45.1434 45.9652 46.98 45.0952C48.8167 44.2252 50.2667 43.0169 51.3301 41.4702C52.3934 39.9236 52.9251 38.1836 52.9251 36.2502C52.9251 33.3502 51.7651 30.9819 49.4451 29.1452C47.2217 27.2119 44.2734 26.2452 40.6 26.2452H26.825V46.4002ZM96.1475 103.24V1.74023H164.153V26.3902H122.973V40.4552H156.323V64.3802H122.973V78.5902H165.168V103.24H96.1475ZM227.943 104.98C217.793 104.98 208.803 102.757 200.973 98.3102C193.24 93.7669 187.15 87.5802 182.703 79.7502C178.257 71.8236 176.033 62.7369 176.033 52.4902C176.033 42.2436 178.257 33.2052 182.703 25.3752C187.15 17.4486 193.24 11.2619 200.973 6.81523C208.803 2.2719 217.793 0.000232577 227.943 0.000232577C235.773 0.000232577 242.83 1.35357 249.113 4.06023C255.397 6.7669 260.81 10.5369 265.353 15.3702C269.897 20.2036 273.377 25.8102 275.793 32.1902L250.273 40.3102C248.92 37.1202 247.18 34.3652 245.053 32.0452C242.927 29.6286 240.413 27.7919 237.513 26.5352C234.71 25.2786 231.52 24.6502 227.943 24.6502C223.207 24.6502 219.002 25.8586 215.328 28.2752C211.655 30.5952 208.755 33.8336 206.628 37.9902C204.598 42.1469 203.583 46.9802 203.583 52.4902C203.583 57.9036 204.647 62.7369 206.773 66.9902C208.9 71.1469 211.8 74.4336 215.473 76.8502C219.243 79.1702 223.545 80.3302 228.378 80.3302C232.148 80.3302 235.387 79.7019 238.093 78.4452C240.897 77.0919 243.265 75.2552 245.198 72.9352C247.228 70.5186 248.968 67.7152 250.418 64.5252L275.938 72.6452C273.618 79.0252 270.187 84.6802 265.643 89.6102C261.1 94.4436 255.638 98.2136 249.258 100.92C242.878 103.627 235.773 104.98 227.943 104.98ZM286.743 103.24V1.74023H354.748V26.3902H313.568V40.4552H346.918V64.3802H313.568V78.5902H355.763V103.24H286.743ZM371.704 103.24V1.74023H399.979L439.564 57.5652V1.74023H466.389V103.24H439.564L398.529 45.3852V103.24H371.704ZM506.328 103.24V26.3902H477.618V1.74023H561.718V26.3902H533.153V103.24H506.328ZM606.338 103.24V1.59523H633.163V39.2952H670.573V1.74023H697.398V103.24H670.573V63.9452H633.163V103.24H606.338ZM714.805 103.24V1.74023H741.63V103.24H714.805ZM781.459 103.24V26.3902H752.749V1.74023H836.849V26.3902H808.284V103.24H781.459ZM881.47 103.24V1.74023H911.195L935.7 37.9902L960.205 1.74023H989.93V103.24H963.105V43.2102L935.845 82.9402L908.295 43.2102V103.24H881.47ZM1007.35 103.24V1.74023H1075.36V26.3902H1034.18V40.4552H1067.53V64.3802H1034.18V78.5902H1076.37V103.24H1007.35ZM1114.79 103.24V26.3902H1086.08V1.74023H1170.18V26.3902H1141.61V103.24H1114.79ZM1181.38 103.24V1.74023H1223.43C1231.07 1.74023 1237.84 3.23856 1243.73 6.23523C1249.63 9.13523 1254.22 13.1952 1257.51 18.4152C1260.89 23.5386 1262.58 29.4836 1262.58 36.2502C1262.58 42.9202 1260.94 48.8652 1257.65 54.0852C1254.37 59.3052 1249.92 63.3652 1244.31 66.2652L1266.64 103.24H1235.9L1217.63 71.0502C1217.05 71.0502 1216.47 71.0502 1215.89 71.0502C1215.31 71.0502 1214.73 71.0502 1214.15 71.0502H1208.21V103.24H1181.38ZM1208.21 46.4002H1221.98C1224.4 46.4002 1226.53 45.9652 1228.36 45.0952C1230.2 44.2252 1231.65 43.0169 1232.71 41.4702C1233.78 39.9236 1234.31 38.1836 1234.31 36.2502C1234.31 33.3502 1233.15 30.9819 1230.83 29.1452C1228.6 27.2119 1225.66 26.2452 1221.98 26.2452H1208.21V46.4002ZM1277.53 103.24V1.74023H1304.35V103.24H1277.53ZM1368.54 104.98C1358.39 104.98 1349.4 102.757 1341.57 98.3102C1333.84 93.7669 1327.75 87.5802 1323.3 79.7502C1318.86 71.8236 1316.63 62.7369 1316.63 52.4902C1316.63 42.2436 1318.86 33.2052 1323.3 25.3752C1327.75 17.4486 1333.84 11.2619 1341.57 6.81523C1349.4 2.2719 1358.39 0.000232577 1368.54 0.000232577C1376.37 0.000232577 1383.43 1.35357 1389.71 4.06023C1396 6.7669 1401.41 10.5369 1405.95 15.3702C1410.5 20.2036 1413.98 25.8102 1416.39 32.1902L1390.87 40.3102C1389.52 37.1202 1387.78 34.3652 1385.65 32.0452C1383.53 29.6286 1381.01 27.7919 1378.11 26.5352C1375.31 25.2786 1372.12 24.6502 1368.54 24.6502C1363.81 24.6502 1359.6 25.8586 1355.93 28.2752C1352.26 30.5952 1349.36 33.8336 1347.23 37.9902C1345.2 42.1469 1344.18 46.9802 1344.18 52.4902C1344.18 57.9036 1345.25 62.7369 1347.37 66.9902C1349.5 71.1469 1352.4 74.4336 1356.07 76.8502C1359.84 79.1702 1364.15 80.3302 1368.98 80.3302C1372.75 80.3302 1375.99 79.7019 1378.69 78.4452C1381.5 77.0919 1383.87 75.2552 1385.8 72.9352C1387.83 70.5186 1389.57 67.7152 1391.02 64.5252L1416.54 72.6452C1414.22 79.0252 1410.79 84.6802 1406.24 89.6102C1401.7 94.4436 1396.24 98.2136 1389.86 100.92C1383.48 103.627 1376.37 104.98 1368.54 104.98ZM1462.87 104.98C1458.13 104.98 1453.49 104.352 1448.95 103.095C1444.41 101.742 1440.25 99.9052 1436.48 97.5852C1432.81 95.2652 1429.76 92.6552 1427.34 89.7552C1424.93 86.7586 1423.48 83.6169 1422.99 80.3302L1449.67 72.9352C1450.54 75.3519 1452.04 77.4302 1454.17 79.1702C1456.3 80.8136 1459.05 81.7319 1462.43 81.9252C1465.14 82.0219 1467.51 81.2969 1469.54 79.7502C1471.67 78.2036 1472.73 76.1736 1472.73 73.6602C1472.73 72.0169 1472.1 70.4702 1470.84 69.0202C1469.68 67.4736 1467.8 66.3619 1465.19 65.6852L1449.96 61.7702C1444.74 60.4169 1440.25 58.3386 1436.48 55.5352C1432.81 52.7319 1429.95 49.3002 1427.92 45.2402C1425.99 41.1802 1425.02 36.6369 1425.02 31.6102C1425.02 21.6536 1428.31 13.9202 1434.88 8.41023C1441.55 2.80356 1450.88 0.000232577 1462.87 0.000232577C1469.25 0.000232577 1474.86 0.821897 1479.69 2.46523C1484.62 4.10856 1488.82 6.71856 1492.3 10.2952C1495.88 13.7752 1498.83 18.3669 1501.15 24.0702L1474.61 31.7552C1474.13 29.8219 1472.87 27.8886 1470.84 25.9552C1468.91 24.0219 1466.25 23.0552 1462.87 23.0552C1459.58 23.0552 1457.02 23.7802 1455.18 25.2302C1453.44 26.6802 1452.57 28.8069 1452.57 31.6102C1452.57 33.3502 1453.3 34.8969 1454.75 36.2502C1456.2 37.5069 1458.28 38.4736 1460.98 39.1502L1476.35 43.0652C1484.09 44.9986 1490.13 48.8169 1494.48 54.5202C1498.83 60.1269 1501 66.5552 1501 73.8052C1501 80.4752 1499.46 86.1302 1496.36 90.7702C1493.37 95.4102 1489.02 98.9386 1483.31 101.355C1477.61 103.772 1470.8 104.98 1462.87 104.98Z" fill="#FFCC00"/>
</svg>
