<svg width="1427" height="189" viewBox="0 0 1427 189" fill="none" xmlns="http://www.w3.org/2000/svg">
<path d="M29.987 88.2157C26.2724 88.2157 22.524 87.5741 18.7419 86.2908C14.9597 84.9401 11.6166 83.0152 8.71244 80.5163C5.87583 78.0174 3.98476 75.012 3.03922 71.5L21.1733 67.8529C21.7136 69.2712 22.6929 70.318 24.1112 70.9934C25.5295 71.6688 27.0491 72.0065 28.67 72.0065C31.1014 72.0065 33.06 71.2973 34.5458 69.879C36.0992 68.3932 36.8759 66.4008 36.8759 63.9019C36.8759 61.7407 36.133 59.8496 34.6471 58.2287C33.1613 56.6078 31.1352 55.7973 28.5687 55.7973C26.8802 55.7973 25.4619 56.2025 24.3138 57.013C23.1656 57.8235 22.3214 58.7352 21.7811 59.7483L4.96406 56.1012L10.0294 16.0848H52.1733V33.1044H25.7321L23.7059 45.0587C25.4619 44.1132 27.4205 43.3703 29.5818 42.83C31.8105 42.2221 34.2757 41.952 36.9772 42.0195C40.4217 42.087 43.6297 43.0326 46.6014 44.8561C49.5731 46.6121 51.9369 49.0435 53.6929 52.1502C55.5165 55.1895 56.4282 58.7352 56.4282 62.7875C56.4282 67.7854 55.2801 72.2091 52.9838 76.0588C50.755 79.9085 47.6483 82.9139 43.6635 85.0752C39.7463 87.1688 35.1874 88.2157 29.987 88.2157ZM89.2431 14.9704C93.9033 14.9704 97.9218 15.7809 101.299 17.4018C104.743 19.0227 107.58 21.2852 109.809 24.1894C112.037 27.0935 113.692 30.5042 114.773 34.4214C115.921 38.2711 116.495 42.4923 116.495 47.0849C116.495 51.9476 115.988 56.8104 114.975 61.6731C113.962 66.5359 112.307 70.9934 110.011 75.0457C107.715 79.0305 104.574 82.2386 100.59 84.6699C96.6723 87.1013 91.7758 88.317 85.9 88.317C81.9828 88.317 78.2006 87.7767 74.5536 86.6961C70.974 85.6155 67.6984 84.0621 64.7267 82.0359L73.5405 68.2581C75.6342 69.6089 77.8292 70.5882 80.1255 71.196C82.4218 71.7363 84.4141 72.0065 86.1026 72.0065C89.8172 72.0065 92.8902 70.2505 95.3216 66.7385C97.753 63.2265 98.9686 57.4182 98.9686 49.3136L102.717 51.2385C101.164 54.5479 98.9011 57.2494 95.9294 59.3431C93.0253 61.4368 89.5133 62.4836 85.3935 62.4836C80.9359 62.4836 76.9849 61.3692 73.5405 59.1405C70.096 56.9117 67.3945 53.94 65.4359 50.2254C63.4773 46.5108 62.498 42.391 62.498 37.8659C62.498 33.4759 63.5786 29.5587 65.7398 26.1142C67.901 22.6698 70.974 19.9683 74.9588 18.0096C79.0111 15.9835 83.7725 14.9704 89.2431 14.9704ZM89.1418 30.5718C87.656 30.5718 86.3052 30.9432 85.0895 31.6861C83.8738 32.4291 82.8945 33.4421 82.1516 34.7254C81.4762 35.9411 81.1385 37.3256 81.1385 38.879C81.1385 40.4324 81.4762 41.8844 82.1516 43.2352C82.8945 44.586 83.8738 45.6666 85.0895 46.477C86.3052 47.2199 87.656 47.5914 89.1418 47.5914C90.6952 47.5914 92.0797 47.2199 93.2954 46.477C94.5111 45.6666 95.4904 44.586 96.2333 43.2352C96.9763 41.8844 97.3477 40.4324 97.3477 38.879C97.3477 37.3256 96.9763 35.9411 96.2333 34.7254C95.4904 33.4421 94.5111 32.4291 93.2954 31.6861C92.0797 30.9432 90.6952 30.5718 89.1418 30.5718ZM130.047 87L153.652 33.3071H122.044V16.0848H174.521V29.2548L150.815 87H130.047ZM202.912 80.6176V33.0031H217.095V80.6176H202.912ZM186.196 63.9019V49.7189H233.81V63.9019H186.196Z" fill="#FFCC00"/>
<path d="M11.926 142.613C10.529 142.613 9.24617 142.448 8.0777 142.118C6.93463 141.788 5.91857 141.331 5.02951 140.746C4.16586 140.162 3.44191 139.514 2.85768 138.803C2.29884 138.067 1.90512 137.305 1.6765 136.517L6.02017 135.184C6.35039 136.123 6.99813 136.949 7.96339 137.66C8.92865 138.371 10.1225 138.74 11.545 138.765C13.1961 138.765 14.5043 138.422 15.4696 137.736C16.4348 137.051 16.9174 136.149 16.9174 135.031C16.9174 134.015 16.511 133.189 15.6982 132.554C14.8853 131.894 13.7931 131.386 12.4214 131.03L9.14457 130.192C7.89989 129.862 6.76952 129.379 5.75346 128.744C4.76279 128.109 3.97535 127.309 3.39111 126.344C2.83228 125.379 2.55286 124.235 2.55286 122.915C2.55286 120.425 3.36571 118.495 4.99141 117.123C6.61711 115.726 8.94135 115.027 11.9641 115.027C13.666 115.027 15.152 115.294 16.4221 115.828C17.7176 116.336 18.7845 117.047 19.6227 117.961C20.461 118.85 21.0833 119.866 21.4897 121.009L17.2223 122.381C16.8412 121.365 16.1808 120.527 15.2409 119.866C14.3011 119.206 13.1326 118.876 11.7355 118.876C10.2876 118.876 9.14457 119.219 8.30631 119.904C7.49346 120.59 7.08704 121.543 7.08704 122.762C7.08704 123.753 7.40456 124.528 8.0396 125.086C8.70004 125.62 9.58909 126.026 10.7068 126.306L13.9836 127.106C16.3713 127.69 18.2256 128.693 19.5465 130.116C20.8674 131.538 21.5278 133.113 21.5278 134.841C21.5278 136.365 21.1595 137.711 20.4229 138.879C19.6862 140.048 18.594 140.962 17.1461 141.623C15.7236 142.283 13.9836 142.613 11.926 142.613ZM33.2005 142.613C31.1938 142.613 29.657 142.118 28.5902 141.127C27.5487 140.111 27.028 138.664 27.028 136.784V126.763H23.8655V123.105H27.028V117.161H31.2573V123.105H36.4011V126.763H31.2573V135.984C31.2573 136.873 31.4605 137.546 31.867 138.003C32.2988 138.46 32.9211 138.689 33.734 138.689C33.988 138.689 34.2674 138.638 34.5722 138.537C34.8771 138.435 35.22 138.244 35.601 137.965L37.1632 141.204C36.5028 141.661 35.8423 142.004 35.1819 142.232C34.5214 142.486 33.861 142.613 33.2005 142.613ZM46.4503 142.613C44.1642 142.613 42.3861 142.105 41.116 141.089C39.8713 140.073 39.249 138.638 39.249 136.784C39.249 134.802 39.9094 133.291 41.2303 132.25C42.5766 131.208 44.4436 130.687 46.8314 130.687H51.6704C51.518 129.29 51.1242 128.223 50.4892 127.487C49.8542 126.75 48.9143 126.382 47.6696 126.382C46.7552 126.382 45.955 126.572 45.2692 126.953C44.5833 127.334 43.9991 127.931 43.5165 128.744L39.7824 127.373C40.1889 126.534 40.7223 125.76 41.3827 125.048C42.0686 124.312 42.9195 123.727 43.9356 123.296C44.9771 122.864 46.2217 122.648 47.6696 122.648C49.5239 122.648 51.0734 123.016 52.3181 123.753C53.5628 124.464 54.4772 125.493 55.0615 126.839C55.6711 128.185 55.9759 129.811 55.9759 131.716L55.8616 142.156H51.9371L51.8228 139.832C51.3147 140.721 50.6035 141.407 49.689 141.89C48.8 142.372 47.7204 142.613 46.4503 142.613ZM46.9838 139.032C47.9236 139.032 48.7492 138.829 49.4604 138.422C50.1971 137.99 50.7559 137.419 51.1369 136.708C51.5434 135.996 51.7466 135.209 51.7466 134.345V133.964H48.2031C46.5011 133.964 45.3073 134.206 44.6214 134.688C43.9356 135.145 43.5927 135.806 43.5927 136.67C43.5927 137.406 43.8848 137.99 44.469 138.422C45.0787 138.829 45.9169 139.032 46.9838 139.032ZM67.8796 142.613C65.8729 142.613 64.3361 142.118 63.2693 141.127C62.2278 140.111 61.7071 138.664 61.7071 136.784V126.763H58.5446V123.105H61.7071V117.161H65.9364V123.105H71.0802V126.763H65.9364V135.984C65.9364 136.873 66.1396 137.546 66.5461 138.003C66.9779 138.46 67.6002 138.689 68.4131 138.689C68.6671 138.689 68.9465 138.638 69.2513 138.537C69.5561 138.435 69.8991 138.244 70.2801 137.965L71.8423 141.204C71.1818 141.661 70.5214 142.004 69.861 142.232C69.2005 142.486 68.5401 142.613 67.8796 142.613ZM75.5221 142.156V123.105H79.7515V142.156H75.5221ZM77.6559 119.485C76.97 119.485 76.3731 119.244 75.8651 118.761C75.3824 118.253 75.1411 117.656 75.1411 116.971C75.1411 116.285 75.3824 115.701 75.8651 115.218C76.3731 114.735 76.97 114.494 77.6559 114.494C78.3417 114.494 78.926 114.735 79.4086 115.218C79.9166 115.701 80.1706 116.285 80.1706 116.971C80.1706 117.656 79.9166 118.253 79.4086 118.761C78.926 119.244 78.3417 119.485 77.6559 119.485ZM93.697 142.613C91.741 142.613 90.0137 142.194 88.515 141.356C87.0164 140.492 85.8352 139.311 84.9715 137.813C84.1333 136.314 83.7142 134.587 83.7142 132.631C83.7142 130.675 84.1333 128.947 84.9715 127.449C85.8352 125.95 87.0037 124.782 88.4769 123.943C89.9756 123.08 91.6902 122.648 93.6208 122.648C95.5005 122.648 97.2024 123.105 98.7265 124.02C100.251 124.909 101.381 126.191 102.118 127.868L98.1549 129.392C97.7485 128.554 97.1262 127.881 96.2879 127.373C95.4497 126.865 94.4971 126.61 93.4303 126.61C92.3888 126.61 91.4616 126.877 90.6488 127.411C89.8359 127.919 89.2009 128.63 88.7437 129.544C88.2864 130.433 88.0578 131.462 88.0578 132.631C88.0578 133.799 88.2864 134.841 88.7437 135.755C89.2263 136.644 89.874 137.355 90.6869 137.889C91.5251 138.397 92.465 138.651 93.5065 138.651C94.5733 138.651 95.5259 138.384 96.3641 137.851C97.2024 137.292 97.8247 136.543 98.2311 135.603L102.194 137.127C101.457 138.854 100.327 140.2 98.8027 141.166C97.304 142.131 95.6021 142.613 93.697 142.613ZM122.089 142.69C120.54 142.69 119.168 142.385 117.974 141.775C116.78 141.166 115.84 140.327 115.155 139.26C114.469 138.194 114.126 136.974 114.126 135.603C114.126 134.587 114.316 133.659 114.697 132.821C115.104 131.958 115.637 131.17 116.298 130.459C116.958 129.748 117.707 129.113 118.546 128.554L122.927 125.544C123.435 125.188 123.956 124.807 124.49 124.401C125.023 123.994 125.48 123.524 125.861 122.991C126.268 122.457 126.471 121.848 126.471 121.162C126.471 120.324 126.166 119.663 125.556 119.181C124.972 118.698 124.223 118.457 123.308 118.457C122.496 118.457 121.797 118.711 121.213 119.219C120.654 119.727 120.375 120.362 120.375 121.124C120.375 121.81 120.59 122.419 121.022 122.953C121.454 123.486 121.962 124.121 122.546 124.858L127.462 130.764L136.873 142.156H131.805L124.261 133.126L119.232 127.03C118.571 126.191 118.012 125.455 117.555 124.82C117.098 124.159 116.755 123.537 116.526 122.953C116.323 122.343 116.221 121.721 116.221 121.086C116.221 119.917 116.526 118.876 117.136 117.961C117.771 117.021 118.609 116.285 119.651 115.751C120.692 115.218 121.861 114.951 123.156 114.951C124.579 114.951 125.836 115.218 126.928 115.751C128.046 116.285 128.922 117.021 129.557 117.961C130.192 118.901 130.51 119.993 130.51 121.238C130.51 122.254 130.243 123.207 129.71 124.096C129.176 124.985 128.414 125.848 127.424 126.687C126.458 127.525 125.315 128.414 123.994 129.354L121.251 131.221C120.768 131.551 120.324 131.919 119.917 132.326C119.511 132.732 119.181 133.189 118.927 133.698C118.673 134.206 118.546 134.815 118.546 135.526C118.546 136.543 118.889 137.381 119.574 138.041C120.286 138.676 121.2 138.994 122.318 138.994C123.486 138.994 124.604 138.803 125.671 138.422C126.763 138.041 127.728 137.495 128.567 136.784C129.43 136.047 130.103 135.158 130.586 134.117C131.069 133.075 131.31 131.894 131.31 130.573H135.387C135.387 132.91 134.815 134.993 133.672 136.822C132.529 138.651 130.954 140.086 128.948 141.127C126.966 142.169 124.68 142.69 122.089 142.69ZM149.321 142.156V115.485H157.703C160.32 115.485 162.631 116.056 164.638 117.199C166.67 118.317 168.258 119.879 169.401 121.886C170.569 123.893 171.153 126.204 171.153 128.82C171.153 131.411 170.569 133.71 169.401 135.717C168.258 137.724 166.67 139.299 164.638 140.442C162.631 141.585 160.32 142.156 157.703 142.156H149.321ZM153.741 138.041H157.703C158.948 138.041 160.116 137.813 161.209 137.355C162.301 136.873 163.254 136.212 164.066 135.374C164.879 134.536 165.514 133.558 165.971 132.44C166.429 131.322 166.657 130.116 166.657 128.82C166.657 127.525 166.429 126.318 165.971 125.201C165.514 124.083 164.879 123.105 164.066 122.267C163.254 121.429 162.301 120.781 161.209 120.324C160.116 119.841 158.948 119.6 157.703 119.6H153.741V138.041ZM175.28 142.156V123.105H179.51V142.156H175.28ZM177.414 119.485C176.728 119.485 176.131 119.244 175.623 118.761C175.141 118.253 174.899 117.656 174.899 116.971C174.899 116.285 175.141 115.701 175.623 115.218C176.131 114.735 176.728 114.494 177.414 114.494C178.1 114.494 178.684 114.735 179.167 115.218C179.675 115.701 179.929 116.285 179.929 116.971C179.929 117.656 179.675 118.253 179.167 118.761C178.684 119.244 178.1 119.485 177.414 119.485ZM192.731 150.272C191.385 150.272 190.166 150.158 189.073 149.929C188.007 149.701 187.105 149.434 186.368 149.129C185.632 148.824 185.06 148.532 184.654 148.253L186.292 144.823C186.648 145.001 187.118 145.217 187.702 145.471C188.311 145.751 189.023 145.992 189.835 146.195C190.648 146.398 191.563 146.5 192.579 146.5C193.671 146.5 194.649 146.271 195.513 145.814C196.376 145.382 197.05 144.709 197.532 143.795C198.015 142.88 198.256 141.712 198.256 140.289V138.384C197.596 139.451 196.732 140.289 195.665 140.899C194.624 141.483 193.43 141.775 192.084 141.775C190.356 141.775 188.845 141.382 187.549 140.594C186.279 139.807 185.276 138.714 184.539 137.317C183.828 135.895 183.472 134.256 183.472 132.402C183.472 130.421 183.828 128.706 184.539 127.258C185.276 125.81 186.279 124.68 187.549 123.867C188.845 123.054 190.356 122.648 192.084 122.648C193.43 122.648 194.624 122.953 195.665 123.562C196.732 124.172 197.596 125.048 198.256 126.191V123.105H202.524V140.175C202.524 142.334 202.117 144.163 201.304 145.662C200.491 147.186 199.348 148.329 197.875 149.091C196.402 149.878 194.687 150.272 192.731 150.272ZM193.265 138.156C194.23 138.156 195.068 137.901 195.779 137.393C196.516 136.885 197.088 136.2 197.494 135.336C197.9 134.447 198.104 133.431 198.104 132.288C198.104 131.119 197.9 130.103 197.494 129.24C197.088 128.35 196.516 127.665 195.779 127.182C195.043 126.674 194.192 126.42 193.227 126.42C192.211 126.42 191.309 126.674 190.521 127.182C189.759 127.665 189.15 128.35 188.692 129.24C188.261 130.103 188.045 131.119 188.045 132.288C188.045 133.431 188.261 134.447 188.692 135.336C189.15 136.2 189.772 136.885 190.559 137.393C191.347 137.901 192.249 138.156 193.265 138.156ZM207.504 142.156V123.105H211.733V142.156H207.504ZM209.637 119.485C208.952 119.485 208.355 119.244 207.847 118.761C207.364 118.253 207.123 117.656 207.123 116.971C207.123 116.285 207.364 115.701 207.847 115.218C208.355 114.735 208.952 114.494 209.637 114.494C210.323 114.494 210.907 114.735 211.39 115.218C211.898 115.701 212.152 116.285 212.152 116.971C212.152 117.656 211.898 118.253 211.39 118.761C210.907 119.244 210.323 119.485 209.637 119.485ZM224.345 142.613C222.338 142.613 220.801 142.118 219.735 141.127C218.693 140.111 218.172 138.664 218.172 136.784V126.763H215.01V123.105H218.172V117.161H222.402V123.105H227.545V126.763H222.402V135.984C222.402 136.873 222.605 137.546 223.011 138.003C223.443 138.46 224.065 138.689 224.878 138.689C225.132 138.689 225.412 138.638 225.717 138.537C226.021 138.435 226.364 138.244 226.745 137.965L228.308 141.204C227.647 141.661 226.987 142.004 226.326 142.232C225.666 142.486 225.005 142.613 224.345 142.613ZM237.595 142.613C235.309 142.613 233.53 142.105 232.26 141.089C231.016 140.073 230.393 138.638 230.393 136.784C230.393 134.802 231.054 133.291 232.375 132.25C233.721 131.208 235.588 130.687 237.976 130.687H242.815C242.662 129.29 242.269 128.223 241.634 127.487C240.998 126.75 240.059 126.382 238.814 126.382C237.899 126.382 237.099 126.572 236.414 126.953C235.728 127.334 235.143 127.931 234.661 128.744L230.927 127.373C231.333 126.534 231.867 125.76 232.527 125.048C233.213 124.312 234.064 123.727 235.08 123.296C236.121 122.864 237.366 122.648 238.814 122.648C240.668 122.648 242.218 123.016 243.462 123.753C244.707 124.464 245.622 125.493 246.206 126.839C246.815 128.185 247.12 129.811 247.12 131.716L247.006 142.156H243.081L242.967 139.832C242.459 140.721 241.748 141.407 240.833 141.89C239.944 142.372 238.865 142.613 237.595 142.613ZM238.128 139.032C239.068 139.032 239.894 138.829 240.605 138.422C241.341 137.99 241.9 137.419 242.281 136.708C242.688 135.996 242.891 135.209 242.891 134.345V133.964H239.347C237.645 133.964 236.452 134.206 235.766 134.688C235.08 135.145 234.737 135.806 234.737 136.67C234.737 137.406 235.029 137.99 235.613 138.422C236.223 138.829 237.061 139.032 238.128 139.032ZM251.442 142.156V115.485H255.709V142.156H251.442ZM8.68734 181.156V158.523H0.495331V154.485H21.2992V158.523H13.1072V181.156H8.68734ZM30.512 181.613C28.6068 181.613 26.9049 181.194 25.4062 180.356C23.9329 179.492 22.7772 178.311 21.9389 176.813C21.1007 175.314 20.6815 173.587 20.6815 171.631C20.6815 169.675 21.088 167.947 21.9008 166.449C22.7391 164.95 23.8948 163.782 25.3681 162.943C26.8414 162.08 28.5306 161.648 30.4357 161.648C32.3409 161.648 34.0301 162.08 35.5034 162.943C36.9767 163.782 38.1197 164.95 38.9326 166.449C39.7708 167.947 40.1899 169.675 40.1899 171.631C40.1899 173.587 39.7835 175.314 38.9707 176.813C38.1578 178.311 37.0148 179.492 35.5415 180.356C34.0682 181.194 32.3917 181.613 30.512 181.613ZM30.512 177.689C31.5534 177.689 32.4806 177.435 33.2934 176.927C34.1063 176.393 34.7413 175.682 35.1985 174.793C35.6558 173.879 35.8844 172.825 35.8844 171.631C35.8844 170.437 35.6431 169.395 35.1604 168.506C34.7032 167.592 34.0682 166.881 33.2553 166.373C32.4425 165.839 31.5026 165.572 30.4357 165.572C29.3689 165.572 28.429 165.826 27.6162 166.334C26.8033 166.842 26.1683 167.554 25.7111 168.468C25.2538 169.383 25.0252 170.437 25.0252 171.631C25.0252 172.825 25.2538 173.879 25.7111 174.793C26.1937 175.682 26.8414 176.393 27.6543 176.927C28.4925 177.435 29.4451 177.689 30.512 177.689ZM50.7083 181.613C49.2096 181.613 47.9141 181.309 46.8218 180.699C45.755 180.089 44.9294 179.137 44.3452 177.841C43.761 176.546 43.4688 174.882 43.4688 172.85V162.105H47.7363V171.859C47.7363 173.358 47.9141 174.526 48.2697 175.365C48.6254 176.203 49.108 176.787 49.7176 177.117C50.3527 177.448 51.0766 177.613 51.8895 177.613C53.3373 177.638 54.455 177.168 55.2425 176.203C56.0299 175.238 56.4236 173.853 56.4236 172.05V162.105H60.653V181.156H56.6523L56.4617 178.451C55.8521 179.467 55.052 180.254 54.0613 180.813C53.096 181.347 51.9784 181.613 50.7083 181.613ZM74.3109 181.613C72.355 181.613 70.6277 181.194 69.129 180.356C67.6303 179.492 66.4491 178.311 65.5855 176.813C64.7472 175.314 64.3281 173.587 64.3281 171.631C64.3281 169.675 64.7472 167.947 65.5855 166.449C66.4491 164.95 67.6176 163.782 69.0909 162.943C70.5896 162.08 72.3042 161.648 74.2347 161.648C76.1144 161.648 77.8163 162.105 79.3404 163.02C80.8645 163.909 81.9949 165.191 82.7315 166.868L78.7689 168.392C78.3625 167.554 77.7401 166.881 76.9019 166.373C76.0636 165.865 75.1111 165.61 74.0442 165.61C73.0027 165.61 72.0756 165.877 71.2627 166.411C70.4499 166.919 69.8148 167.63 69.3576 168.544C68.9004 169.433 68.6718 170.462 68.6718 171.631C68.6718 172.799 68.9004 173.841 69.3576 174.755C69.8402 175.644 70.488 176.355 71.3008 176.889C72.1391 177.397 73.0789 177.651 74.1204 177.651C75.1873 177.651 76.1398 177.384 76.9781 176.851C77.8163 176.292 78.4387 175.543 78.8451 174.603L82.8077 176.127C82.0711 177.854 80.9407 179.2 79.4166 180.166C77.9179 181.131 76.216 181.613 74.3109 181.613ZM86.1587 181.156V154.485H90.4261V164.696C91.0612 163.705 91.8613 162.956 92.8266 162.448C93.7918 161.915 94.8841 161.648 96.1034 161.648C97.6021 161.648 98.8975 161.953 99.9898 162.562C101.082 163.172 101.908 164.124 102.466 165.42C103.051 166.69 103.343 168.354 103.343 170.411V181.156H99.0754V171.402C99.0754 169.878 98.8975 168.709 98.5419 167.897C98.1863 167.058 97.691 166.474 97.0559 166.144C96.4463 165.814 95.7351 165.649 94.9222 165.649C93.4743 165.623 92.3566 166.093 91.5692 167.058C90.8071 168.024 90.4261 169.408 90.4261 171.212V181.156H86.1587ZM107.855 188.777V162.105H111.856L112.047 165.001C112.707 163.934 113.545 163.108 114.561 162.524C115.603 161.94 116.797 161.648 118.143 161.648C119.87 161.648 121.369 162.067 122.639 162.905C123.934 163.718 124.938 164.874 125.649 166.373C126.386 167.846 126.754 169.599 126.754 171.631C126.754 173.637 126.386 175.39 125.649 176.889C124.938 178.387 123.934 179.556 122.639 180.394C121.369 181.207 119.87 181.613 118.143 181.613C116.822 181.613 115.654 181.321 114.637 180.737C113.621 180.153 112.783 179.353 112.123 178.337V188.777H107.855ZM117.076 177.727C118.092 177.727 118.994 177.473 119.781 176.965C120.569 176.432 121.191 175.708 121.648 174.793C122.131 173.879 122.372 172.825 122.372 171.631C122.372 170.437 122.144 169.383 121.686 168.468C121.255 167.554 120.645 166.842 119.858 166.334C119.07 165.826 118.156 165.572 117.114 165.572C116.149 165.572 115.285 165.826 114.523 166.334C113.761 166.842 113.164 167.554 112.732 168.468C112.326 169.383 112.123 170.437 112.123 171.631C112.123 172.825 112.326 173.879 112.732 174.793C113.164 175.708 113.748 176.432 114.485 176.965C115.247 177.473 116.111 177.727 117.076 177.727ZM139.163 181.613C137.258 181.613 135.556 181.194 134.057 180.356C132.584 179.492 131.428 178.311 130.59 176.813C129.752 175.314 129.333 173.587 129.333 171.631C129.333 169.675 129.739 167.947 130.552 166.449C131.39 164.95 132.546 163.782 134.019 162.943C135.493 162.08 137.182 161.648 139.087 161.648C140.992 161.648 142.681 162.08 144.155 162.943C145.628 163.782 146.771 164.95 147.584 166.449C148.422 167.947 148.841 169.675 148.841 171.631C148.841 173.587 148.435 175.314 147.622 176.813C146.809 178.311 145.666 179.492 144.193 180.356C142.719 181.194 141.043 181.613 139.163 181.613ZM139.163 177.689C140.205 177.689 141.132 177.435 141.945 176.927C142.758 176.393 143.393 175.682 143.85 174.793C144.307 173.879 144.536 172.825 144.536 171.631C144.536 170.437 144.294 169.395 143.812 168.506C143.354 167.592 142.719 166.881 141.907 166.373C141.094 165.839 140.154 165.572 139.087 165.572C138.02 165.572 137.08 165.826 136.267 166.334C135.455 166.842 134.82 167.554 134.362 168.468C133.905 169.383 133.676 170.437 133.676 171.631C133.676 172.825 133.905 173.879 134.362 174.793C134.845 175.682 135.493 176.393 136.306 176.927C137.144 177.435 138.096 177.689 139.163 177.689ZM152.806 181.156V162.105H157.035V181.156H152.806ZM154.94 158.485C154.254 158.485 153.657 158.244 153.149 157.761C152.666 157.253 152.425 156.656 152.425 155.971C152.425 155.285 152.666 154.701 153.149 154.218C153.657 153.735 154.254 153.494 154.94 153.494C155.626 153.494 156.21 153.735 156.692 154.218C157.2 154.701 157.454 155.285 157.454 155.971C157.454 156.656 157.2 157.253 156.692 157.761C156.21 158.244 155.626 158.485 154.94 158.485ZM162.065 181.156V162.105H166.066L166.256 164.81C166.866 163.794 167.653 163.02 168.618 162.486C169.609 161.927 170.739 161.648 172.01 161.648C173.534 161.648 174.829 161.953 175.896 162.562C176.988 163.172 177.814 164.124 178.373 165.42C178.957 166.69 179.249 168.354 179.249 170.411V181.156H174.981V171.402C174.981 169.878 174.804 168.709 174.448 167.897C174.118 167.058 173.635 166.474 173 166.144C172.391 165.814 171.667 165.649 170.828 165.649C169.406 165.623 168.301 166.093 167.513 167.058C166.726 168.024 166.332 169.408 166.332 171.212V181.156H162.065ZM191.154 181.613C189.147 181.613 187.611 181.118 186.544 180.127C185.502 179.111 184.982 177.664 184.982 175.784V165.763H181.819V162.105H184.982V156.161H189.211V162.105H194.355V165.763H189.211V174.984C189.211 175.873 189.414 176.546 189.821 177.003C190.252 177.46 190.875 177.689 191.688 177.689C191.942 177.689 192.221 177.638 192.526 177.537C192.831 177.435 193.174 177.244 193.555 176.965L195.117 180.204C194.456 180.661 193.796 181.004 193.135 181.232C192.475 181.486 191.815 181.613 191.154 181.613ZM205.465 181.613C204.194 181.613 203.026 181.423 201.959 181.042C200.892 180.661 199.978 180.127 199.216 179.442C198.454 178.73 197.87 177.905 197.463 176.965L201.159 175.327C201.54 176.038 202.099 176.635 202.836 177.117C203.598 177.6 204.436 177.841 205.35 177.841C206.341 177.841 207.128 177.676 207.713 177.346C208.322 176.99 208.627 176.508 208.627 175.898C208.627 175.314 208.398 174.869 207.941 174.565C207.484 174.234 206.836 173.968 205.998 173.764L204.207 173.269C202.404 172.812 200.994 172.088 199.978 171.097C198.962 170.081 198.454 168.925 198.454 167.63C198.454 165.725 199.063 164.252 200.283 163.21C201.527 162.169 203.305 161.648 205.617 161.648C206.785 161.648 207.852 161.826 208.818 162.181C209.808 162.511 210.659 162.994 211.37 163.629C212.082 164.239 212.577 164.963 212.856 165.801L209.313 167.401C209.059 166.766 208.576 166.284 207.865 165.953C207.154 165.598 206.366 165.42 205.503 165.42C204.639 165.42 203.966 165.61 203.483 165.992C203.001 166.347 202.759 166.855 202.759 167.516C202.759 167.897 202.975 168.252 203.407 168.582C203.839 168.887 204.461 169.141 205.274 169.345L207.522 169.878C208.767 170.183 209.783 170.665 210.57 171.326C211.358 171.961 211.942 172.685 212.323 173.498C212.704 174.285 212.895 175.085 212.895 175.898C212.895 177.041 212.564 178.045 211.904 178.908C211.269 179.772 210.392 180.445 209.275 180.928C208.157 181.385 206.887 181.613 205.465 181.613Z" fill="white"/>
<path d="M508.582 88.2157C503.787 88.2157 499.397 87.5065 495.412 86.0882C491.495 84.6024 488.253 82.4074 485.686 79.5033C483.187 76.5991 481.634 72.9858 481.026 68.6634L499.059 65.0163C499.329 65.7592 499.7 66.7047 500.173 67.8529C500.714 69.001 501.524 70.0141 502.605 70.8921C503.753 71.7026 505.34 72.1078 507.366 72.1078C509.662 72.1078 511.418 71.5337 512.634 70.3856C513.917 69.1699 514.559 67.549 514.559 65.5228C514.559 64.5098 514.356 63.4967 513.951 62.4836C513.546 61.403 512.6 60.525 511.114 59.8496C509.696 59.1742 507.434 58.8365 504.327 58.8365H498.046V43.7417H504.327C508.109 43.7417 510.608 43.1339 511.824 41.9182C513.039 40.7025 513.647 39.0478 513.647 36.9541C513.647 35.7384 513.377 34.6916 512.837 33.8136C512.296 32.9356 511.553 32.2602 510.608 31.7875C509.662 31.2471 508.582 30.977 507.366 30.977C506.488 30.977 505.475 31.1796 504.327 31.5848C503.246 31.9225 502.233 32.5979 501.288 33.611C500.41 34.6241 499.802 36.1774 499.464 38.2711L481.533 34.6241C482.141 30.2341 483.761 26.587 486.395 23.6829C489.097 20.7112 492.339 18.5162 496.121 17.0979C499.971 15.612 503.854 14.8691 507.771 14.8691C512.364 14.8691 516.518 15.7133 520.232 17.4018C523.947 19.0227 526.885 21.3528 529.046 24.392C531.275 27.3637 532.389 30.8757 532.389 34.928C532.389 38.7777 531.308 42.0195 529.147 44.6535C527.053 47.2875 524.352 49.3812 521.043 50.9346C524.757 52.8256 527.729 55.257 529.958 58.2287C532.254 61.1328 533.402 64.4422 533.402 68.1568C533.402 72.4793 532.186 76.1601 529.755 79.1993C527.391 82.171 524.318 84.4335 520.536 85.9869C516.754 87.4728 512.769 88.2157 508.582 88.2157ZM566.467 88.2157C562.752 88.2157 559.004 87.5741 555.222 86.2908C551.44 84.9401 548.097 83.0152 545.193 80.5163C542.356 78.0174 540.465 75.012 539.519 71.5L557.653 67.8529C558.194 69.2712 559.173 70.318 560.591 70.9934C562.01 71.6688 563.529 72.0065 565.15 72.0065C567.581 72.0065 569.54 71.2973 571.026 69.879C572.579 68.3932 573.356 66.4008 573.356 63.9019C573.356 61.7407 572.613 59.8496 571.127 58.2287C569.641 56.6078 567.615 55.7973 565.049 55.7973C563.36 55.7973 561.942 56.2025 560.794 57.013C559.646 57.8235 558.801 58.7352 558.261 59.7483L541.444 56.1012L546.51 16.0848H588.653V33.1044H562.212L560.186 45.0587C561.942 44.1132 563.901 43.3703 566.062 42.83C568.291 42.2221 570.756 41.952 573.457 42.0195C576.902 42.087 580.11 43.0326 583.082 44.8561C586.053 46.6121 588.417 49.0435 590.173 52.1502C591.997 55.1895 592.908 58.7352 592.908 62.7875C592.908 67.7854 591.76 72.2091 589.464 76.0588C587.235 79.9085 584.128 82.9139 580.144 85.0752C576.226 87.1688 571.668 88.2157 566.467 88.2157Z" fill="#FFCC00"/>
<path d="M482.162 142.156V115.485H490.545C493.161 115.485 495.473 116.056 497.48 117.199C499.512 118.317 501.099 119.879 502.242 121.886C503.411 123.893 503.995 126.204 503.995 128.82C503.995 131.411 503.411 133.71 502.242 135.717C501.099 137.724 499.512 139.299 497.48 140.442C495.473 141.585 493.161 142.156 490.545 142.156H482.162ZM486.582 138.041H490.545C491.79 138.041 492.958 137.813 494.05 137.355C495.143 136.873 496.095 136.212 496.908 135.374C497.721 134.536 498.356 133.558 498.813 132.44C499.27 131.322 499.499 130.116 499.499 128.82C499.499 127.525 499.27 126.318 498.813 125.201C498.356 124.083 497.721 123.105 496.908 122.267C496.095 121.429 495.143 120.781 494.05 120.324C492.958 119.841 491.79 119.6 490.545 119.6H486.582V138.041ZM508.122 142.156V123.105H512.351V142.156H508.122ZM510.256 119.485C509.57 119.485 508.973 119.244 508.465 118.761C507.982 118.253 507.741 117.656 507.741 116.971C507.741 116.285 507.982 115.701 508.465 115.218C508.973 114.735 509.57 114.494 510.256 114.494C510.942 114.494 511.526 114.735 512.009 115.218C512.517 115.701 512.771 116.285 512.771 116.971C512.771 117.656 512.517 118.253 512.009 118.761C511.526 119.244 510.942 119.485 510.256 119.485ZM524.316 142.613C523.046 142.613 521.877 142.423 520.81 142.042C519.743 141.661 518.829 141.127 518.067 140.442C517.305 139.73 516.721 138.905 516.314 137.965L520.01 136.327C520.391 137.038 520.95 137.635 521.687 138.117C522.449 138.6 523.287 138.841 524.201 138.841C525.192 138.841 525.979 138.676 526.564 138.346C527.173 137.99 527.478 137.508 527.478 136.898C527.478 136.314 527.249 135.869 526.792 135.565C526.335 135.234 525.687 134.968 524.849 134.764L523.058 134.269C521.255 133.812 519.845 133.088 518.829 132.097C517.813 131.081 517.305 129.925 517.305 128.63C517.305 126.725 517.914 125.252 519.134 124.21C520.378 123.169 522.156 122.648 524.468 122.648C525.636 122.648 526.703 122.826 527.669 123.181C528.659 123.511 529.51 123.994 530.221 124.629C530.933 125.239 531.428 125.963 531.707 126.801L528.164 128.401C527.91 127.766 527.427 127.284 526.716 126.953C526.005 126.598 525.217 126.42 524.354 126.42C523.49 126.42 522.817 126.61 522.334 126.992C521.852 127.347 521.61 127.855 521.61 128.516C521.61 128.897 521.826 129.252 522.258 129.582C522.69 129.887 523.312 130.141 524.125 130.345L526.373 130.878C527.618 131.183 528.634 131.665 529.421 132.326C530.209 132.961 530.793 133.685 531.174 134.498C531.555 135.285 531.746 136.085 531.746 136.898C531.746 138.041 531.415 139.045 530.755 139.908C530.12 140.772 529.244 141.445 528.126 141.928C527.008 142.385 525.738 142.613 524.316 142.613ZM542.712 142.613C540.705 142.613 539.169 142.118 538.102 141.127C537.06 140.111 536.54 138.664 536.54 136.784V126.763H533.377V123.105H536.54V117.161H540.769V123.105H545.913V126.763H540.769V135.984C540.769 136.873 540.972 137.546 541.379 138.003C541.81 138.46 542.433 138.689 543.246 138.689C543.5 138.689 543.779 138.638 544.084 138.537C544.389 138.435 544.732 138.244 545.113 137.965L546.675 141.204C546.014 141.661 545.354 142.004 544.694 142.232C544.033 142.486 543.373 142.613 542.712 142.613ZM550.088 142.156V123.105H554.355V126.572C555.117 125.379 556.108 124.489 557.327 123.905C558.547 123.321 559.804 123.029 561.1 123.029V127.106C559.931 127.106 558.826 127.271 557.785 127.601C556.769 127.906 555.943 128.414 555.308 129.125C554.673 129.836 554.355 130.776 554.355 131.945V142.156H550.088ZM564.197 142.156V123.105H568.426V142.156H564.197ZM566.33 119.485C565.644 119.485 565.048 119.244 564.539 118.761C564.057 118.253 563.816 117.656 563.816 116.971C563.816 116.285 564.057 115.701 564.539 115.218C565.048 114.735 565.644 114.494 566.33 114.494C567.016 114.494 567.6 114.735 568.083 115.218C568.591 115.701 568.845 116.285 568.845 116.971C568.845 117.656 568.591 118.253 568.083 118.761C567.6 119.244 567.016 119.485 566.33 119.485ZM582.371 142.613C580.415 142.613 578.688 142.194 577.189 141.356C575.691 140.492 574.51 139.311 573.646 137.813C572.808 136.314 572.389 134.587 572.389 132.631C572.389 130.675 572.808 128.947 573.646 127.449C574.51 125.95 575.678 124.782 577.151 123.943C578.65 123.08 580.365 122.648 582.295 122.648C584.175 122.648 585.877 123.105 587.401 124.02C588.925 124.909 590.055 126.191 590.792 127.868L586.829 129.392C586.423 128.554 585.801 127.881 584.962 127.373C584.124 126.865 583.172 126.61 582.105 126.61C581.063 126.61 580.136 126.877 579.323 127.411C578.51 127.919 577.875 128.63 577.418 129.544C576.961 130.433 576.732 131.462 576.732 132.631C576.732 133.799 576.961 134.841 577.418 135.755C577.901 136.644 578.548 137.355 579.361 137.889C580.2 138.397 581.139 138.651 582.181 138.651C583.248 138.651 584.2 138.384 585.039 137.851C585.877 137.292 586.499 136.543 586.906 135.603L590.868 137.127C590.132 138.854 589.001 140.2 587.477 141.166C585.978 142.131 584.277 142.613 582.371 142.613ZM601.763 142.613C599.757 142.613 598.22 142.118 597.153 141.127C596.112 140.111 595.591 138.664 595.591 136.784V126.763H592.428V123.105H595.591V117.161H599.82V123.105H604.964V126.763H599.82V135.984C599.82 136.873 600.023 137.546 600.43 138.003C600.862 138.46 601.484 138.689 602.297 138.689C602.551 138.689 602.83 138.638 603.135 138.537C603.44 138.435 603.783 138.244 604.164 137.965L605.726 141.204C605.066 141.661 604.405 142.004 603.745 142.232C603.084 142.486 602.424 142.613 601.763 142.613ZM616.074 142.613C614.804 142.613 613.635 142.423 612.568 142.042C611.502 141.661 610.587 141.127 609.825 140.442C609.063 139.73 608.479 138.905 608.072 137.965L611.768 136.327C612.149 137.038 612.708 137.635 613.445 138.117C614.207 138.6 615.045 138.841 615.96 138.841C616.95 138.841 617.738 138.676 618.322 138.346C618.931 137.99 619.236 137.508 619.236 136.898C619.236 136.314 619.008 135.869 618.55 135.565C618.093 135.234 617.446 134.968 616.607 134.764L614.816 134.269C613.013 133.812 611.603 133.088 610.587 132.097C609.571 131.081 609.063 129.925 609.063 128.63C609.063 126.725 609.673 125.252 610.892 124.21C612.137 123.169 613.915 122.648 616.226 122.648C617.395 122.648 618.462 122.826 619.427 123.181C620.417 123.511 621.268 123.994 621.98 124.629C622.691 125.239 623.186 125.963 623.466 126.801L619.922 128.401C619.668 127.766 619.186 127.284 618.474 126.953C617.763 126.598 616.976 126.42 616.112 126.42C615.248 126.42 614.575 126.61 614.093 126.992C613.61 127.347 613.369 127.855 613.369 128.516C613.369 128.897 613.584 129.252 614.016 129.582C614.448 129.887 615.07 130.141 615.883 130.345L618.131 130.878C619.376 131.183 620.392 131.665 621.18 132.326C621.967 132.961 622.551 133.685 622.932 134.498C623.313 135.285 623.504 136.085 623.504 136.898C623.504 138.041 623.174 139.045 622.513 139.908C621.878 140.772 621.002 141.445 619.884 141.928C618.766 142.385 617.496 142.613 616.074 142.613ZM493.708 181.613C491.142 181.613 488.856 181.029 486.849 179.861C484.868 178.667 483.306 177.041 482.162 174.984C481.045 172.901 480.486 170.513 480.486 167.82C480.486 165.128 481.045 162.753 482.162 160.695C483.306 158.612 484.868 156.987 486.849 155.818C488.83 154.624 491.104 154.027 493.669 154.027C495.397 154.027 497.022 154.345 498.547 154.98C500.071 155.59 501.417 156.441 502.585 157.533C503.779 158.625 504.694 159.895 505.329 161.343L501.29 162.981C500.833 162.016 500.21 161.165 499.423 160.429C498.661 159.667 497.784 159.082 496.794 158.676C495.803 158.269 494.762 158.066 493.669 158.066C491.993 158.066 490.494 158.485 489.173 159.324C487.878 160.162 486.849 161.318 486.087 162.791C485.35 164.239 484.982 165.915 484.982 167.82C484.982 169.726 485.35 171.415 486.087 172.888C486.849 174.361 487.891 175.517 489.211 176.355C490.558 177.194 492.082 177.613 493.784 177.613C494.901 177.613 495.943 177.397 496.908 176.965C497.899 176.508 498.775 175.885 499.537 175.098C500.325 174.311 500.947 173.396 501.404 172.355L505.443 173.993C504.808 175.492 503.906 176.825 502.738 177.994C501.569 179.137 500.21 180.026 498.661 180.661C497.111 181.296 495.46 181.613 493.708 181.613ZM517.661 181.613C515.756 181.613 514.054 181.194 512.555 180.356C511.082 179.492 509.926 178.311 509.088 176.813C508.25 175.314 507.83 173.587 507.83 171.631C507.83 169.675 508.237 167.947 509.05 166.449C509.888 164.95 511.044 163.782 512.517 162.943C513.99 162.08 515.679 161.648 517.585 161.648C519.49 161.648 521.179 162.08 522.652 162.943C524.125 163.782 525.269 164.95 526.081 166.449C526.92 167.947 527.339 169.675 527.339 171.631C527.339 173.587 526.932 175.314 526.12 176.813C525.307 178.311 524.164 179.492 522.69 180.356C521.217 181.194 519.541 181.613 517.661 181.613ZM517.661 177.689C518.702 177.689 519.629 177.435 520.442 176.927C521.255 176.393 521.89 175.682 522.347 174.793C522.805 173.879 523.033 172.825 523.033 171.631C523.033 170.437 522.792 169.395 522.309 168.506C521.852 167.592 521.217 166.881 520.404 166.373C519.591 165.839 518.651 165.572 517.585 165.572C516.518 165.572 515.578 165.826 514.765 166.334C513.952 166.842 513.317 167.554 512.86 168.468C512.403 169.383 512.174 170.437 512.174 171.631C512.174 172.825 512.403 173.879 512.86 174.793C513.343 175.682 513.99 176.393 514.803 176.927C515.641 177.435 516.594 177.689 517.661 177.689ZM536.159 181.156L528.272 162.105H532.654L538.293 176.279L543.894 162.105H548.314L540.465 181.156H536.159ZM558.957 181.613C557.103 181.613 555.451 181.194 554.004 180.356C552.581 179.492 551.451 178.311 550.612 176.813C549.8 175.314 549.393 173.587 549.393 171.631C549.393 169.675 549.812 167.947 550.651 166.449C551.489 164.95 552.632 163.782 554.08 162.943C555.553 162.08 557.23 161.648 559.109 161.648C560.811 161.648 562.348 162.092 563.72 162.981C565.091 163.845 566.171 165.102 566.958 166.754C567.771 168.405 568.178 170.373 568.178 172.659H553.813C553.94 174.26 554.524 175.517 555.566 176.432C556.633 177.346 557.89 177.803 559.338 177.803C560.506 177.803 561.472 177.549 562.234 177.041C562.996 176.508 563.593 175.822 564.025 174.984L567.797 176.584C567.263 177.6 566.577 178.489 565.739 179.251C564.926 180.013 563.948 180.597 562.805 181.004C561.688 181.41 560.405 181.613 558.957 181.613ZM554.08 169.383H563.567C563.491 168.468 563.224 167.719 562.767 167.135C562.31 166.525 561.751 166.068 561.091 165.763C560.43 165.458 559.732 165.306 558.995 165.306C558.284 165.306 557.56 165.458 556.823 165.763C556.112 166.042 555.502 166.487 554.994 167.096C554.486 167.706 554.181 168.468 554.08 169.383ZM571.446 181.156V162.105H575.714V165.572C576.476 164.379 577.466 163.489 578.686 162.905C579.905 162.321 581.162 162.029 582.458 162.029V166.106C581.289 166.106 580.184 166.271 579.143 166.601C578.127 166.906 577.301 167.414 576.666 168.125C576.031 168.836 575.714 169.776 575.714 170.945V181.156H571.446ZM593.785 181.613C591.931 181.613 590.279 181.194 588.832 180.356C587.409 179.492 586.279 178.311 585.44 176.813C584.628 175.314 584.221 173.587 584.221 171.631C584.221 169.675 584.64 167.947 585.479 166.449C586.317 164.95 587.46 163.782 588.908 162.943C590.381 162.08 592.058 161.648 593.937 161.648C595.639 161.648 597.176 162.092 598.548 162.981C599.919 163.845 600.999 165.102 601.786 166.754C602.599 168.405 603.006 170.373 603.006 172.659H588.641C588.768 174.26 589.352 175.517 590.394 176.432C591.461 177.346 592.718 177.803 594.166 177.803C595.334 177.803 596.3 177.549 597.062 177.041C597.824 176.508 598.421 175.822 598.852 174.984L602.625 176.584C602.091 177.6 601.405 178.489 600.567 179.251C599.754 180.013 598.776 180.597 597.633 181.004C596.516 181.41 595.233 181.613 593.785 181.613ZM588.908 169.383H598.395C598.319 168.468 598.052 167.719 597.595 167.135C597.138 166.525 596.579 166.068 595.919 165.763C595.258 165.458 594.56 165.306 593.823 165.306C593.112 165.306 592.388 165.458 591.651 165.763C590.94 166.042 590.33 166.487 589.822 167.096C589.314 167.706 589.009 168.468 588.908 169.383ZM613.818 181.613C612.091 181.613 610.58 181.207 609.284 180.394C608.014 179.556 607.011 178.387 606.274 176.889C605.563 175.39 605.207 173.637 605.207 171.631C605.207 169.599 605.563 167.846 606.274 166.373C607.011 164.874 608.014 163.718 609.284 162.905C610.58 162.067 612.091 161.648 613.818 161.648C615.139 161.648 616.308 161.94 617.324 162.524C618.34 163.083 619.178 163.883 619.839 164.925V154.485H624.068V181.156H620.029L619.877 178.26C619.242 179.327 618.403 180.153 617.362 180.737C616.346 181.321 615.165 181.613 613.818 181.613ZM614.885 177.727C615.825 177.727 616.663 177.486 617.4 177.003C618.137 176.495 618.708 175.809 619.115 174.946C619.546 174.057 619.788 173.04 619.839 171.897V171.364C619.788 170.221 619.546 169.218 619.115 168.354C618.708 167.465 618.137 166.779 617.4 166.296C616.663 165.814 615.812 165.572 614.847 165.572C613.831 165.572 612.917 165.826 612.104 166.334C611.316 166.842 610.694 167.554 610.237 168.468C609.805 169.383 609.589 170.437 609.589 171.631C609.589 172.825 609.818 173.879 610.275 174.793C610.732 175.708 611.354 176.432 612.142 176.965C612.955 177.473 613.869 177.727 614.885 177.727Z" fill="white"/>
<path d="M880.128 88.2157C874.184 88.2157 868.882 86.6623 864.222 83.5555C859.63 80.3812 856.016 76.0588 853.382 70.5882C850.816 65.0501 849.533 58.7015 849.533 51.5424C849.533 44.3833 850.816 38.0685 853.382 32.5979C856.016 27.0598 859.596 22.7373 864.121 19.6306C868.714 16.4563 873.982 14.8691 879.925 14.8691C886.003 14.8691 891.339 16.4563 895.931 19.6306C900.592 22.7373 904.239 27.0598 906.873 32.5979C909.507 38.0685 910.824 44.3833 910.824 51.5424C910.824 58.7015 909.507 65.0501 906.873 70.5882C904.239 76.0588 900.625 80.3812 896.033 83.5555C891.44 86.6623 886.138 88.2157 880.128 88.2157ZM880.128 71.196C882.559 71.196 884.686 70.3518 886.51 68.6634C888.401 66.9749 889.887 64.6786 890.967 61.7744C892.048 58.8028 892.588 55.3921 892.588 51.5424C892.588 47.6252 892.048 44.1807 890.967 41.209C889.887 38.2374 888.401 35.9073 886.51 34.2188C884.619 32.5304 882.424 31.6861 879.925 31.6861C877.561 31.6861 875.467 32.5304 873.644 34.2188C871.82 35.9073 870.368 38.2374 869.288 41.209C868.275 44.1807 867.768 47.6252 867.768 51.5424C867.768 55.3921 868.275 58.8028 869.288 61.7744C870.368 64.6786 871.854 66.9749 873.745 68.6634C875.636 70.3518 877.764 71.196 880.128 71.196ZM942.966 88.2157C938.171 88.2157 933.781 87.5065 929.796 86.0882C925.879 84.6024 922.637 82.4074 920.07 79.5033C917.571 76.5991 916.018 72.9858 915.41 68.6634L933.443 65.0163C933.713 65.7592 934.085 66.7047 934.557 67.8529C935.098 69.001 935.908 70.0141 936.989 70.8921C938.137 71.7026 939.724 72.1078 941.75 72.1078C944.046 72.1078 945.802 71.5337 947.018 70.3856C948.301 69.1699 948.943 67.549 948.943 65.5228C948.943 64.5098 948.74 63.4967 948.335 62.4836C947.93 61.403 946.984 60.525 945.499 59.8496C944.08 59.1742 941.818 58.8365 938.711 58.8365H932.43V43.7417H938.711C942.493 43.7417 944.992 43.1339 946.208 41.9182C947.423 40.7025 948.031 39.0478 948.031 36.9541C948.031 35.7384 947.761 34.6916 947.221 33.8136C946.68 32.9356 945.938 32.2602 944.992 31.7875C944.046 31.2471 942.966 30.977 941.75 30.977C940.872 30.977 939.859 31.1796 938.711 31.5848C937.63 31.9225 936.617 32.5979 935.672 33.611C934.794 34.6241 934.186 36.1774 933.848 38.2711L915.917 34.6241C916.525 30.2341 918.146 26.587 920.78 23.6829C923.481 20.7112 926.723 18.5162 930.505 17.0979C934.355 15.612 938.238 14.8691 942.155 14.8691C946.748 14.8691 950.902 15.7133 954.616 17.4018C958.331 19.0227 961.269 21.3528 963.43 24.392C965.659 27.3637 966.773 30.8757 966.773 34.928C966.773 38.7777 965.692 42.0195 963.531 44.6535C961.438 47.2875 958.736 49.3812 955.427 50.9346C959.141 52.8256 962.113 55.257 964.342 58.2287C966.638 61.1328 967.786 64.4422 967.786 68.1568C967.786 72.4793 966.57 76.1601 964.139 79.1993C961.775 82.171 958.702 84.4335 954.92 85.9869C951.138 87.4728 947.153 88.2157 942.966 88.2157Z" fill="#FFCC00"/>
<path d="M850.162 142.156V115.485H854.887L863.27 127.83L871.576 115.485H876.339V142.156H871.919V122.457L863.232 135.298L854.582 122.534V142.156H850.162ZM887.981 142.613C885.694 142.613 883.916 142.105 882.646 141.089C881.402 140.073 880.779 138.638 880.779 136.784C880.779 134.802 881.44 133.291 882.761 132.25C884.107 131.208 885.974 130.687 888.362 130.687H893.201C893.048 129.29 892.654 128.223 892.019 127.487C891.384 126.75 890.445 126.382 889.2 126.382C888.285 126.382 887.485 126.572 886.799 126.953C886.114 127.334 885.529 127.931 885.047 128.744L881.313 127.373C881.719 126.534 882.253 125.76 882.913 125.048C883.599 124.312 884.45 123.727 885.466 123.296C886.507 122.864 887.752 122.648 889.2 122.648C891.054 122.648 892.604 123.016 893.848 123.753C895.093 124.464 896.007 125.493 896.592 126.839C897.201 128.185 897.506 129.811 897.506 131.716L897.392 142.156H893.467L893.353 139.832C892.845 140.721 892.134 141.407 891.219 141.89C890.33 142.372 889.251 142.613 887.981 142.613ZM888.514 139.032C889.454 139.032 890.279 138.829 890.991 138.422C891.727 137.99 892.286 137.419 892.667 136.708C893.074 135.996 893.277 135.209 893.277 134.345V133.964H889.733C888.031 133.964 886.838 134.206 886.152 134.688C885.466 135.145 885.123 135.806 885.123 136.67C885.123 137.406 885.415 137.99 885.999 138.422C886.609 138.829 887.447 139.032 888.514 139.032ZM905.409 119.562C904.698 119.562 904.088 119.308 903.58 118.8C903.098 118.291 902.856 117.695 902.856 117.009C902.856 116.297 903.098 115.701 903.58 115.218C904.088 114.71 904.698 114.456 905.409 114.456C906.095 114.456 906.692 114.71 907.2 115.218C907.708 115.701 907.962 116.297 907.962 117.009C907.962 117.695 907.708 118.291 907.2 118.8C906.692 119.308 906.095 119.562 905.409 119.562ZM901.18 150.348C899.935 150.348 898.614 149.98 897.217 149.243L898.932 145.7C899.389 145.928 899.808 146.093 900.189 146.195C900.57 146.322 900.888 146.386 901.142 146.386C902.564 146.386 903.275 145.471 903.275 143.642V123.105H907.505V143.871C907.505 145.954 906.959 147.554 905.866 148.672C904.799 149.789 903.237 150.348 901.18 150.348ZM921.345 142.613C919.439 142.613 917.738 142.194 916.239 141.356C914.766 140.492 913.61 139.311 912.772 137.813C911.933 136.314 911.514 134.587 911.514 132.631C911.514 130.675 911.921 128.947 912.733 127.449C913.572 125.95 914.727 124.782 916.201 123.943C917.674 123.08 919.363 122.648 921.268 122.648C923.173 122.648 924.863 123.08 926.336 123.943C927.809 124.782 928.952 125.95 929.765 127.449C930.603 128.947 931.023 130.675 931.023 132.631C931.023 134.587 930.616 136.314 929.803 137.813C928.99 139.311 927.847 140.492 926.374 141.356C924.901 142.194 923.224 142.613 921.345 142.613ZM921.345 138.689C922.386 138.689 923.313 138.435 924.126 137.927C924.939 137.393 925.574 136.682 926.031 135.793C926.488 134.879 926.717 133.825 926.717 132.631C926.717 131.437 926.476 130.395 925.993 129.506C925.536 128.592 924.901 127.881 924.088 127.373C923.275 126.839 922.335 126.572 921.268 126.572C920.201 126.572 919.262 126.826 918.449 127.334C917.636 127.842 917.001 128.554 916.544 129.468C916.086 130.383 915.858 131.437 915.858 132.631C915.858 133.825 916.086 134.879 916.544 135.793C917.026 136.682 917.674 137.393 918.487 137.927C919.325 138.435 920.278 138.689 921.345 138.689ZM934.721 142.156V123.105H938.988V126.572C939.75 125.379 940.741 124.489 941.96 123.905C943.179 123.321 944.437 123.029 945.732 123.029V127.106C944.564 127.106 943.459 127.271 942.417 127.601C941.401 127.906 940.576 128.414 939.941 129.125C939.306 129.836 938.988 130.776 938.988 131.945V142.156H934.721ZM847.343 181.156L857.973 154.485H862.66L873.329 181.156H868.642L866.013 174.603H854.62L852.03 181.156H847.343ZM856.106 170.678H864.527L860.336 160.009L856.106 170.678ZM876.271 181.156V162.105H880.5V181.156H876.271ZM878.405 158.485C877.719 158.485 877.122 158.244 876.614 157.761C876.131 157.253 875.89 156.656 875.89 155.971C875.89 155.285 876.131 154.701 876.614 154.218C877.122 153.735 877.719 153.494 878.405 153.494C879.091 153.494 879.675 153.735 880.157 154.218C880.665 154.701 880.919 155.285 880.919 155.971C880.919 156.656 880.665 157.253 880.157 157.761C879.675 158.244 879.091 158.485 878.405 158.485ZM885.53 181.156V162.105H889.797V165.572C890.559 164.379 891.55 163.489 892.769 162.905C893.989 162.321 895.246 162.029 896.541 162.029V166.106C895.373 166.106 894.268 166.271 893.226 166.601C892.21 166.906 891.385 167.414 890.75 168.125C890.115 168.836 889.797 169.776 889.797 170.945V181.156H885.53ZM899.562 188.777V162.105H903.563L903.753 165.001C904.414 163.934 905.252 163.108 906.268 162.524C907.31 161.94 908.504 161.648 909.85 161.648C911.577 161.648 913.076 162.067 914.346 162.905C915.641 163.718 916.645 164.874 917.356 166.373C918.093 167.846 918.461 169.599 918.461 171.631C918.461 173.637 918.093 175.39 917.356 176.889C916.645 178.387 915.641 179.556 914.346 180.394C913.076 181.207 911.577 181.613 909.85 181.613C908.529 181.613 907.36 181.321 906.344 180.737C905.328 180.153 904.49 179.353 903.83 178.337V188.777H899.562ZM908.783 177.727C909.799 177.727 910.701 177.473 911.488 176.965C912.276 176.432 912.898 175.708 913.355 174.793C913.838 173.879 914.079 172.825 914.079 171.631C914.079 170.437 913.851 169.383 913.393 168.468C912.962 167.554 912.352 166.842 911.564 166.334C910.777 165.826 909.863 165.572 908.821 165.572C907.856 165.572 906.992 165.826 906.23 166.334C905.468 166.842 904.871 167.554 904.439 168.468C904.033 169.383 903.83 170.437 903.83 171.631C903.83 172.825 904.033 173.879 904.439 174.793C904.871 175.708 905.455 176.432 906.192 176.965C906.954 177.473 907.818 177.727 908.783 177.727ZM930.87 181.613C928.965 181.613 927.263 181.194 925.764 180.356C924.291 179.492 923.135 178.311 922.297 176.813C921.459 175.314 921.04 173.587 921.04 171.631C921.04 169.675 921.446 167.947 922.259 166.449C923.097 164.95 924.253 163.782 925.726 162.943C927.2 162.08 928.889 161.648 930.794 161.648C932.699 161.648 934.388 162.08 935.862 162.943C937.335 163.782 938.478 164.95 939.291 166.449C940.129 167.947 940.548 169.675 940.548 171.631C940.548 173.587 940.142 175.314 939.329 176.813C938.516 178.311 937.373 179.492 935.9 180.356C934.426 181.194 932.75 181.613 930.87 181.613ZM930.87 177.689C931.912 177.689 932.839 177.435 933.652 176.927C934.464 176.393 935.099 175.682 935.557 174.793C936.014 173.879 936.243 172.825 936.243 171.631C936.243 170.437 936.001 169.395 935.519 168.506C935.061 167.592 934.426 166.881 933.614 166.373C932.801 165.839 931.861 165.572 930.794 165.572C929.727 165.572 928.787 165.826 927.974 166.334C927.162 166.842 926.526 167.554 926.069 168.468C925.612 169.383 925.383 170.437 925.383 171.631C925.383 172.825 925.612 173.879 926.069 174.793C926.552 175.682 927.2 176.393 928.012 176.927C928.851 177.435 929.803 177.689 930.87 177.689ZM944.246 181.156V162.105H948.514V165.572C949.276 164.379 950.266 163.489 951.486 162.905C952.705 162.321 953.962 162.029 955.258 162.029V166.106C954.089 166.106 952.984 166.271 951.943 166.601C950.927 166.906 950.101 167.414 949.466 168.125C948.831 168.836 948.514 169.776 948.514 170.945V181.156H944.246ZM965.67 181.613C963.664 181.613 962.127 181.118 961.06 180.127C960.019 179.111 959.498 177.664 959.498 175.784V165.763H956.335V162.105H959.498V156.161H963.727V162.105H968.871V165.763H963.727V174.984C963.727 175.873 963.93 176.546 964.337 177.003C964.769 177.46 965.391 177.689 966.204 177.689C966.458 177.689 966.737 177.638 967.042 177.537C967.347 177.435 967.69 177.244 968.071 176.965L969.633 180.204C968.973 180.661 968.312 181.004 967.652 181.232C966.991 181.486 966.331 181.613 965.67 181.613Z" fill="white"/>
<path d="M1224.13 88.2157C1218.18 88.2157 1212.88 86.6623 1208.22 83.5555C1203.63 80.3812 1200.02 76.0588 1197.38 70.5882C1194.82 65.0501 1193.53 58.7015 1193.53 51.5424C1193.53 44.3833 1194.82 38.0685 1197.38 32.5979C1200.02 27.0598 1203.6 22.7373 1208.12 19.6306C1212.71 16.4563 1217.98 14.8691 1223.92 14.8691C1230 14.8691 1235.34 16.4563 1239.93 19.6306C1244.59 22.7373 1248.24 27.0598 1250.87 32.5979C1253.51 38.0685 1254.82 44.3833 1254.82 51.5424C1254.82 58.7015 1253.51 65.0501 1250.87 70.5882C1248.24 76.0588 1244.63 80.3812 1240.03 83.5555C1235.44 86.6623 1230.14 88.2157 1224.13 88.2157ZM1224.13 71.196C1226.56 71.196 1228.69 70.3518 1230.51 68.6634C1232.4 66.9749 1233.89 64.6786 1234.97 61.7744C1236.05 58.8028 1236.59 55.3921 1236.59 51.5424C1236.59 47.6252 1236.05 44.1807 1234.97 41.209C1233.89 38.2374 1232.4 35.9073 1230.51 34.2188C1228.62 32.5304 1226.42 31.6861 1223.92 31.6861C1221.56 31.6861 1219.47 32.5304 1217.64 34.2188C1215.82 35.9073 1214.37 38.2374 1213.29 41.209C1212.27 44.1807 1211.77 47.6252 1211.77 51.5424C1211.77 55.3921 1212.27 58.8028 1213.29 61.7744C1214.37 64.6786 1215.85 66.9749 1217.75 68.6634C1219.64 70.3518 1221.76 71.196 1224.13 71.196ZM1275.11 87V39.1829C1272.95 40.3986 1270.69 41.3103 1268.33 41.9182C1265.96 42.4585 1263.5 42.5936 1260.93 42.3234V25.3038C1262.89 25.5064 1264.81 25.1349 1266.7 24.1894C1268.66 23.2439 1270.55 22.0282 1272.38 20.5423C1274.2 18.9889 1275.82 17.5031 1277.24 16.0848H1292.84V87H1275.11Z" fill="#FFCC00"/>
<path d="M1194.16 142.156V115.485H1210.74V119.523H1198.58V126.992H1208.98V131.03H1198.58V142.156H1194.16ZM1220.76 142.613C1219.26 142.613 1217.97 142.309 1216.87 141.699C1215.81 141.089 1214.98 140.137 1214.4 138.841C1213.81 137.546 1213.52 135.882 1213.52 133.85V123.105H1217.79V132.859C1217.79 134.358 1217.97 135.526 1218.32 136.365C1218.68 137.203 1219.16 137.787 1219.77 138.117C1220.4 138.448 1221.13 138.613 1221.94 138.613C1223.39 138.638 1224.51 138.168 1225.29 137.203C1226.08 136.238 1226.47 134.853 1226.47 133.05V123.105H1230.7V142.156H1226.7L1226.51 139.451C1225.9 140.467 1225.1 141.254 1224.11 141.813C1223.15 142.347 1222.03 142.613 1220.76 142.613ZM1235.45 142.156V115.485H1239.71V142.156H1235.45ZM1244.45 142.156V115.485H1248.72V142.156H1244.45ZM1256.47 150.234C1255.86 150.234 1255.17 150.12 1254.41 149.891C1253.67 149.662 1252.96 149.37 1252.27 149.015L1253.87 145.547C1254.36 145.776 1254.8 145.954 1255.21 146.081C1255.61 146.233 1255.94 146.309 1256.2 146.309C1256.81 146.309 1257.32 146.144 1257.72 145.814C1258.15 145.509 1258.5 145.052 1258.75 144.442L1259.78 142.004L1251.32 123.105H1255.97L1261.76 137.127L1267.44 123.105H1272.09L1263.25 144.176C1262.71 145.395 1262.17 146.462 1261.61 147.376C1261.08 148.291 1260.4 148.989 1259.59 149.472C1258.78 149.98 1257.74 150.234 1256.47 150.234ZM1284.62 142.156V115.485H1293.42C1295.25 115.485 1296.82 115.764 1298.14 116.323C1299.49 116.882 1300.53 117.72 1301.27 118.838C1302.01 119.93 1302.37 121.302 1302.37 122.953C1302.37 124.096 1302.09 125.124 1301.54 126.039C1301 126.953 1300.24 127.715 1299.25 128.325C1300.55 128.96 1301.54 129.811 1302.22 130.878C1302.91 131.945 1303.25 133.215 1303.25 134.688C1303.25 136.263 1302.89 137.609 1302.18 138.727C1301.47 139.845 1300.47 140.696 1299.17 141.28C1297.88 141.864 1296.34 142.156 1294.56 142.156H1284.62ZM1288.96 138.194H1294.22C1295.62 138.194 1296.72 137.851 1297.54 137.165C1298.35 136.479 1298.75 135.552 1298.75 134.383C1298.75 133.113 1298.3 132.123 1297.38 131.411C1296.49 130.7 1295.24 130.345 1293.61 130.345H1288.96V138.194ZM1288.96 126.687H1293.8C1295.07 126.687 1296.06 126.356 1296.77 125.696C1297.51 125.01 1297.88 124.07 1297.88 122.876C1297.88 121.657 1297.46 120.73 1296.62 120.095C1295.81 119.435 1294.66 119.104 1293.19 119.104H1288.96V126.687ZM1307.15 142.156V123.105H1311.42V126.572C1312.18 125.379 1313.17 124.489 1314.39 123.905C1315.61 123.321 1316.86 123.029 1318.16 123.029V127.106C1316.99 127.106 1315.89 127.271 1314.85 127.601C1313.83 127.906 1313 128.414 1312.37 129.125C1311.73 129.836 1311.42 130.776 1311.42 131.945V142.156H1307.15ZM1327.12 142.613C1324.84 142.613 1323.06 142.105 1321.79 141.089C1320.55 140.073 1319.92 138.638 1319.92 136.784C1319.92 134.802 1320.58 133.291 1321.9 132.25C1323.25 131.208 1325.12 130.687 1327.51 130.687H1332.34C1332.19 129.29 1331.8 128.223 1331.16 127.487C1330.53 126.75 1329.59 126.382 1328.34 126.382C1327.43 126.382 1326.63 126.572 1325.94 126.953C1325.26 127.334 1324.67 127.931 1324.19 128.744L1320.46 127.373C1320.86 126.534 1321.4 125.76 1322.06 125.048C1322.74 124.312 1323.59 123.727 1324.61 123.296C1325.65 122.864 1326.9 122.648 1328.34 122.648C1330.2 122.648 1331.75 123.016 1332.99 123.753C1334.24 124.464 1335.15 125.493 1335.74 126.839C1336.35 128.185 1336.65 129.811 1336.65 131.716L1336.54 142.156H1332.61L1332.5 139.832C1331.99 140.721 1331.28 141.407 1330.36 141.89C1329.47 142.372 1328.39 142.613 1327.12 142.613ZM1327.66 139.032C1328.6 139.032 1329.42 138.829 1330.13 138.422C1330.87 137.99 1331.43 137.419 1331.81 136.708C1332.22 135.996 1332.42 135.209 1332.42 134.345V133.964H1328.88C1327.18 133.964 1325.98 134.206 1325.3 134.688C1324.61 135.145 1324.27 135.806 1324.27 136.67C1324.27 137.406 1324.56 137.99 1325.14 138.422C1325.75 138.829 1326.59 139.032 1327.66 139.032ZM1340.97 142.156V123.105H1344.97L1345.16 125.81C1345.77 124.794 1346.56 124.02 1347.53 123.486C1348.52 122.927 1349.65 122.648 1350.92 122.648C1352.44 122.648 1353.74 122.953 1354.8 123.562C1355.9 124.172 1356.72 125.124 1357.28 126.42C1357.86 127.69 1358.16 129.354 1358.16 131.411V142.156H1353.89V132.402C1353.89 130.878 1353.71 129.709 1353.36 128.897C1353.02 128.058 1352.54 127.474 1351.91 127.144C1351.3 126.814 1350.57 126.649 1349.74 126.649C1348.31 126.623 1347.21 127.093 1346.42 128.058C1345.63 129.024 1345.24 130.408 1345.24 132.212V142.156H1340.97ZM1370.02 142.613C1368.3 142.613 1366.78 142.207 1365.49 141.394C1364.22 140.556 1363.22 139.387 1362.48 137.889C1361.77 136.39 1361.41 134.637 1361.41 132.631C1361.41 130.599 1361.77 128.846 1362.48 127.373C1363.22 125.874 1364.22 124.718 1365.49 123.905C1366.78 123.067 1368.3 122.648 1370.02 122.648C1371.34 122.648 1372.51 122.94 1373.53 123.524C1374.54 124.083 1375.38 124.883 1376.04 125.925V115.485H1380.27V142.156H1376.23L1376.08 139.26C1375.45 140.327 1374.61 141.153 1373.57 141.737C1372.55 142.321 1371.37 142.613 1370.02 142.613ZM1371.09 138.727C1372.03 138.727 1372.87 138.486 1373.6 138.003C1374.34 137.495 1374.91 136.809 1375.32 135.946C1375.75 135.057 1375.99 134.04 1376.04 132.897V132.364C1375.99 131.221 1375.75 130.218 1375.32 129.354C1374.91 128.465 1374.34 127.779 1373.6 127.296C1372.87 126.814 1372.02 126.572 1371.05 126.572C1370.04 126.572 1369.12 126.826 1368.31 127.334C1367.52 127.842 1366.9 128.554 1366.44 129.468C1366.01 130.383 1365.79 131.437 1365.79 132.631C1365.79 133.825 1366.02 134.879 1366.48 135.793C1366.94 136.708 1367.56 137.432 1368.35 137.965C1369.16 138.473 1370.07 138.727 1371.09 138.727ZM1393.49 142.613C1391.63 142.613 1389.98 142.194 1388.53 141.356C1387.11 140.492 1385.98 139.311 1385.14 137.813C1384.33 136.314 1383.92 134.587 1383.92 132.631C1383.92 130.675 1384.34 128.947 1385.18 127.449C1386.02 125.95 1387.16 124.782 1388.61 123.943C1390.08 123.08 1391.76 122.648 1393.64 122.648C1395.34 122.648 1396.88 123.092 1398.25 123.981C1399.62 124.845 1400.7 126.102 1401.49 127.754C1402.3 129.405 1402.71 131.373 1402.71 133.659H1388.34C1388.47 135.26 1389.05 136.517 1390.1 137.432C1391.16 138.346 1392.42 138.803 1393.87 138.803C1395.04 138.803 1396 138.549 1396.76 138.041C1397.53 137.508 1398.12 136.822 1398.55 135.984L1402.33 137.584C1401.79 138.6 1401.11 139.489 1400.27 140.251C1399.46 141.013 1398.48 141.597 1397.34 142.004C1396.22 142.41 1394.94 142.613 1393.49 142.613ZM1388.61 130.383H1398.1C1398.02 129.468 1397.75 128.719 1397.3 128.135C1396.84 127.525 1396.28 127.068 1395.62 126.763C1394.96 126.458 1394.26 126.306 1393.53 126.306C1392.81 126.306 1392.09 126.458 1391.35 126.763C1390.64 127.042 1390.03 127.487 1389.52 128.096C1389.02 128.706 1388.71 129.468 1388.61 130.383ZM1413.52 142.613C1411.79 142.613 1410.28 142.207 1408.99 141.394C1407.72 140.556 1406.71 139.387 1405.98 137.889C1405.27 136.39 1404.91 134.637 1404.91 132.631C1404.91 130.599 1405.27 128.846 1405.98 127.373C1406.71 125.874 1407.72 124.718 1408.99 123.905C1410.28 123.067 1411.79 122.648 1413.52 122.648C1414.84 122.648 1416.01 122.94 1417.03 123.524C1418.04 124.083 1418.88 124.883 1419.54 125.925V115.485H1423.77V142.156H1419.73L1419.58 139.26C1418.94 140.327 1418.11 141.153 1417.06 141.737C1416.05 142.321 1414.87 142.613 1413.52 142.613ZM1414.59 138.727C1415.53 138.727 1416.37 138.486 1417.1 138.003C1417.84 137.495 1418.41 136.809 1418.82 135.946C1419.25 135.057 1419.49 134.04 1419.54 132.897V132.364C1419.49 131.221 1419.25 130.218 1418.82 129.354C1418.41 128.465 1417.84 127.779 1417.1 127.296C1416.37 126.814 1415.51 126.572 1414.55 126.572C1413.53 126.572 1412.62 126.826 1411.81 127.334C1411.02 127.842 1410.4 128.554 1409.94 129.468C1409.51 130.383 1409.29 131.437 1409.29 132.631C1409.29 133.825 1409.52 134.879 1409.98 135.793C1410.43 136.708 1411.06 137.432 1411.84 137.965C1412.66 138.473 1413.57 138.727 1414.59 138.727ZM1194.16 181.156V154.485H1198.89L1207.27 166.83L1215.58 154.485H1220.34V181.156H1215.92V161.457L1207.23 174.298L1198.58 161.534V181.156H1194.16ZM1234.34 181.613C1232.49 181.613 1230.84 181.194 1229.39 180.356C1227.97 179.492 1226.84 178.311 1226 176.813C1225.19 175.314 1224.78 173.587 1224.78 171.631C1224.78 169.675 1225.2 167.947 1226.04 166.449C1226.87 164.95 1228.02 163.782 1229.47 162.943C1230.94 162.08 1232.62 161.648 1234.5 161.648C1236.2 161.648 1237.73 162.092 1239.11 162.981C1240.48 163.845 1241.56 165.102 1242.34 166.754C1243.16 168.405 1243.56 170.373 1243.56 172.659H1229.2C1229.33 174.26 1229.91 175.517 1230.95 176.432C1232.02 177.346 1233.28 177.803 1234.72 177.803C1235.89 177.803 1236.86 177.549 1237.62 177.041C1238.38 176.508 1238.98 175.822 1239.41 174.984L1243.18 176.584C1242.65 177.6 1241.96 178.489 1241.13 179.251C1240.31 180.013 1239.33 180.597 1238.19 181.004C1237.07 181.41 1235.79 181.613 1234.34 181.613ZM1229.47 169.383H1238.95C1238.88 168.468 1238.61 167.719 1238.15 167.135C1237.7 166.525 1237.14 166.068 1236.48 165.763C1235.82 165.458 1235.12 165.306 1234.38 165.306C1233.67 165.306 1232.95 165.458 1232.21 165.763C1231.5 166.042 1230.89 166.487 1230.38 167.096C1229.87 167.706 1229.57 168.468 1229.47 169.383ZM1254.41 181.613C1252.41 181.613 1250.87 181.118 1249.8 180.127C1248.76 179.111 1248.24 177.664 1248.24 175.784V165.763H1245.08V162.105H1248.24V156.161H1252.47V162.105H1257.62V165.763H1252.47V174.984C1252.47 175.873 1252.67 176.546 1253.08 177.003C1253.51 177.46 1254.14 177.689 1254.95 177.689C1255.2 177.689 1255.48 177.638 1255.79 177.537C1256.09 177.435 1256.43 177.244 1256.81 176.965L1258.38 180.204C1257.72 180.661 1257.06 181.004 1256.4 181.232C1255.74 181.486 1255.07 181.613 1254.41 181.613ZM1261.79 181.156V162.105H1266.06V165.572C1266.82 164.379 1267.81 163.489 1269.03 162.905C1270.25 162.321 1271.51 162.029 1272.8 162.029V166.106C1271.63 166.106 1270.53 166.271 1269.49 166.601C1268.47 166.906 1267.65 167.414 1267.01 168.125C1266.38 168.836 1266.06 169.776 1266.06 170.945V181.156H1261.79ZM1284.4 181.613C1282.49 181.613 1280.79 181.194 1279.29 180.356C1277.82 179.492 1276.66 178.311 1275.82 176.813C1274.98 175.314 1274.57 173.587 1274.57 171.631C1274.57 169.675 1274.97 167.947 1275.78 166.449C1276.62 164.95 1277.78 163.782 1279.25 162.943C1280.73 162.08 1282.41 161.648 1284.32 161.648C1286.22 161.648 1287.91 162.08 1289.39 162.943C1290.86 163.782 1292 164.95 1292.82 166.449C1293.65 167.947 1294.07 169.675 1294.07 171.631C1294.07 173.587 1293.67 175.314 1292.85 176.813C1292.04 178.311 1290.9 179.492 1289.43 180.356C1287.95 181.194 1286.28 181.613 1284.4 181.613ZM1284.4 177.689C1285.44 177.689 1286.36 177.435 1287.18 176.927C1287.99 176.393 1288.63 175.682 1289.08 174.793C1289.54 173.879 1289.77 172.825 1289.77 171.631C1289.77 170.437 1289.53 169.395 1289.04 168.506C1288.59 167.592 1287.95 166.881 1287.14 166.373C1286.33 165.839 1285.39 165.572 1284.32 165.572C1283.25 165.572 1282.31 165.826 1281.5 166.334C1280.69 166.842 1280.05 167.554 1279.59 168.468C1279.14 169.383 1278.91 170.437 1278.91 171.631C1278.91 172.825 1279.14 173.879 1279.59 174.793C1280.08 175.682 1280.73 176.393 1281.54 176.927C1282.38 177.435 1283.33 177.689 1284.4 177.689ZM1313.29 181.156V158.523H1305.1V154.485H1325.9V158.523H1317.71V181.156H1313.29ZM1327.2 181.156V162.105H1331.47V165.572C1332.23 164.379 1333.22 163.489 1334.44 162.905C1335.66 162.321 1336.92 162.029 1338.22 162.029V166.106C1337.05 166.106 1335.94 166.271 1334.9 166.601C1333.88 166.906 1333.06 167.414 1332.42 168.125C1331.79 168.836 1331.47 169.776 1331.47 170.945V181.156H1327.2ZM1347.18 181.613C1344.89 181.613 1343.12 181.105 1341.85 180.089C1340.6 179.073 1339.98 177.638 1339.98 175.784C1339.98 173.802 1340.64 172.291 1341.96 171.25C1343.31 170.208 1345.17 169.687 1347.56 169.687H1352.4C1352.25 168.29 1351.85 167.223 1351.22 166.487C1350.58 165.75 1349.64 165.382 1348.4 165.382C1347.49 165.382 1346.69 165.572 1346 165.953C1345.31 166.334 1344.73 166.931 1344.25 167.744L1340.51 166.373C1340.92 165.534 1341.45 164.76 1342.11 164.048C1342.8 163.312 1343.65 162.727 1344.67 162.296C1345.71 161.864 1346.95 161.648 1348.4 161.648C1350.25 161.648 1351.8 162.016 1353.05 162.753C1354.29 163.464 1355.21 164.493 1355.79 165.839C1356.4 167.185 1356.71 168.811 1356.71 170.716L1356.59 181.156H1352.67L1352.55 178.832C1352.05 179.721 1351.33 180.407 1350.42 180.89C1349.53 181.372 1348.45 181.613 1347.18 181.613ZM1347.71 178.032C1348.65 178.032 1349.48 177.829 1350.19 177.422C1350.93 176.99 1351.49 176.419 1351.87 175.708C1352.27 174.996 1352.48 174.209 1352.48 173.345V172.964H1348.93C1347.23 172.964 1346.04 173.206 1345.35 173.688C1344.67 174.145 1344.32 174.806 1344.32 175.67C1344.32 176.406 1344.62 176.99 1345.2 177.422C1345.81 177.829 1346.65 178.032 1347.71 178.032ZM1361.29 181.156V162.105H1365.52V181.156H1361.29ZM1363.43 158.485C1362.74 158.485 1362.15 158.244 1361.64 157.761C1361.15 157.253 1360.91 156.656 1360.91 155.971C1360.91 155.285 1361.15 154.701 1361.64 154.218C1362.15 153.735 1362.74 153.494 1363.43 153.494C1364.11 153.494 1364.7 153.735 1365.18 154.218C1365.69 154.701 1365.94 155.285 1365.94 155.971C1365.94 156.656 1365.69 157.253 1365.18 157.761C1364.7 158.244 1364.11 158.485 1363.43 158.485ZM1370.55 181.156V162.105H1374.55L1374.74 164.81C1375.35 163.794 1376.14 163.02 1377.11 162.486C1378.1 161.927 1379.23 161.648 1380.5 161.648C1382.02 161.648 1383.32 161.953 1384.38 162.562C1385.48 163.172 1386.3 164.124 1386.86 165.42C1387.45 166.69 1387.74 168.354 1387.74 170.411V181.156H1383.47V171.402C1383.47 169.878 1383.29 168.709 1382.94 167.897C1382.61 167.058 1382.12 166.474 1381.49 166.144C1380.88 165.814 1380.15 165.649 1379.32 165.649C1377.89 165.623 1376.79 166.093 1376 167.058C1375.21 168.024 1374.82 169.408 1374.82 171.212V181.156H1370.55Z" fill="white"/>
</svg>
